<svg width="334" height="365" viewBox="0 0 334 365" fill="none" xmlns="http://www.w3.org/2000/svg">
<path d="M234.991 81.738H207.738V99.8715H234.991V81.738Z" fill="#D9D9D9"/>
<path d="M232.755 99.8936H209.997V145.359H232.755V99.8936Z" fill="#D9D9D9"/>
<path d="M230.613 97.4727C230.613 97.4727 230.566 97.4727 230.543 97.4727L223.859 94.0837L219.011 97.4727C219.011 97.4727 218.893 97.5168 218.846 97.4727L212.163 94.0837L208.02 97.3187L207.832 97.0986L212.045 93.7976C212.045 93.7976 212.163 93.7536 212.21 93.7976L218.893 97.1867L223.741 93.7976C223.741 93.7976 223.859 93.7536 223.906 93.7976L230.59 97.1867L234.708 93.9517L234.897 94.1718L230.684 97.4727C230.684 97.4727 230.613 97.5168 230.59 97.5168L230.613 97.4727Z" fill="white"/>
<path d="M223.836 97.4728C223.836 97.4728 223.765 97.4728 223.741 97.4507L218.893 94.0617L212.21 97.4507C212.21 97.4507 212.092 97.4507 212.045 97.4507L207.832 94.1498L208.02 93.9297L212.163 97.1647L218.846 93.7756C218.846 93.7756 218.964 93.7536 219.011 93.7756L223.859 97.1647L230.543 93.7756C230.543 93.7756 230.661 93.7536 230.708 93.7756L234.92 97.0766L234.732 97.2967L230.613 94.0617L223.93 97.4507C223.93 97.4507 223.883 97.4507 223.859 97.4507L223.836 97.4728Z" fill="white"/>
<path d="M218.917 87.7458H212.139V93.9077H218.917V87.7458Z" fill="black"/>
<path d="M230.613 87.7458H223.836V93.9077H230.613V87.7458Z" fill="black"/>
<path d="M234.991 87.3938H207.738V88.0982H234.991V87.3938Z" fill="white"/>
<path d="M234.991 93.5336H207.738V94.238H234.991V93.5336Z" fill="white"/>
<path d="M234.991 96.9886H207.738V97.6931H234.991V96.9886Z" fill="white"/>
<path d="M234.991 83.3225H207.738V84.0269H234.991V83.3225Z" fill="white"/>
<path d="M212.492 83.6747H211.739V97.3408H212.492V83.6747Z" fill="white"/>
<path d="M219.27 83.6747H218.517V97.3408H219.27V83.6747Z" fill="white"/>
<path d="M224.212 83.6747H223.459V97.3408H224.212V83.6747Z" fill="white"/>
<path d="M230.966 83.6747H230.213V97.3408H230.966V83.6747Z" fill="white"/>
<path d="M234.567 78.9652H208.162L205.691 81.738H237.038L234.567 78.9652Z" fill="black"/>
<path d="M221.364 40.8499L234.567 78.9653H208.162L221.364 40.8499Z" fill="black"/>
<path d="M234.567 78.9653L221.364 40.8499L228.401 78.9653L230.072 81.7381H237.038L234.567 78.9653Z" fill="black"/>
<path d="M208.162 78.9653L221.364 40.8499L214.328 78.9653L212.657 81.7381H205.691L208.162 78.9653Z" fill="black"/>
<path d="M131.84 81.738H104.587V99.8715H131.84V81.738Z" fill="#D9D9D9"/>
<path d="M129.604 99.8936H106.846V145.359H129.604V99.8936Z" fill="#D9D9D9"/>
<path d="M115.766 97.4728C115.766 97.4728 115.719 97.4728 115.695 97.4728L109.011 94.0838L104.94 97.2748L104.752 97.0547L108.894 93.8197C108.894 93.8197 109.011 93.7757 109.058 93.8197L115.742 97.2087L120.59 93.8197C120.59 93.8197 120.708 93.7757 120.755 93.8197L127.439 97.2087L131.581 93.9518L131.769 94.1718L127.533 97.4948C127.533 97.4948 127.415 97.5388 127.368 97.4948L120.684 94.1058L115.836 97.4948C115.836 97.4948 115.789 97.5168 115.742 97.5168L115.766 97.4728Z" fill="white"/>
<path d="M120.684 97.4728C120.684 97.4728 120.614 97.4728 120.59 97.4507L115.742 94.0617L109.058 97.4507C109.058 97.4507 108.941 97.4507 108.894 97.4507L104.799 94.2378L104.987 94.0177L109.011 97.1647L115.695 93.7756C115.695 93.7756 115.813 93.7536 115.86 93.7756L120.708 97.1647L127.392 93.7756C127.392 93.7756 127.509 93.7536 127.556 93.7756L131.793 97.0986L131.604 97.3187L127.462 94.0617L120.778 97.4507C120.778 97.4507 120.731 97.4507 120.708 97.4507L120.684 97.4728Z" fill="white"/>
<path d="M115.742 87.7458H108.964V93.9077H115.742V87.7458Z" fill="black"/>
<path d="M127.462 87.7458H120.684V93.9077H127.462V87.7458Z" fill="black"/>
<path d="M131.84 87.3938H104.587V88.0982H131.84V87.3938Z" fill="white"/>
<path d="M131.84 93.5336H104.587V94.238H131.84V93.5336Z" fill="white"/>
<path d="M131.84 96.9886H104.587V97.6931H131.84V96.9886Z" fill="white"/>
<path d="M131.84 83.3225H104.587V84.0269H131.84V83.3225Z" fill="white"/>
<path d="M109.341 83.6747H108.588V97.3408H109.341V83.6747Z" fill="white"/>
<path d="M116.119 83.6747H115.366V97.3408H116.119V83.6747Z" fill="white"/>
<path d="M121.037 83.6747H120.284V97.3408H121.037V83.6747Z" fill="white"/>
<path d="M127.815 83.6747H127.062V97.3408H127.815V83.6747Z" fill="white"/>
<path d="M131.416 78.9652H105.01L102.539 81.738H133.887L131.416 78.9652Z" fill="black"/>
<path d="M118.213 40.8499L131.416 78.9653H105.01L118.213 40.8499Z" fill="black"/>
<path d="M131.416 78.9653L118.213 40.8499L125.25 78.9653L126.921 81.7381H133.887L131.416 78.9653Z" fill="black"/>
<path d="M105.01 78.9653L118.213 40.8499L111.176 78.9653L109.505 81.7381H102.539L105.01 78.9653Z" fill="black"/>
<path d="M227.578 105.285V316.24H113.13V105.285L145.49 0.0496826H195.218L227.578 105.285Z" fill="#D9D9D9"/>
<path d="M227.554 105.285H162.858V316.24H227.554V105.285Z" fill="#D9D9D9"/>
<path d="M195.218 0.0496826L227.554 105.285H162.858L195.218 0.0496826Z" fill="black"/>
<path d="M195.218 10.8109L223.341 102.314H167.094L195.218 10.8109Z" fill="#D9D9D9"/>
<path d="M200.984 61.338V73.0675H189.428V61.338C189.428 57.0027 191.217 53.0195 194.206 50.1147C194.512 49.7405 194.865 49.4324 195.218 49.1464C198.748 52.1613 200.984 56.4966 200.984 61.338Z" fill="#D9D9D9"/>
<path d="M198.96 61.338V73.0675H189.452V61.338C189.452 57.0027 191.24 53.0195 194.229 50.1146C197.171 53.0415 198.96 56.9807 198.96 61.338Z" fill="black"/>
<path d="M113.13 105.285H162.858L195.218 0.0496826H145.466L113.13 105.285Z" fill="black"/>
<g opacity="0.4">
<path d="M118.072 104.867C118.072 104.867 118.048 104.867 118.025 104.867C117.954 104.867 117.907 104.757 117.931 104.691L149.961 0.555871C149.961 0.555871 150.055 0.423831 150.149 0.467845C150.22 0.467845 150.267 0.577878 150.244 0.643897L118.237 104.779C118.237 104.779 118.166 104.889 118.096 104.889L118.072 104.867Z" fill="white"/>
<path d="M122.52 104.867C122.52 104.867 122.496 104.867 122.473 104.867C122.402 104.867 122.355 104.757 122.379 104.691L154.386 0.555871C154.386 0.555871 154.48 0.423831 154.574 0.467845C154.644 0.467845 154.692 0.577878 154.668 0.643897L122.661 104.779C122.661 104.779 122.591 104.889 122.52 104.889V104.867Z" fill="white"/>
<path d="M126.968 104.867C126.968 104.867 126.944 104.867 126.921 104.867C126.85 104.867 126.803 104.757 126.827 104.691L158.834 0.555871C158.834 0.555871 158.928 0.423831 159.022 0.467845C159.092 0.467845 159.14 0.577878 159.116 0.643897L127.109 104.779C127.109 104.779 127.039 104.889 126.968 104.889V104.867Z" fill="white"/>
<path d="M131.416 104.867C131.416 104.867 131.392 104.867 131.369 104.867C131.298 104.867 131.251 104.757 131.275 104.691L163.282 0.555871C163.282 0.555871 163.376 0.423831 163.47 0.467845C163.54 0.467845 163.588 0.577878 163.564 0.643897L131.557 104.779C131.557 104.779 131.487 104.889 131.416 104.889V104.867Z" fill="white"/>
<path d="M135.864 104.867C135.864 104.867 135.84 104.867 135.817 104.867C135.746 104.867 135.699 104.757 135.723 104.691L167.73 0.555871C167.73 0.555871 167.824 0.423831 167.918 0.467845C167.988 0.467845 168.036 0.577878 168.012 0.643897L136.005 104.779C136.005 104.779 135.935 104.889 135.864 104.889V104.867Z" fill="white"/>
<path d="M140.288 104.867C140.288 104.867 140.265 104.867 140.241 104.867C140.171 104.867 140.124 104.757 140.147 104.691L172.178 0.555871C172.178 0.555871 172.272 0.423831 172.366 0.467845C172.436 0.467845 172.484 0.577878 172.46 0.643897L140.453 104.779C140.453 104.779 140.383 104.889 140.312 104.889L140.288 104.867Z" fill="white"/>
<path d="M144.736 104.867C144.736 104.867 144.713 104.867 144.689 104.867C144.619 104.867 144.572 104.757 144.595 104.691L176.602 0.555871C176.602 0.555871 176.696 0.423831 176.79 0.467845C176.861 0.467845 176.908 0.577878 176.884 0.643897L144.878 104.779C144.878 104.779 144.807 104.889 144.736 104.889V104.867Z" fill="white"/>
<path d="M149.184 104.867C149.184 104.867 149.161 104.867 149.137 104.867C149.067 104.867 149.02 104.757 149.043 104.691L181.05 0.555871C181.05 0.555871 181.144 0.423831 181.238 0.467845C181.309 0.467845 181.356 0.577878 181.332 0.643897L149.326 104.779C149.326 104.779 149.255 104.889 149.184 104.889V104.867Z" fill="white"/>
<path d="M153.632 104.867C153.632 104.867 153.609 104.867 153.585 104.867C153.515 104.867 153.468 104.757 153.491 104.691L185.498 0.555871C185.498 0.555871 185.592 0.423831 185.686 0.467845C185.757 0.467845 185.804 0.577878 185.78 0.643897L153.774 104.779C153.774 104.779 153.703 104.889 153.632 104.889V104.867Z" fill="white"/>
<path d="M158.08 104.867C158.08 104.867 158.057 104.867 158.033 104.867C157.963 104.867 157.916 104.757 157.939 104.691L189.946 0.555871C189.946 0.555871 190.04 0.423831 190.134 0.467845C190.205 0.467845 190.252 0.577878 190.228 0.643897L158.222 104.779C158.222 104.779 158.151 104.889 158.08 104.889V104.867Z" fill="white"/>
</g>
<path d="M124.403 143.026H119.696V152.269H124.403V143.026Z" fill="black"/>
<path d="M121.79 143.026H121.037V152.269H121.79V143.026Z" fill="black"/>
<path d="M124.403 146.393H119.696V147.098H124.403V146.393Z" fill="black"/>
<path d="M135.205 143.026H130.498V152.269H135.205V143.026Z" fill="black"/>
<path d="M132.593 143.026H131.84V152.269H132.593V143.026Z" fill="black"/>
<path d="M135.205 146.393H130.498V147.098H135.205V146.393Z" fill="black"/>
<path d="M124.403 169.654H119.696V178.897H124.403V169.654Z" fill="black"/>
<path d="M121.79 169.654H121.037V178.897H121.79V169.654Z" fill="black"/>
<path d="M124.403 173.043H119.696V173.748H124.403V173.043Z" fill="black"/>
<path d="M135.205 169.654H130.498V178.897H135.205V169.654Z" fill="black"/>
<path d="M132.593 169.654H131.84V178.897H132.593V169.654Z" fill="black"/>
<path d="M135.205 173.043H130.498V173.748H135.205V173.043Z" fill="black"/>
<path d="M124.403 196.304H119.696V205.547H124.403V196.304Z" fill="black"/>
<path d="M121.79 196.304H121.037V205.547H121.79V196.304Z" fill="black"/>
<path d="M124.403 199.671H119.696V200.376H124.403V199.671Z" fill="black"/>
<path d="M135.205 196.304H130.498V205.547H135.205V196.304Z" fill="black"/>
<path d="M132.593 196.304H131.84V205.547H132.593V196.304Z" fill="black"/>
<path d="M135.205 199.671H130.498V200.376H135.205V199.671Z" fill="black"/>
<path d="M151.491 123.309H113.13V124.013H151.491V123.309Z" fill="black"/>
<path d="M227.225 123.309H174.249V124.013H227.225V123.309Z" fill="black"/>
<path d="M117.484 123.661H115.342V121.504C115.342 120.954 115.813 120.514 116.401 120.514C116.989 120.514 117.46 120.954 117.46 121.504V123.661H117.484Z" fill="black"/>
<path d="M122.779 123.661H120.637V121.504C120.637 120.954 121.108 120.514 121.696 120.514C122.285 120.514 122.755 120.954 122.755 121.504V123.661H122.779Z" fill="black"/>
<path d="M128.074 123.661H125.932V121.504C125.932 120.954 126.403 120.514 126.992 120.514C127.58 120.514 128.051 120.954 128.051 121.504V123.661H128.074Z" fill="black"/>
<path d="M133.369 123.661H131.228V121.504C131.228 120.954 131.698 120.514 132.287 120.514C132.875 120.514 133.346 120.954 133.346 121.504V123.661H133.369Z" fill="black"/>
<path d="M138.665 123.661H136.523V121.504C136.523 120.954 136.994 120.514 137.582 120.514C138.17 120.514 138.641 120.954 138.641 121.504V123.661H138.665Z" fill="black"/>
<path d="M143.96 123.661H141.818V121.504C141.818 120.954 142.289 120.514 142.877 120.514C143.466 120.514 143.936 120.954 143.936 121.504V123.661H143.96Z" fill="black"/>
<path d="M149.255 123.661H147.113V121.504C147.113 120.954 147.584 120.514 148.172 120.514C148.761 120.514 149.232 120.954 149.232 121.504V123.661H149.255Z" fill="black"/>
<path d="M180.909 123.661H178.767V121.504C178.767 120.954 179.238 120.514 179.826 120.514C180.415 120.514 180.885 120.954 180.885 121.504V123.661H180.909Z" fill="black"/>
<path d="M186.204 123.661H184.062V121.504C184.062 120.954 184.533 120.514 185.121 120.514C185.71 120.514 186.181 120.954 186.181 121.504V123.661H186.204Z" fill="black"/>
<path d="M191.523 123.661H189.381V121.504C189.381 120.954 189.852 120.514 190.44 120.514C191.029 120.514 191.499 120.954 191.499 121.504V123.661H191.523Z" fill="black"/>
<path d="M196.818 123.661H194.676V121.504C194.676 120.954 195.147 120.514 195.735 120.514C196.324 120.514 196.795 120.954 196.795 121.504V123.661H196.818Z" fill="black"/>
<path d="M202.113 123.661H199.972V121.504C199.972 120.954 200.442 120.514 201.031 120.514C201.619 120.514 202.09 120.954 202.09 121.504V123.661H202.113Z" fill="black"/>
<path d="M207.409 123.661H205.267V121.504C205.267 120.954 205.738 120.514 206.326 120.514C206.914 120.514 207.385 120.954 207.385 121.504V123.661H207.409Z" fill="black"/>
<path d="M212.704 123.661H210.562V121.504C210.562 120.954 211.033 120.514 211.621 120.514C212.21 120.514 212.68 120.954 212.68 121.504V123.661H212.704Z" fill="black"/>
<path d="M218.14 123.661H215.999V121.504C215.999 120.954 216.469 120.514 217.058 120.514C217.646 120.514 218.117 120.954 218.117 121.504V123.661H218.14Z" fill="black"/>
<path d="M223.435 123.661H221.294V121.504C221.294 120.954 221.765 120.514 222.353 120.514C222.941 120.514 223.412 120.954 223.412 121.504V123.661H223.435Z" fill="black"/>
<g style="mix-blend-mode:multiply" opacity="0.2">
<path d="M227.578 223.857V316.24H113.13V213.381C132.31 236.444 181.709 240.163 227.578 223.857Z" fill="#D9D9D9"/>
</g>
<path d="M221.741 132.837H217.081V130.923H221.741V132.837ZM218.423 134.092H213.763V136.006H218.423V134.092ZM224.071 138.097H219.411V140.012H224.071V138.097Z" fill="#D9D9D9"/>
<path d="M221.647 111.293H217.975V109.775H221.647V111.293ZM219.011 112.283H215.34V113.802H219.011V112.283ZM223.483 115.452H219.811V116.971H223.483V115.452Z" fill="#D9D9D9"/>
<path d="M182.086 111.293H178.414V109.775H182.086V111.293ZM185.145 112.283H181.474V113.802H185.145V112.283ZM183.921 115.452H180.25V116.971H183.921V115.452Z" fill="#D9D9D9"/>
<path d="M176.484 81.738H149.232V99.8715H176.484V81.738Z" fill="#D9D9D9"/>
<path d="M174.249 99.8936H151.491V145.359H174.249V99.8936Z" fill="#D9D9D9"/>
<path d="M172.107 97.4727C172.107 97.4727 172.06 97.4727 172.036 97.4727L165.353 94.0837L160.505 97.4727C160.505 97.4727 160.387 97.5168 160.34 97.4727L153.656 94.0837L149.514 97.3407L149.326 97.1206L153.562 93.7976C153.562 93.7976 153.68 93.7536 153.727 93.7976L160.41 97.1867L165.258 93.7976C165.258 93.7976 165.376 93.7536 165.423 93.7976L172.107 97.1867L176.249 93.9517L176.437 94.1718L172.225 97.4727C172.225 97.4727 172.154 97.5168 172.131 97.5168L172.107 97.4727Z" fill="white"/>
<path d="M153.632 97.4728C153.632 97.4728 153.562 97.4728 153.538 97.4288L149.302 94.1058L149.49 93.8857L153.632 97.1427L160.316 93.7537C160.316 93.7537 160.434 93.7317 160.481 93.7537L165.329 97.1427L172.013 93.7537C172.013 93.7537 172.131 93.7317 172.178 93.7537L176.39 97.0547L176.202 97.2747L172.06 94.0398L165.376 97.4288C165.376 97.4288 165.258 97.4288 165.211 97.4288L160.363 94.0398L153.68 97.4288C153.68 97.4288 153.632 97.4288 153.609 97.4288L153.632 97.4728Z" fill="white"/>
<path d="M159.022 107.398H155.939V112.173H159.022V107.398Z" fill="black"/>
<path d="M168.53 122.516H165.447V127.292H168.53V122.516Z" fill="black"/>
<path d="M160.41 87.7458H153.632V93.9077H160.41V87.7458Z" fill="black"/>
<path d="M172.107 87.7458H165.329V93.9077H172.107V87.7458Z" fill="black"/>
<path d="M176.484 87.3938H149.232V88.0982H176.484V87.3938Z" fill="white"/>
<path d="M176.484 93.5336H149.232V94.238H176.484V93.5336Z" fill="white"/>
<path d="M176.484 96.9886H149.232V97.6931H176.484V96.9886Z" fill="white"/>
<path d="M176.484 83.3225H149.232V84.0269H176.484V83.3225Z" fill="white"/>
<path d="M153.985 83.6747H153.232V97.3408H153.985V83.6747Z" fill="white"/>
<path d="M160.763 83.6747H160.01V97.3408H160.763V83.6747Z" fill="white"/>
<path d="M165.706 83.6747H164.953V97.3408H165.706V83.6747Z" fill="white"/>
<path d="M172.484 83.6747H171.73V97.3408H172.484V83.6747Z" fill="white"/>
<path d="M176.061 78.9652H149.655L147.184 81.738H178.532L176.061 78.9652Z" fill="black"/>
<path d="M162.858 40.8499L176.061 78.9653H149.655L162.858 40.8499Z" fill="black"/>
<path d="M176.061 78.9653L162.858 40.8499L169.895 78.9653L171.566 81.7381H178.532L176.061 78.9653Z" fill="black"/>
<path d="M149.655 78.9653L162.858 40.8499L155.845 78.9653L154.15 81.7381H147.184L149.655 78.9653Z" fill="black"/>
<path d="M100.468 213.557H67.8496L48.5985 254.094V316.24H119.719V254.094L100.468 213.557Z" fill="#D9D9D9"/>
<path d="M100.468 213.557L81.2172 254.094V316.24H119.719V254.094L100.468 213.557Z" fill="black"/>
<path d="M100.468 220.886L84.3943 254.71V316.24H116.542V254.71L100.468 220.886Z" fill="#D9D9D9"/>
<path d="M98.7503 243.927V251.453H105.528V243.927C105.528 242.188 104.022 240.758 102.139 240.758C101.857 240.758 101.598 240.78 101.339 240.846C100.727 240.978 100.186 241.286 99.7387 241.682C99.1268 242.254 98.7503 243.024 98.7503 243.905V243.927Z" fill="#D9D9D9"/>
<path d="M98.7503 243.926V251.453H103.928V243.926C103.928 242.43 102.822 241.176 101.339 240.845C100.727 240.977 100.186 241.286 99.7387 241.682C99.1268 242.254 98.7503 243.024 98.7503 243.904V243.926Z" fill="black"/>
<path d="M98.7503 252.355H106.752V251.453H98.7503V252.355Z" fill="black"/>
<path d="M100.468 213.557L81.2172 254.094H48.5985L67.8496 213.557H100.468Z" fill="black"/>
<g opacity="0.4">
<path d="M52.5994 253.389C52.5994 253.389 52.5523 253.389 52.5288 253.389C52.4582 253.367 52.4111 253.279 52.4582 253.191L70.9091 214.328C70.9091 214.328 71.0268 214.218 71.1209 214.262C71.1915 214.284 71.2386 214.372 71.1915 214.46L52.7406 253.323C52.7406 253.323 52.67 253.411 52.5994 253.411V253.389Z" fill="white"/>
<path d="M55.6588 253.389C55.6588 253.389 55.6118 253.389 55.5882 253.389C55.5176 253.367 55.4706 253.279 55.5176 253.191L73.9686 214.328C73.9686 214.328 74.0863 214.218 74.1804 214.262C74.251 214.284 74.2981 214.372 74.251 214.46L55.8 253.323C55.8 253.323 55.7294 253.411 55.6588 253.411V253.389Z" fill="white"/>
<path d="M58.6948 253.389C58.6948 253.389 58.6477 253.389 58.6242 253.389C58.5536 253.367 58.5065 253.279 58.5536 253.191L77.0045 214.328C77.0045 214.328 77.1222 214.218 77.2163 214.262C77.2869 214.284 77.334 214.372 77.2869 214.46L58.836 253.323C58.836 253.323 58.7654 253.411 58.6948 253.411V253.389Z" fill="white"/>
<path d="M61.7307 253.389C61.7307 253.389 61.6836 253.389 61.6601 253.389C61.5895 253.367 61.5424 253.279 61.5895 253.191L80.0405 214.328C80.0405 214.328 80.1581 214.218 80.2523 214.262C80.3229 214.284 80.3699 214.372 80.3229 214.46L61.8719 253.323C61.8719 253.323 61.8013 253.411 61.7307 253.411V253.389Z" fill="white"/>
<path d="M64.7902 253.389C64.7902 253.389 64.7431 253.389 64.7196 253.389C64.649 253.367 64.6019 253.279 64.649 253.191L83.0999 214.328C83.0999 214.328 83.2176 214.218 83.3117 214.262C83.3823 214.284 83.4294 214.372 83.3823 214.46L64.9314 253.323C64.9314 253.323 64.8608 253.411 64.7902 253.411V253.389Z" fill="white"/>
<path d="M67.8261 253.389C67.8261 253.389 67.779 253.389 67.7555 253.389C67.6849 253.367 67.6378 253.279 67.6849 253.191L86.1359 214.328C86.1359 214.328 86.2535 214.218 86.3477 214.262C86.4183 214.284 86.4653 214.372 86.4183 214.46L67.9673 253.323C67.9673 253.323 67.8967 253.411 67.8261 253.411V253.389Z" fill="white"/>
<path d="M70.862 253.389C70.862 253.389 70.815 253.389 70.7914 253.389C70.7208 253.367 70.6738 253.279 70.7208 253.191L89.1718 214.328C89.1718 214.328 89.2895 214.218 89.3836 214.262C89.4542 214.284 89.5013 214.372 89.4542 214.46L71.0032 253.323C71.0032 253.323 70.9326 253.411 70.862 253.411V253.389Z" fill="white"/>
<path d="M73.9215 253.389C73.9215 253.389 73.8744 253.389 73.8509 253.389C73.7803 253.367 73.7332 253.279 73.7803 253.191L92.2313 214.328C92.2313 214.328 92.3489 214.218 92.4431 214.262C92.5137 214.284 92.5608 214.372 92.5137 214.46L74.0627 253.323C74.0627 253.323 73.9921 253.411 73.9215 253.411V253.389Z" fill="white"/>
<path d="M76.9575 253.389C76.9575 253.389 76.9104 253.389 76.8868 253.389C76.8162 253.367 76.7692 253.279 76.8162 253.191L95.2672 214.328C95.2672 214.328 95.3849 214.218 95.479 214.262C95.5496 214.284 95.5967 214.372 95.5496 214.46L77.0987 253.323C77.0987 253.323 77.0281 253.411 76.9575 253.411V253.389Z" fill="white"/>
</g>
<path d="M57.9181 261.532H53.2113V270.775H57.9181V261.532Z" fill="black"/>
<path d="M55.3058 261.532H54.5527V270.775H55.3058V261.532Z" fill="black"/>
<path d="M57.9181 264.899H53.2113V265.603H57.9181V264.899Z" fill="black"/>
<path d="M68.6969 261.532H63.99V270.775H68.6969V261.532Z" fill="black"/>
<path d="M66.1081 261.532H65.355V270.775H66.1081V261.532Z" fill="black"/>
<path d="M68.6969 264.899H63.99V265.603H68.6969V264.899Z" fill="black"/>
<path d="M57.9181 277.399H53.2113V286.641H57.9181V277.399Z" fill="black"/>
<path d="M55.3058 277.377H54.5527V286.619H55.3058V277.377Z" fill="black"/>
<path d="M57.9181 280.766H53.2113V281.47H57.9181V280.766Z" fill="black"/>
<path d="M68.6969 277.399H63.99V286.641H68.6969V277.399Z" fill="black"/>
<path d="M66.1081 277.377H65.355V286.619H66.1081V277.377Z" fill="black"/>
<path d="M68.6969 280.766H63.99V281.47H68.6969V280.766Z" fill="black"/>
<path d="M57.9181 293.243H53.2113V302.486H57.9181V293.243Z" fill="black"/>
<path d="M55.3058 293.243H54.5527V302.486H55.3058V293.243Z" fill="black"/>
<path d="M57.9181 296.632H53.2113V297.337H57.9181V296.632Z" fill="black"/>
<path d="M68.6969 293.243H63.99V302.486H68.6969V293.243Z" fill="black"/>
<path d="M66.1081 293.243H65.355V302.486H66.1081V293.243Z" fill="black"/>
<path d="M68.6969 296.632H63.99V297.337H68.6969V296.632Z" fill="black"/>
<path d="M97.2676 271.633H92.6078V269.718H97.2676V271.633ZM93.9493 272.887H89.2895V274.802H93.9493V272.887ZM99.5975 276.892H94.9377V278.807H99.5975V276.892Z" fill="#D9D9D9"/>
<path d="M108.352 262.654H103.693V260.74H108.352V262.654ZM105.034 263.909H100.374V265.823H105.034V263.909ZM110.682 267.914H106.022V269.828H110.682V267.914Z" fill="#D9D9D9"/>
<path d="M275.258 241.836V316.24H142.289V241.836L174.437 156.671H243.134L275.258 241.836Z" fill="#D9D9D9"/>
<path d="M142.289 316.24V241.858L174.46 156.671L206.608 241.858V316.24H142.289Z" fill="black"/>
<path d="M145.466 316.24V242.364L174.46 165.605L203.431 242.364V316.24H145.466Z" fill="#D9D9D9"/>
<path d="M176.837 222.228V231.251H168.742V222.228C168.742 220.138 170.554 218.443 172.789 218.443C173.119 218.443 173.425 218.465 173.731 218.553C174.46 218.729 175.119 219.081 175.637 219.565C176.367 220.248 176.837 221.194 176.837 222.228Z" fill="#D9D9D9"/>
<path d="M176.837 222.228V231.251H170.624V222.228C170.624 220.446 171.942 218.949 173.731 218.553C174.46 218.729 175.119 219.081 175.637 219.566C176.367 220.248 176.837 221.194 176.837 222.228Z" fill="black"/>
<path d="M176.837 231.229H167.259V232.328H176.837V231.229Z" fill="black"/>
<path d="M234.85 266.263H240.498V255.194H234.85V266.263Z" fill="black"/>
<path d="M238.803 255.194H238.05V266.263H238.803V255.194Z" fill="black"/>
<path d="M240.474 259.309H234.826V260.014H240.474V259.309Z" fill="black"/>
<path d="M221.929 266.263H227.577V255.194H221.929V266.263Z" fill="black"/>
<path d="M225.883 255.194H225.13V266.263H225.883V255.194Z" fill="black"/>
<path d="M227.554 259.309H221.906V260.014H227.554V259.309Z" fill="black"/>
<path d="M260.949 266.263H266.598V255.194H260.949V266.263Z" fill="black"/>
<path d="M264.903 255.194H264.15V266.263H264.903V255.194Z" fill="black"/>
<path d="M266.598 259.309H260.949V260.014H266.598V259.309Z" fill="black"/>
<path d="M248.029 266.263H253.677V255.194H248.029V266.263Z" fill="black"/>
<path d="M251.983 255.194H251.23V266.263H251.983V255.194Z" fill="black"/>
<path d="M253.677 259.309H248.029V260.014H253.677V259.309Z" fill="black"/>
<path d="M234.85 285.255H240.498V274.186H234.85V285.255Z" fill="black"/>
<path d="M238.803 274.186H238.05V285.255H238.803V274.186Z" fill="black"/>
<path d="M240.474 278.301H234.826V279.005H240.474V278.301Z" fill="black"/>
<path d="M221.929 285.255H227.577V274.186H221.929V285.255Z" fill="black"/>
<path d="M225.883 274.186H225.13V285.255H225.883V274.186Z" fill="black"/>
<path d="M227.554 278.301H221.906V279.005H227.554V278.301Z" fill="black"/>
<path d="M206.608 241.858H275.282L243.11 156.671H174.46L206.608 241.858Z" fill="black"/>
<g opacity="0.4">
<path d="M268.198 240.516C268.198 240.516 268.08 240.472 268.057 240.428L237.015 158.189C237.015 158.189 237.015 158.035 237.109 158.013C237.18 157.991 237.274 158.013 237.297 158.101L268.339 240.34C268.339 240.34 268.339 240.494 268.245 240.516C268.245 240.516 268.221 240.516 268.198 240.516Z" fill="white"/>
<path d="M262.714 240.516C262.714 240.516 262.597 240.472 262.573 240.428L231.531 158.189C231.531 158.189 231.531 158.035 231.625 158.013C231.696 157.991 231.79 158.013 231.814 158.101L262.856 240.34C262.856 240.34 262.856 240.494 262.761 240.516C262.761 240.516 262.738 240.516 262.714 240.516Z" fill="white"/>
<path d="M257.231 240.516C257.231 240.516 257.113 240.472 257.09 240.428L226.048 158.189C226.048 158.189 226.048 158.035 226.142 158.013C226.213 157.991 226.307 158.013 226.33 158.101L257.372 240.34C257.372 240.34 257.372 240.494 257.278 240.516C257.278 240.516 257.254 240.516 257.231 240.516Z" fill="white"/>
<path d="M251.724 240.516C251.724 240.516 251.606 240.472 251.583 240.428L220.541 158.189C220.541 158.189 220.541 158.035 220.635 158.013C220.705 157.991 220.8 158.013 220.823 158.101L251.865 240.34C251.865 240.34 251.865 240.494 251.771 240.516C251.771 240.516 251.747 240.516 251.724 240.516Z" fill="white"/>
<path d="M246.24 240.516C246.24 240.516 246.123 240.472 246.099 240.428L215.057 158.189C215.057 158.189 215.057 158.035 215.151 158.013C215.222 157.991 215.316 158.013 215.34 158.101L246.381 240.34C246.381 240.34 246.381 240.494 246.287 240.516C246.287 240.516 246.264 240.516 246.24 240.516Z" fill="white"/>
<path d="M240.733 240.516C240.733 240.516 240.616 240.472 240.592 240.428L209.55 158.189C209.55 158.189 209.55 158.035 209.644 158.013C209.715 157.991 209.809 158.013 209.833 158.101L240.874 240.34C240.874 240.34 240.874 240.494 240.78 240.516C240.78 240.516 240.757 240.516 240.733 240.516Z" fill="white"/>
<path d="M235.25 240.516C235.25 240.516 235.132 240.472 235.109 240.428L204.067 158.189C204.067 158.189 204.067 158.035 204.161 158.013C204.231 157.991 204.326 158.013 204.349 158.101L235.391 240.34C235.391 240.34 235.391 240.494 235.297 240.516C235.297 240.516 235.273 240.516 235.25 240.516Z" fill="white"/>
<path d="M229.743 240.516C229.743 240.516 229.625 240.472 229.601 240.428L198.56 158.189C198.56 158.189 198.56 158.035 198.654 158.013C198.724 157.991 198.818 158.013 198.842 158.101L229.884 240.34C229.884 240.34 229.884 240.494 229.79 240.516C229.79 240.516 229.766 240.516 229.743 240.516Z" fill="white"/>
<path d="M224.259 240.516C224.259 240.516 224.142 240.472 224.118 240.428L193.076 158.189C193.076 158.189 193.076 158.035 193.17 158.013C193.241 157.991 193.335 158.013 193.359 158.101L224.4 240.34C224.4 240.34 224.4 240.494 224.306 240.516C224.306 240.516 224.283 240.516 224.259 240.516Z" fill="white"/>
<path d="M218.776 240.516C218.776 240.516 218.658 240.472 218.634 240.428L187.593 158.189C187.593 158.189 187.593 158.035 187.687 158.013C187.757 157.991 187.851 158.013 187.875 158.101L218.917 240.34C218.917 240.34 218.917 240.494 218.823 240.516C218.823 240.516 218.799 240.516 218.776 240.516Z" fill="white"/>
<path d="M213.269 240.516C213.269 240.516 213.151 240.472 213.127 240.428L182.086 158.189C182.086 158.189 182.086 158.035 182.18 158.013C182.25 157.991 182.344 158.013 182.368 158.101L213.41 240.34C213.41 240.34 213.41 240.494 213.316 240.516C213.316 240.516 213.292 240.516 213.269 240.516Z" fill="white"/>
</g>
<g style="mix-blend-mode:multiply" opacity="0.2">
<path d="M275.258 274.472V316.24H142.289V296.919C224.071 317.627 262.714 293.662 275.258 274.472Z" fill="#D9D9D9"/>
</g>
<path d="M160.034 242.342H164.694V244.257H160.034V242.342ZM163.352 247.448H168.012V245.533H163.352V247.448ZM157.704 251.453H162.364V249.538H157.704V251.453Z" fill="#D9D9D9"/>
<path d="M154.88 260.255H159.54V262.17H154.88V260.255ZM158.198 265.361H162.858V263.446H158.198V265.361ZM152.55 269.366H157.21V267.452H152.55V269.366Z" fill="#D9D9D9"/>
<path d="M159.869 307.328H89.2895V362.344H159.869V307.328Z" fill="#D9D9D9"/>
<path d="M165.941 307.328H83.2176L95.3613 284.617H153.774L165.941 307.328Z" fill="#D9D9D9"/>
<path d="M150.079 341.174V362.344H99.0797V341.174C99.0797 334.594 101.927 328.608 106.564 324.295C111.153 319.981 117.554 317.297 124.567 317.297C131.581 317.297 138.006 319.959 142.618 324.295C147.231 328.608 150.102 334.572 150.102 341.174H150.079Z" fill="#D9D9D9"/>
<path d="M124.568 323.15C113.93 323.15 105.316 331.205 105.316 341.152V362.322H143.842V341.152C143.842 331.205 135.229 323.15 124.591 323.15H124.568Z" fill="black"/>
<path d="M116.411 318.542L115.701 318.777L117.794 324.294L118.504 324.059L116.411 318.542Z" fill="white"/>
<path d="M112.437 320.171L111.78 320.516L114.845 325.62L115.502 325.275L112.437 320.171Z" fill="white"/>
<path d="M112.141 327.398L108.211 322.864L108.799 322.424L112.73 326.958L112.141 327.398Z" fill="white"/>
<path d="M109.835 329.576L105.128 325.725L105.646 325.197L110.329 329.026L109.835 329.576Z" fill="white"/>
<path d="M103.017 328.403L102.623 329.003L107.94 332.052L108.333 331.451L103.017 328.403Z" fill="white"/>
<path d="M100.997 332.022L100.719 332.677L106.513 334.835L106.791 334.18L100.997 332.022Z" fill="white"/>
<path d="M99.6851 335.879L99.5298 336.568L105.632 337.771L105.788 337.082L99.6851 335.879Z" fill="white"/>
<path d="M105.316 340.844L99.0797 340.624L99.1033 339.897L105.34 340.117L105.316 340.844Z" fill="white"/>
<path d="M105.293 343.198H99.0562V343.903H105.293V343.198Z" fill="white"/>
<path d="M105.293 346.257H99.0562V346.962H105.293V346.257Z" fill="white"/>
<path d="M105.293 349.316H99.0562V350.021H105.293V349.316Z" fill="white"/>
<path d="M105.293 352.397H99.0562V353.101H105.293V352.397Z" fill="white"/>
<path d="M105.293 355.456H99.0562V356.16H105.293V355.456Z" fill="white"/>
<path d="M105.293 358.537H99.0562V359.241H105.293V358.537Z" fill="white"/>
<path d="M150.079 358.537H143.819V359.241H150.079V358.537Z" fill="white"/>
<path d="M150.079 355.456H143.819V356.16H150.079V355.456Z" fill="white"/>
<path d="M150.079 352.397H143.819V353.101H150.079V352.397Z" fill="white"/>
<path d="M150.079 349.316H143.819V350.021H150.079V349.316Z" fill="white"/>
<path d="M150.079 346.257H143.819V346.962H150.079V346.257Z" fill="white"/>
<path d="M150.079 343.198H143.819V343.903H150.079V343.198Z" fill="white"/>
<path d="M143.819 340.844L143.795 340.117L150.032 339.897L150.079 340.624L143.819 340.844Z" fill="white"/>
<path d="M149.445 335.911L143.319 337.117L143.474 337.806L149.6 336.601L149.445 335.911Z" fill="white"/>
<path d="M148.128 332.029L142.311 334.192L142.589 334.846L148.406 332.684L148.128 332.029Z" fill="white"/>
<path d="M146.092 328.421L140.775 331.469L141.169 332.07L146.486 329.021L146.092 328.421Z" fill="white"/>
<path d="M143.496 325.157L138.812 329.007L139.309 329.536L143.993 325.686L143.496 325.157Z" fill="white"/>
<path d="M136.994 327.398L136.405 326.958L140.336 322.424L140.924 322.864L136.994 327.398Z" fill="white"/>
<path d="M136.708 320.181L133.651 325.264L134.307 325.61L137.364 320.526L136.708 320.181Z" fill="white"/>
<path d="M132.713 318.606L130.633 324.104L131.343 324.339L133.423 318.841L132.713 318.606Z" fill="white"/>
<path d="M124.567 323.172C125.674 323.172 126.756 323.282 127.839 323.459L129.416 314.81H119.743L121.32 323.459C122.379 323.282 123.461 323.172 124.591 323.172H124.567Z" fill="#D9D9D9"/>
<path d="M127.815 323.789C127.815 323.789 127.768 323.789 127.745 323.789C125.462 323.414 123.65 323.414 121.343 323.789C121.249 323.789 121.131 323.789 121.061 323.723C120.967 323.679 120.92 323.591 120.896 323.502L119.319 314.854C119.319 314.854 119.319 314.634 119.413 314.568C119.484 314.48 119.602 314.436 119.696 314.436H129.369C129.369 314.436 129.58 314.48 129.651 314.568C129.722 314.656 129.745 314.744 129.745 314.854L128.168 323.502C128.168 323.502 128.098 323.679 128.004 323.723C127.933 323.767 127.862 323.789 127.792 323.789H127.815ZM120.167 315.14L121.602 323.04C123.697 322.732 125.415 322.732 127.509 323.04L128.945 315.14H120.167Z" fill="white"/>
<path d="M218.54 202.246H180.697V232.505H218.54V202.246Z" fill="#D9D9D9"/>
<path d="M215.41 232.505H183.804V362.344H215.41V232.505Z" fill="#D9D9D9"/>
<path d="M196.183 228.39C196.183 228.39 196.136 228.39 196.089 228.368L186.769 222.69L180.979 228.126L180.768 227.928L186.651 222.404C186.651 222.404 186.792 222.36 186.84 222.404L196.159 228.082L202.914 222.426C202.914 222.426 203.031 222.382 203.102 222.426L212.421 228.104L218.187 222.668L218.399 222.866L212.539 228.368C212.539 228.368 212.398 228.412 212.351 228.368L203.031 222.69L196.277 228.346C196.277 228.346 196.206 228.39 196.183 228.39Z" fill="white"/>
<path d="M203.031 228.39C203.031 228.39 202.961 228.39 202.937 228.346L196.183 222.69L186.863 228.368C186.863 228.368 186.722 228.39 186.675 228.368L180.791 222.844L181.003 222.646L186.792 228.082L196.112 222.404C196.112 222.404 196.253 222.382 196.3 222.404L203.055 228.06L212.374 222.382C212.374 222.382 212.516 222.36 212.563 222.382L218.423 227.884L218.211 228.082L212.445 222.646L203.125 228.324C203.125 228.324 203.078 228.346 203.031 228.346V228.39Z" fill="white"/>
<path d="M196.394 242.166H192.135V250.155H196.394V242.166Z" fill="black"/>
<path d="M205.549 275.726H201.29V283.714H205.549V275.726Z" fill="black"/>
<path d="M196.183 212.237H186.769V222.514H196.183V212.237Z" fill="black"/>
<path d="M212.445 212.237H203.031V222.514H212.445V212.237Z" fill="black"/>
<path d="M218.54 211.885H180.697V212.589H218.54V211.885Z" fill="white"/>
<path d="M218.54 222.162H180.697V222.867H218.54V222.162Z" fill="white"/>
<path d="M218.54 227.884H180.697V228.588H218.54V227.884Z" fill="white"/>
<path d="M218.54 205.107H180.697V205.811H218.54V205.107Z" fill="white"/>
<path d="M187.145 205.459H186.392V228.236H187.145V205.459Z" fill="white"/>
<path d="M196.559 205.459H195.806V228.236H196.559V205.459Z" fill="white"/>
<path d="M203.408 205.459H202.655V228.236H203.408V205.459Z" fill="white"/>
<path d="M212.821 205.459H212.068V228.236H212.821V205.459Z" fill="white"/>
<path d="M217.952 197.603H181.262L177.849 202.246H221.364L217.952 197.603Z" fill="black"/>
<path d="M199.619 115.738L217.952 197.603H181.262L199.619 115.738Z" fill="black"/>
<path d="M199.995 87.6359H199.242V122.098H199.995V87.6359Z" fill="black"/>
<g style="mix-blend-mode:multiply" opacity="0.3">
<path d="M215.41 232.505H205.338C209.55 275.132 206.844 318.419 197.759 362.344H215.41V232.505Z" fill="#D9D9D9"/>
</g>
<g style="mix-blend-mode:screen" opacity="0.3">
<path d="M188.84 232.505H183.804V362.344H188.84C192.041 315.558 192.676 271.589 188.84 232.505Z" fill="#D9D9D9"/>
</g>
<path d="M217.952 197.603L199.619 115.738L208.726 197.603L209.997 202.246H221.364L217.952 197.603Z" fill="black"/>
<path d="M181.262 197.603L199.619 115.738L190.487 197.603L189.24 202.246H177.849L181.262 197.603Z" fill="black"/>
<path d="M89.2895 319.101H36.4312V362.344H89.2895V319.101Z" fill="#D9D9D9"/>
<path d="M89.2895 316.24H36.4312V319.101H89.2895V316.24Z" fill="#D9D9D9"/>
<path d="M183.851 319.101H159.846V362.344H183.851V319.101Z" fill="#D9D9D9"/>
<path d="M183.851 316.24H159.846V319.123H183.851V316.24Z" fill="#D9D9D9"/>
<path d="M289.049 319.101H215.41V362.344H289.049V319.101Z" fill="#D9D9D9"/>
<path d="M289.049 316.24H215.41V319.123H289.049V316.24Z" fill="#D9D9D9"/>
<path d="M283.189 347.005C284.86 339.853 285.707 332.525 285.707 325.197V313.225H306.065V325.197C306.065 332.525 306.912 339.831 308.583 347.005L312.16 362.344H279.636L283.213 347.005H283.189Z" fill="#D9D9D9"/>
<path d="M295.898 292.649L283.166 313.247H308.606L295.898 292.649Z" fill="#D9D9D9"/>
<path d="M296.251 288.688H295.498V293.793H296.251V288.688Z" fill="#D9D9D9"/>
<path d="M299.969 323.59H302.817V318.661C302.817 317.935 302.182 317.341 301.405 317.341C300.628 317.341 299.993 317.935 299.993 318.661V323.59H299.969Z" fill="black"/>
<g style="mix-blend-mode:multiply" opacity="0.3">
<path d="M296.957 362.344C306.841 345.223 299.969 322.27 285.684 317.142V313.247H306.065V325.197C306.065 332.525 306.888 339.831 308.559 346.983L312.137 362.322H296.957V362.344Z" fill="#D9D9D9"/>
</g>
<path d="M295.898 292.649L302.793 313.247H308.606L295.898 292.649Z" fill="black"/>
<path d="M52.4346 325.461H47.7748V327.376H52.4346V325.461Z" fill="#D9D9D9"/>
<path d="M78.9108 329.29H74.251V331.205H78.9108V329.29Z" fill="#D9D9D9"/>
<path d="M85.524 332.459H80.8642V334.374H85.524V332.459Z" fill="#D9D9D9"/>
<path d="M81.2407 336.486H76.5809V338.401H81.2407V336.486Z" fill="#D9D9D9"/>
<path d="M173.142 343.969H168.483V342.054H173.142V343.969ZM169.824 345.223H165.164V347.137H169.824V345.223ZM175.472 349.228H170.813V351.143H175.472V349.228Z" fill="#D9D9D9"/>
<path d="M66.0139 336.486H61.3541V338.401H66.0139V336.486Z" fill="#D9D9D9"/>
<path d="M232.284 351.165H227.625V353.079H232.284V351.165Z" fill="#D9D9D9"/>
<path d="M275.329 346.191H270.669V348.106H275.329V346.191Z" fill="#D9D9D9"/>
<path d="M241.416 329.29H236.756V331.205H241.416V329.29Z" fill="#D9D9D9"/>
<path d="M248.029 332.459H243.369V334.374H248.029V332.459Z" fill="#D9D9D9"/>
<path d="M243.722 336.486H239.062V338.401H243.722V336.486Z" fill="#D9D9D9"/>
<path d="M228.519 329.29H223.859V331.205H228.519V329.29Z" fill="#D9D9D9"/>
<path d="M165.941 307.328H145.137C143.654 298.041 132.099 289.326 119.272 284.639H153.774L165.917 307.328H165.941Z" fill="black"/>
<g style="mix-blend-mode:multiply" opacity="0.3">
<path d="M54.035 362.344H36.4077V316.24H44.8565C44.7859 317.187 44.7624 318.133 44.7624 319.101C44.6683 335.122 51.6344 355.72 54.035 362.344Z" fill="#D9D9D9"/>
</g>
<path d="M30.1711 292.649L42.9032 313.247H17.4625L30.1711 292.649Z" fill="#D9D9D9"/>
<path d="M46.4569 362.344H13.9088L17.486 347.005C19.157 339.853 19.9807 332.547 19.9807 325.219V313.269H40.3615V325.219C40.3615 332.547 41.1852 339.853 42.8561 347.005L46.4333 362.344H46.4569Z" fill="#D9D9D9"/>
<path d="M30.5476 288.688H29.7945V294.234H30.5476V288.688Z" fill="#D9D9D9"/>
<path d="M26.0996 323.59H23.252V318.661C23.252 317.935 23.8874 317.341 24.664 317.341C25.4407 317.341 26.0761 317.935 26.0761 318.661V323.59H26.0996Z" fill="black"/>
<g style="mix-blend-mode:multiply" opacity="0.3">
<path d="M31.2537 362.344C41.1381 345.223 34.2661 322.27 19.9807 317.142V313.247H40.3615V325.197C40.3615 332.525 41.1852 339.831 42.8561 346.983L46.4333 362.322H31.2537V362.344Z" fill="#D9D9D9"/>
</g>
<path d="M30.1711 292.649L37.0902 313.247H42.9032L30.1711 292.649Z" fill="black"/>
<g style="mix-blend-mode:multiply" opacity="0.3">
<path d="M167.259 316.24H159.846V362.344H167.259V316.24Z" fill="#D9D9D9"/>
</g>
<g style="mix-blend-mode:multiply" opacity="0.3">
<path d="M221.906 316.24H215.41V362.344H221.906V316.24Z" fill="#D9D9D9"/>
</g>
<path d="M333.082 364.061H0.917841C0.423619 364.061 0 363.686 0 363.202C0 362.718 0.400085 362.344 0.917841 362.344H333.082C333.576 362.344 334 362.718 334 363.202C334 363.686 333.6 364.061 333.082 364.061Z" fill="black"/>
</svg>
