<svg width="164" height="43" viewBox="0 0 164 43" fill="none" xmlns="http://www.w3.org/2000/svg">
<mask id="mask0_36_39" style="mask-type:luminance" maskUnits="userSpaceOnUse" x="-1" y="-1" width="166" height="57">
<path d="M-0.0167236 55.0186H164.407V-0.0740433H-0.0167236V55.0186Z" fill="white"/>
</mask>
<g mask="url(#mask0_36_39)">
<path clip-rule="evenodd" d="M131.208 35.8627C130.287 35.6033 129.126 34.9262 129.213 33.8679H129.057C129.062 30.4384 129.11 26.5681 129.11 22.6956V20.3335C129.126 20.1223 129.144 19.9134 129.16 19.7045C129.108 19.2959 129.071 18.8712 129.11 18.5499C129.135 18.3387 129.199 17.6339 129.16 17.448C128.931 16.3048 129.358 15.1685 129.11 14.2985C128.991 13.8899 129.112 13.1301 129.266 12.935C129.491 12.6618 129.787 12.8248 130.212 12.7261C130.879 12.5677 131.554 12.4805 131.889 11.9893H131.942V11.8859C131.077 11.7229 130.023 12.29 129.057 12.1477C128.814 12.1132 128.711 12.3336 128.479 12.2532L128.373 12.0948H127.639L126.904 11.9388H126.17C125.562 11.7918 124.322 11.6082 123.599 11.8332C123.205 11.9571 123.025 12.3083 122.706 12.4621V12.6205C125.38 11.5623 125.637 14.1562 125.435 16.6607C125.529 16.8489 125.529 17.7418 125.488 17.9714C125.447 18.2101 125.509 18.5522 125.541 18.706C125.605 19.025 125.472 19.4451 125.541 19.755C125.683 20.3932 125.431 21.2494 125.488 21.8026L125.699 22.0115C125.8 22.3053 125.36 22.5671 125.75 22.9045L125.488 23.2718C125.525 23.5197 125.702 23.6046 125.594 23.7974C125.591 24.082 125.635 24.2037 125.699 24.3736C125.887 24.3231 126.108 24.2565 126.328 24.2152L126.381 24.268C126.287 24.5205 125.759 24.8166 125.541 24.9498V27.2591C125.543 27.5736 125.764 27.7159 125.699 27.9409C125.635 28.1589 125.502 28.1589 125.488 28.4137C125.472 28.7305 125.621 29.1506 125.541 29.5156L125.488 29.8301L125.594 30.1974L125.435 30.8286L125.541 31.6114C125.282 33.0737 125.614 33.737 124.859 34.7608C124.182 35.6767 123.097 36.0945 121.972 35.8099C121.664 35.7318 121.573 35.8282 121.396 35.6515H121.343C121.387 36.1358 121.926 36.4848 122.339 36.5973H122.759C123.042 36.6799 123.794 36.8245 124.228 36.7029C124.588 36.6019 125.045 36.5766 125.435 36.4389C125.821 36.3035 126.383 35.9844 126.695 35.9155C127.453 35.7457 128.575 36.1359 129.16 36.2828H129.948C131.026 36.5537 132.298 36.2346 133.044 35.8627L133.097 35.7043H133.044C133.044 35.7043 131.658 35.989 131.208 35.8627ZM120.714 37.3846L120.556 37.5935C119.631 38.0733 118.607 38.4452 117.671 38.8538C116.032 39.5654 114.134 39.8707 112.319 40.3757C111.827 40.5112 111.228 40.502 110.691 40.6374H110.166C109.711 40.7752 109.032 40.7889 108.541 40.8991H107.228C106.415 41.085 104.937 41.0827 104.132 40.8991H102.977C101.745 40.6259 100.306 40.6053 99.1996 40.2701C98.7865 40.1439 98.4881 40.2425 98.0979 40.114C97.5425 39.9258 96.8494 39.6802 96.3146 39.4827C96.1035 39.4667 95.8946 39.4484 95.6834 39.43L95.2657 39.0099C94.6415 38.7528 93.9759 38.7344 93.3768 38.4865C91.0886 37.5385 88.7888 36.3517 87.3934 34.4992C86.9963 33.9689 86.473 33.4662 86.0829 32.9244C85.1281 31.6022 84.3983 29.915 83.7212 28.3609C83.4251 27.686 82.9959 26.1687 83.6156 25.5283V25.4226C83.1841 25.464 82.5208 25.6706 82.0411 25.581C80.8178 25.3515 79.7575 24.8143 78.7361 24.3736C78.3896 24.2244 77.9971 24.1693 77.6873 24.0063L77.6345 23.9535C77.9053 23.786 78.6673 23.8755 78.9977 23.7446C79.9755 23.3567 80.7443 22.8058 81.5178 22.2227C81.7335 22.0597 81.8277 21.8164 81.9883 21.5937L82.4611 21.1209C82.9684 20.3955 83.3769 19.7068 83.8795 18.9699L85.1372 18.2882V18.1826H84.6139L84.0356 17.8153C83.1543 17.1565 82.9064 15.6116 81.7795 15.1915L81.8323 15.0331C81.6969 14.3559 79.9571 13.362 79.3145 13.0406C78.7774 12.7721 78.1692 12.4117 77.5816 12.2005C77.1708 12.0536 76.7944 12.1591 76.3216 12.0443L75.7456 11.8332C75.3898 11.7299 75.073 12.0398 74.7494 11.9388L74.4855 11.7275C74.2238 11.6426 73.1865 11.7873 73.0166 11.8332C72.7665 11.8998 72.7021 11.7138 72.5438 11.7275C71.9264 11.7826 70.8569 11.7712 70.2877 11.9388H68.9772C68.4172 12.0696 67.8823 11.9824 67.3499 12.0948H66.5099C65.1925 12.492 63.221 12.29 62.1032 11.9388C61.6075 11.7827 61.0291 11.7138 60.7376 11.3602H60.5816V11.4659C61.2081 12.0512 61.8508 12.4805 62.8377 12.7261C63.7833 12.9602 64.3617 12.7146 65.0938 13.1967L65.6698 13.564C66.239 14.3353 66.0875 14.9459 66.301 15.9261C66.3584 16.1969 66.2207 16.4587 66.2483 16.6607C66.301 17.0302 66.363 17.8061 66.301 17.9714C66.2849 18.4947 66.5145 18.442 66.9299 18.4971L66.3538 18.6026C66.301 18.9998 66.3561 19.2041 66.4571 19.4933C66.4686 19.5208 66.3239 20.2692 66.301 20.5447C66.2298 21.3412 66.5053 22.0115 66.3538 22.9045C66.2827 23.3154 66.3538 23.8778 66.3538 24.4792C66.3699 26.0172 66.3883 27.5575 66.4066 29.0955C66.4066 29.791 66.425 30.7414 66.3538 31.1959C66.2184 32.0361 66.4158 33.4777 65.9866 33.9735V34.5497C65.7938 34.9629 64.2607 36.0004 63.5193 35.4954H63.4137C63.6019 35.9912 65.1741 36.1313 65.9866 35.9683C66.6545 35.8328 67.428 36.0555 68.2955 35.8627C69.3903 35.6171 71.0152 35.6447 72.0205 35.9155C72.4313 36.0257 72.996 35.8696 73.3311 36.0716H73.4366C73.2576 35.5804 72.5874 35.5092 72.1238 35.2865C71.5776 35.0202 70.8454 34.6071 70.4988 34.1319C70.2211 33.7508 70.1271 33.2229 69.7116 32.9773L69.9732 32.6627L69.9205 30.7758C69.8562 30.4797 69.7529 29.2401 69.8677 28.8866C69.9847 28.5262 69.6267 27.6723 69.7116 27.1535C69.8264 26.4533 69.7644 25.5742 69.7644 24.4792V23.3245C69.9067 22.5142 69.9526 20.2853 69.7644 19.2845C69.7391 19.149 69.9228 18.5063 69.8677 18.2354C69.6405 17.1083 70.0352 15.6437 69.8149 14.5625C69.7529 14.2458 69.9388 14.1448 69.7644 13.9313L69.8149 13.5112C70.1683 13.277 70.6825 13.4952 71.0749 13.4079C71.9609 13.2105 73.2255 13.3161 74.015 13.4607C74.2354 13.4997 74.5084 13.3826 74.7999 13.4607C75.4403 13.6282 75.9291 13.7178 76.5328 13.984C76.8128 14.108 77.1042 14.3835 77.3728 14.5097L77.6873 14.5625C77.9489 14.8242 78.2128 15.0859 78.4745 15.3499L78.58 15.7149L78.9473 16.0316H79.2617L79.2089 16.555L79.365 16.8167C79.4453 17.0991 79.3328 17.425 79.365 17.6041C79.4453 18.0448 79.5876 19.0319 79.4178 19.5461C78.9909 20.8454 77.9879 22.0988 76.9 22.7461C76.3813 23.056 75.64 23.2121 75.0639 23.4302C74.8 23.4462 74.5383 23.4646 74.2766 23.4829C73.9347 23.6115 73.5583 23.6413 73.1222 23.7446C72.6907 23.8457 72.1537 23.6987 71.8094 23.9007H71.5477V23.9535C71.7107 24.1051 72.0596 24.4792 72.335 24.4792L72.5438 24.3736C72.9248 24.2841 74.3547 24.4402 74.6967 24.532C75.9865 24.874 76.7967 25.4823 77.5816 26.3156C77.942 26.699 78.1463 27.2132 78.4745 27.6264L78.9473 27.9409L79.0506 28.4137C79.5784 29.1621 80.2303 29.9012 80.7306 30.6702L80.7834 31.0375L81.2539 31.4553L81.5706 31.9282L82.1467 32.4516C82.7916 33.3078 83.549 34.0125 84.2972 34.7608C86.1517 36.6133 87.919 38.0021 90.3334 39.3267C91.0059 39.6939 91.7931 40.1875 92.5368 40.4813C93.4617 40.844 94.4165 41.1745 95.3162 41.5303C95.8786 41.7507 96.4087 41.6979 96.9963 41.8976C98.8163 42.5151 101.727 42.9536 103.817 42.8939L104.026 42.9995H107.019C107.71 42.7883 108.766 42.8939 109.484 42.7355H110.166C111.118 42.4439 112.135 42.4463 113.106 42.1594C113.333 42.141 113.56 42.1249 113.787 42.1065C114.23 41.9619 115.594 41.6245 115.885 41.372H115.938L115.729 40.9519H115.676L115.729 40.8463L116.096 41.1103C117.003 41.1241 117.258 40.844 117.933 40.5846C119.197 40.1003 120.308 39.5952 121.502 39.0099C122.073 38.7298 122.582 38.2638 123.285 38.1192V38.0136C122.672 37.8093 121.947 37.947 121.396 37.6991C121.242 37.6302 120.999 37.2744 120.714 37.3846ZM90.2279 11.3075C90.6915 11.6426 91.1023 12.43 91.2768 13.0406C91.5889 14.131 91.5131 15.3476 91.6967 16.2934C91.7151 16.7662 91.7312 17.2368 91.7496 17.7097L92.0112 17.9714C92.0939 18.2606 91.7634 18.5246 91.8529 18.9699C91.9309 19.3441 91.784 20.0397 91.8529 20.4919L91.9584 20.648L91.9056 21.068C91.9171 21.4032 92.0181 21.9564 91.9584 22.2755C91.8965 22.6129 91.8988 23.0399 91.9584 23.3245V25.6339C91.9584 26.7128 91.7978 27.6218 91.8529 28.6226L92.064 29.7268L91.8529 29.8828V30.6702C91.8529 31.5035 91.7587 32.036 91.7496 32.8716C91.745 33.1517 91.6073 33.535 91.7496 33.7646C91.6394 34.4073 90.8338 35.0547 90.1223 34.7608L90.0695 34.8136C90.1567 35.0501 90.3082 35.0455 90.4895 35.1809C90.6846 35.3256 90.882 35.6033 91.1184 35.7043C91.6256 35.9201 92.7135 35.5574 93.2712 35.7043C94.2903 35.9729 95.8602 36.2392 96.9963 36.0188C97.2212 35.9775 97.3084 36.191 97.5723 36.1244C98.013 36.0165 98.215 35.6332 98.5179 35.3898V35.2865C98.0612 35.3439 97.5769 35.4358 97.2074 35.5482C96.847 35.6538 96.4982 35.4265 96.3146 35.4954C95.9497 35.4013 95.6375 35.1075 95.369 34.9192C95.0362 34.6805 94.6942 34.5336 94.4785 34.1824L94.3729 33.7646C94.2765 33.558 94.0929 33.2183 94.0057 32.9773V32.5044C93.868 31.9144 93.8427 31.0605 93.744 30.4613C93.643 29.8553 93.7991 28.742 93.6913 28.0464L93.744 27.4175C93.7256 26.9263 93.7073 26.4373 93.6913 25.9483C93.6913 25.7119 93.7464 25.4824 93.6913 25.3699C93.6936 24.8993 93.5811 24.812 93.4801 24.532C93.1565 24.5343 93.0303 24.5963 92.7984 24.6353V24.4792L92.904 24.3736C93.1243 24.3621 93.301 24.2978 93.4273 24.3736L93.6913 24.268C93.689 23.8686 93.7601 23.4209 93.7968 23.1661C93.8381 22.8723 93.7234 22.4454 93.744 22.1699C93.8083 21.215 93.7624 20.0695 93.9001 19.2845C94.0011 18.7129 93.689 17.6477 93.9001 17.2896V17.2369C94.4877 17.448 95.0431 18.4328 95.4746 18.8643C96.6084 19.996 97.8455 21.052 98.8324 22.3283L99.2524 22.59L99.3051 22.7989L99.778 23.1661L100.092 23.5863C100.51 23.903 100.88 24.268 101.247 24.6353C101.483 24.874 101.642 25.1794 101.929 25.3699C101.876 25.6982 101.355 26.6668 101.141 26.839V26.9446C101.419 26.901 102.466 26.4373 102.61 26.2628C103.354 26.2835 104.256 27.6448 104.71 28.0993C104.935 28.3242 105.243 28.4803 105.339 28.8338C105.587 28.8108 105.702 28.7236 105.812 28.5721H106.074L105.812 28.8866H105.654C105.729 29.1621 106.051 29.2837 106.232 29.4628C106.686 29.9357 107.141 30.4086 107.595 30.8791L107.91 30.9319L108.121 31.4048L108.855 32.0843C110.262 33.2389 111.568 34.412 113.106 35.4427C113.37 35.6217 113.572 35.9821 113.84 36.1772C114.421 36.5996 116.161 37.7358 116.987 37.2262L117.04 37.123C116.305 36.7741 114.935 35.2314 115.362 34.1824L115.098 34.0263C115.149 33.7531 115.33 33.6476 115.362 33.3445C115.376 33.1953 115.309 32.8877 115.309 32.6627V30.1974L115.256 29.674C115.323 29.1483 115.445 28.0877 115.309 27.4703C115.259 27.2407 115.126 26.8298 115.204 26.5245C115.408 25.7372 115.328 24.8442 115.362 23.7974C115.412 22.1584 115.279 20.221 115.518 18.4971L115.465 16.3462L115.309 16.1878L115.518 15.9789V15.3499C115.571 14.8242 115.624 14.2985 115.676 13.7751C115.989 12.7605 116.87 12.4507 117.356 11.622H117.304L116.831 11.7275C116.482 11.8469 115.789 12.1614 115.256 12.0443C114.898 11.964 114.481 12.1476 114.049 12.0443C113.588 11.9295 113.248 11.9365 112.791 11.8332H111.635C111.139 11.7069 110.193 11.6174 109.642 11.7804C109.225 11.9043 108.952 12.1866 108.644 12.4093V12.5149C109.034 12.4644 109.349 12.2946 109.642 12.2005C110.345 11.9732 111.777 12.4988 112.107 12.7261C112.771 13.1783 113.101 14.1952 113.368 15.0331L113.262 15.2971C113.28 15.8917 113.296 16.4862 113.315 17.0807C113.39 17.3952 113.418 17.7028 113.42 18.077L113.368 18.4443C113.487 19.1605 113.413 19.9984 113.473 20.648L113.42 21.2264C113.494 21.7383 113.542 22.6474 113.526 23.1661C113.503 23.7699 113.489 24.8373 113.629 25.4226L113.526 25.7371C113.446 26.0355 113.439 26.9193 113.526 27.3119C113.602 27.6585 113.53 28.2553 113.473 28.5193V30.0412C113.427 30.3167 113.324 31.4713 113.42 31.8226L113.368 31.8754C112.895 31.8157 111.692 30.4154 111.373 30.0412C111.192 29.8277 110.891 29.6648 110.691 29.4628C110.143 28.9119 109.626 28.3219 109.064 27.7847L108.541 27.4703L108.068 26.7862L107.701 26.6301L107.648 26.3156L107.281 25.8955C106.923 25.5512 105.672 24.4333 105.548 24.0063L106.232 21.961V21.5937C105.876 21.7269 105.667 22.3558 105.445 22.6428L105.025 23.0101C104.143 22.9963 104.01 22.3237 103.503 21.961L103.03 21.7498V21.4353L102.716 21.1209L102.401 21.068C102.289 20.8385 102.156 20.5929 102.034 20.3863L101.614 20.2807C101.447 20.1407 101.566 20.081 101.456 19.8606L101.141 19.5989C100.914 19.3372 100.687 19.0732 100.46 18.8115L100.092 18.5499L99.9341 18.2354C99.7344 18.0334 99.5072 17.9714 99.2524 17.8153C99.0413 17.6844 99.0114 17.3493 98.8324 17.184L98.5179 17.0807L97.9923 16.3989C97.5264 15.9307 96.9665 15.522 96.5235 15.0331C95.7707 14.2021 94.7493 12.9947 93.8473 12.3589C92.9637 11.7345 92.0089 11.1904 90.8567 10.8369C90.3243 10.6739 89.8079 10.8782 89.3879 10.6257H89.3351C89.4498 11.0366 89.9203 11.0871 90.2279 11.3075ZM153.98 26.2628C152.816 26.5084 151.676 26.8895 150.675 27.3119C150.299 27.4725 149.83 27.4129 149.573 27.6792C148.779 27.6332 147.462 26.8092 146.739 26.5245C146.149 26.2927 144.884 26.2031 144.43 25.8955H144.327C144.457 25.4318 144.834 25.0324 145.008 24.5825C145.318 23.7745 145.646 23.1042 146.004 22.3788C146.174 22.0391 146.167 21.6351 146.372 21.3298L146.792 20.9625V20.5447L147.001 20.0718C147.159 19.7481 147.457 19.4291 147.632 19.1261C147.774 18.8782 147.779 18.5935 147.893 18.3387C148.293 17.4687 148.823 16.6262 149.204 15.7149C149.693 15.9605 150.186 17.7533 150.464 18.3387C151.377 20.2531 152.208 22.287 153.14 24.1647C153.399 24.6858 153.62 25.7279 154.033 26.0539L153.98 26.2628ZM162.637 35.0754C162.341 34.9445 162.307 34.7173 161.85 34.7081C161.63 34.249 161.253 34.0056 161.012 33.6062C160.712 33.1127 160.581 32.6214 160.328 32.0843C159.922 31.2235 159.39 30.3167 158.965 29.4628C158.738 29.0106 158.653 28.6088 158.442 28.152L158.075 27.5208C157.921 27.0984 157.868 26.7655 157.602 26.4717L157.705 26.1572C158.293 26.1343 158.979 26.0287 159.385 26.3156H159.594V26.2101L159.174 25.8955L158.598 25.7371H157.34C157.046 25.5994 156.927 24.92 156.762 24.6353L156.5 24.1119L156.027 23.7446L156.08 23.2718C155.997 22.994 155.736 22.6887 155.607 22.4316L155.502 22.0643C155.079 21.3137 154.719 20.4528 154.294 19.7045C154.161 19.4681 154.157 19.1146 153.98 18.9172L153.613 18.6531C153.505 18.4213 153.695 18.2308 153.613 18.077L153.246 17.6569C152.986 17.2414 152.901 16.7938 152.667 16.3462C152.564 16.1488 152.332 15.9238 152.247 15.7149C152.146 15.4647 152.238 15.2512 152.144 15.0331L151.829 14.6131C151.421 13.8716 151.09 13.0865 150.726 12.3589C150.473 11.8516 150.287 11.0229 149.938 10.6257L149.888 10.5729C148.83 13.0957 147.535 15.4601 146.424 17.9714C146.181 18.5223 145.763 19.1099 145.532 19.6517C144.646 21.7222 143.698 23.7745 142.594 25.6339C142.139 25.6293 141.598 25.5374 141.23 25.6339C140.905 25.7188 140.542 25.9552 140.232 26.0539V26.1572C140.53 26.1228 140.827 26.0883 141.125 26.0539C141.485 26.1228 141.96 26.2077 142.279 26.2628C142.229 26.7678 141.94 27.0984 141.754 27.4703C141.437 28.1061 141.194 28.7237 140.863 29.3067C140.659 29.6625 140.588 30.1537 140.285 30.4085L140.338 30.6702C140.257 31.0605 139.725 31.6068 139.55 31.981C139.436 32.2266 139.424 32.4286 139.289 32.6627L139.025 32.9773L138.974 33.5006L138.449 33.8679C137.682 34.793 137.533 35.6171 135.878 35.5482C136.069 36.0739 136.996 36.0808 137.609 35.9155C138.323 35.7227 139.344 35.6561 140.232 35.6515C140.473 35.6515 140.99 35.5184 141.072 35.5482L141.387 35.8099C141.685 35.881 141.981 35.9499 142.279 36.0188C143.257 36.2415 144.586 36.0785 144.956 35.4954H145.008V35.4427C144.666 35.4725 144.203 35.6791 143.801 35.6011C142.75 35.3922 141.671 35.1397 141.334 34.2352C141.091 33.5787 141.428 32.5939 141.598 32.0315C141.632 31.7698 141.667 31.5081 141.701 31.2487C142.413 29.7727 143.161 28.1108 144.01 26.7357C144.912 26.9194 145.681 27.4266 146.372 27.8375L146.897 27.9409L147.106 28.3082C147.315 28.4597 147.526 28.5285 147.735 28.6754L148.102 29.0427C148.49 29.2768 149.215 29.6005 149.468 29.9357C149.991 29.8943 150.909 29.0817 151.304 28.781L151.513 28.4137L151.88 28.4666L152.091 28.2577C152.378 28.074 152.759 27.9202 153.034 27.7847C153.441 27.5827 153.927 27.5461 154.242 27.2591C154.641 27.3647 154.985 28.6341 155.187 29.0427C155.281 29.2355 155.543 29.5156 155.607 29.7268L155.554 29.9357L155.766 30.2501L156.236 30.7758V31.2487C156.44 31.8455 156.856 32.4906 157.129 33.0828C157.283 33.4134 157.632 34.2581 157.34 34.6553C157.258 35.5987 155.841 35.9729 154.926 36.0716L154.873 36.1244V36.23C155.548 36.0969 156.44 36.292 157.129 36.1244C157.393 36.0602 157.531 35.9109 157.655 35.8627C157.96 35.7433 157.999 36.0716 158.283 36.0188C159.041 35.8856 160.358 35.7066 161.327 35.9155C162.002 36.0601 162.972 35.7939 163.216 36.1244C163.698 36.0969 163.711 35.8008 164.001 35.6011V35.3898C163.477 35.3669 163.048 35.2567 162.637 35.0754ZM51.1875 26.4212C50.5058 26.6553 49.7049 26.9561 49.037 27.2063C48.6583 27.3509 48.2153 27.3394 47.9353 27.5736C47.4625 27.5162 47.0976 27.2155 46.7281 27.0502C46.0097 26.7265 45.2408 26.4924 44.5247 26.2101C44.0657 26.0287 43.1155 26.0241 42.7942 25.7371L43.3175 24.7409L43.2647 24.5825L42.9503 24.532V24.4264C43.9418 24.0545 44.2998 22.4109 44.7359 21.4353C44.846 21.1851 45.1604 21.0382 45.2591 20.8064V20.3863L45.5736 19.9134C45.872 19.3487 46.0946 18.7817 46.4136 18.2882C46.5582 18.0609 46.5513 17.8015 46.6752 17.5513C47.008 16.8925 47.3684 16.1648 47.7264 15.506C48.0638 15.7929 48.415 17.2185 48.6698 17.7097C48.9176 18.1895 49.2435 18.7817 49.457 19.2845L49.5625 19.8078C50.1065 20.9097 50.74 22.1332 51.2403 23.2718C51.5341 23.9352 51.8577 24.594 52.1331 25.2137C52.2525 25.4823 52.2708 25.7463 52.4476 25.9483C52.2892 26.3294 51.6006 26.2789 51.1875 26.4212ZM61.2104 35.0754C60.5058 34.7747 59.8655 34.1732 59.4799 33.5534C59.2963 33.2596 59.2871 32.9267 59.1126 32.61C58.4057 31.3405 57.6851 29.7773 57.0654 28.5721C56.7234 27.9041 56.5214 26.862 56.0693 26.3156L56.122 26.1572C56.4296 25.9116 57.5565 25.9346 57.8526 26.1572H57.9582V26.0539C57.5634 25.7991 57.2215 25.5788 56.6454 25.4755C56.4182 25.4341 55.9706 25.6729 55.7021 25.5283C55.4427 25.3906 55.4243 24.858 55.282 24.5825L55.0709 24.3736L54.9148 23.9535L54.4948 23.639L54.5476 23.1661L54.2836 22.8517C54.0633 22.3811 53.9692 21.9955 53.7604 21.541C53.5974 21.1852 53.3013 20.7742 53.1292 20.4391C52.8607 19.9157 52.7712 19.3487 52.4476 18.8643L52.0803 18.6026C51.9748 18.4305 52.1583 18.1389 52.0275 17.9209C51.6144 17.2184 51.0774 16.4058 50.717 15.6644V15.1915L50.453 14.877C50.2327 14.4592 50.0032 13.968 49.8242 13.564L49.7187 13.0934L49.3514 12.6205C49.0071 11.941 48.8556 11.1491 48.4081 10.5729L48.3025 10.5201C46.9232 13.4859 45.4887 16.2934 44.1575 19.2845C44.0267 19.576 43.7627 19.8928 43.6319 20.1751C43.3381 20.8156 43.1637 21.3848 42.847 22.0115C42.6427 22.4155 42.2801 22.8586 42.2158 23.3774L42.6886 23.5334L42.163 23.5863C41.9243 23.6827 41.1807 25.2207 41.0086 25.5283C40.2764 25.4709 39.2482 25.3974 38.8052 25.7899L38.6492 25.8428V25.9483C39.5535 25.9483 39.9643 26.0103 40.5886 26.3156C40.3292 27.2912 39.7531 28.1979 39.3308 29.0427C39.122 29.4605 39.0806 30.0114 38.7524 30.303L38.8052 30.6174L38.5436 30.9319C38.3416 31.2326 38.321 31.5586 38.1236 31.8754L37.7035 32.3988L37.3363 33.0828L37.2836 33.5534L36.7075 34.0791C36.3609 34.5382 35.9776 35.1236 35.5002 35.4427C35.2547 35.6079 34.814 35.539 34.5547 35.7043H34.4513L34.5042 35.7571C34.9379 36.0877 36.6065 35.8352 37.178 35.7043C37.7701 35.5689 38.3508 35.5941 39.0164 35.5482C39.2 35.5345 39.324 35.36 39.5397 35.4427L40.0125 35.7571C40.7423 36.0142 41.9633 35.9178 42.6886 35.8627L42.7414 35.7043V35.6515L42.7942 35.8099C43.0031 35.78 43.0994 35.7204 43.2119 35.6011L43.2647 35.4427C42.9617 35.445 42.3857 35.5666 42.2686 35.5482C41.1876 35.3784 39.9941 35.0248 39.6981 34.0791C39.4272 33.6819 39.8403 32.02 40.0652 31.7698C40.056 31.4989 40.0194 31.4553 39.8541 31.352C39.9413 31.0077 40.3315 31.0444 40.4325 30.7231L40.3797 30.5119L40.6941 30.1446C41.1348 29.2998 41.4332 28.4941 41.8486 27.6264C41.9978 27.3165 42.2778 27.0066 42.3742 26.6301C43.2096 26.6645 44.1919 27.3256 44.7864 27.6792L45.3119 27.7847L45.6264 28.2577C45.8605 28.4643 46.2185 28.6616 46.4664 28.8338C46.9208 29.1529 47.5887 29.4077 47.9353 29.8301C48.3393 29.7865 49.8173 28.6823 49.877 28.3082C50.678 28.3311 51.2839 27.787 51.9243 27.4703C52.1767 27.344 52.4636 27.3325 52.6587 27.1535C53.1774 27.344 53.7283 29.1598 54.022 29.7268C54.1643 29.9976 54.6188 30.3971 54.7037 30.6174L54.6532 31.0903C54.9034 31.9121 55.5988 32.8211 55.8581 33.7118C56.2827 35.1625 54.5821 35.8466 53.3404 35.8099V35.9155C53.944 36.0716 54.5063 36.1221 55.2293 35.9683H55.8581L56.1725 35.7571L56.5926 35.9155C57.7195 35.7227 59.4019 35.6079 60.4232 35.8627C60.9763 36.0004 61.2609 35.6377 61.5248 36.0188C61.9356 35.9752 62.0803 35.6171 62.3121 35.3898C62.2065 35.2315 61.4376 35.1718 61.2104 35.0754ZM33.0857 38.3809L33.1913 38.3281C33.0949 38.0481 32.7736 37.6876 32.6657 37.5407L32.4569 37.4903C32.4821 37.2125 32.4569 37.2193 32.4569 37.0173L32.1952 36.9646C32.3444 36.6317 31.9565 35.9982 31.828 35.6011C31.7178 35.2659 31.8601 34.9468 31.7224 34.6024L31.5641 34.4992C31.4814 34.2398 31.8051 34.102 31.7224 33.7118C31.6605 33.4248 31.7775 33.0002 31.7224 32.7132C31.6421 32.2977 31.5893 31.6389 31.6696 31.2487C31.7568 30.8286 31.4699 30.4659 31.5113 30.1446C31.6168 29.3342 31.5181 28.2852 31.6168 27.4175C31.6444 27.1742 31.4034 27.1053 31.4584 26.8918L31.6168 26.7357C31.5985 26.4718 31.5824 26.21 31.5641 25.9483C31.711 25.2597 31.7178 23.9581 31.6168 23.2718C31.4424 22.0827 31.7385 21.2264 31.5641 20.2279C31.5182 19.9685 31.665 19.9708 31.6696 19.755C31.6903 18.9171 31.789 17.1106 31.6696 16.2934C31.5985 15.809 31.6375 15.0629 31.7224 14.6658C31.7041 14.1424 31.688 13.6168 31.6696 13.0934C31.7316 12.7192 31.7982 12.0329 31.7224 11.622C31.7385 11.3258 31.7568 11.0274 31.7752 10.7313L31.5641 10.4696C31.5434 10.4558 31.8647 9.91639 31.7224 9.68225C31.6949 9.38153 31.5572 9.31957 31.3552 9.20938C31.4218 8.90638 31.6926 8.87881 31.7752 8.63319L31.7224 8.42198C31.7339 8.1557 31.7224 7.28112 31.828 6.90006C31.9864 6.3124 32.1493 5.63293 32.4569 5.16924C32.6818 4.8295 33.2556 4.47829 33.6641 4.32908L34.0841 4.27626L34.1346 3.96179V3.85853C33.0605 3.86771 32.1172 4.46685 31.0408 4.22582C30.49 4.10186 29.7073 4.24873 29.2551 4.12018C28.4472 3.88833 27.1138 3.87915 26.3174 3.96179L26.2645 4.01461V4.48747C26.8865 4.54716 27.3525 4.34977 27.8918 4.54029C29.5994 5.14402 29.464 7.20537 29.8335 9.15656C29.8955 9.49171 29.6637 10.0541 29.8335 10.4696L30.0424 10.7313C29.8817 11.3809 29.9368 11.9089 29.9368 12.6733C29.9207 12.8822 29.9023 13.0934 29.8863 13.3023C30.0653 14.1906 29.9391 15.7677 29.9368 17.028V24.4792C29.9368 26.5062 30.1549 29.55 29.8335 31.0375C29.7303 31.5104 30.0056 32.2954 29.7807 32.6627L29.7279 32.7132C29.2161 31.9167 28.2957 31.0375 27.6302 30.3558L27.4718 30.0412C26.9806 29.387 26.3472 28.8407 25.8446 28.152L25.3213 27.6792C24.798 26.9859 24.2173 26.3799 23.694 25.6844L23.2212 25.2666C22.6818 24.5504 22.0828 23.9329 21.5435 23.219L21.0707 22.7989C20.7632 22.3857 20.4349 21.8371 20.0218 21.541C20.0517 21.1966 20.6438 20.2394 20.8595 20.0718V19.9662C20.4625 20.0282 19.7602 20.2463 19.4962 20.4919C18.6585 20.4896 17.7588 18.9952 17.3456 18.4443C16.9027 17.8566 16.2669 17.3585 15.824 16.7662C14.6007 15.1341 13.258 13.5846 11.8878 12.0948C11.5642 12.166 11.2956 12.6596 11.1005 12.8822H11.0478C11.0753 12.5379 11.1832 11.964 11.3622 11.7275C11.0662 10.8874 10.2766 10.2102 9.73725 9.57668C9.39986 9.18185 9.14967 8.73649 8.84442 8.31641C8.37392 7.67136 7.69459 7.12276 7.2172 6.48001C6.6526 5.72249 5.96632 4.78362 5.06663 4.3819C4.80957 4.26712 4.55713 4.40252 4.27942 4.27626C4.08892 4.19133 3.88462 3.86769 3.65051 3.80571C3.43247 3.74832 3.01252 3.85394 2.75776 3.70014H2.54889C2.72103 4.05824 3.26954 4.2166 3.54496 4.48747C4.10497 5.0407 4.53649 5.85559 4.80502 6.69116C4.82108 6.95285 4.83945 7.21687 4.85552 7.47856C5.01618 8.08458 5.06663 8.89945 5.06663 9.62943C5.06663 10.1253 5.00695 10.9907 5.22499 11.2042L4.96107 11.622C5.00927 11.8469 4.90372 12.4116 5.01388 12.6733L5.17225 12.7766L5.22499 12.935L4.96107 13.2495C5.15845 13.6857 5.12173 14.6979 5.11944 15.506L5.06663 16.0822C5.3145 17.1817 5.04138 18.7541 5.06663 19.8606C5.08958 20.8913 5.27321 22.8677 5.11944 23.7974C5.00927 24.4585 5.37879 25.2826 5.11944 25.7371L5.06663 26.2628L5.3283 26.5245C5.28699 26.7403 5.16534 26.715 5.11944 26.839C5.0896 26.9193 5.17225 28.3242 5.17225 28.7282C5.17225 28.9669 5.29385 29.6786 5.27549 29.7268L5.06663 29.8828L5.11944 30.4085C5.09878 30.7942 5.07126 31.5012 5.01388 31.8226C4.85781 32.7017 5.07809 33.8243 4.69939 34.4464C4.39873 34.9399 3.64367 35.0432 3.07217 35.2865C2.54429 35.5092 1.25442 36.1565 0.974412 36.5973L0.9216 36.9646C0.747169 37.3112 0.373099 37.3548 0.343262 37.908L0.659992 37.8575V37.6991C1.00885 37.6142 1.20621 37.1551 1.4977 36.9646C2.08066 36.5858 3.75842 36.1818 4.07056 35.7043L4.38498 35.9683C4.77974 36.1496 5.1171 35.881 5.53941 35.9683C5.96172 36.0555 6.96701 36.0785 7.48112 36.1772C7.7749 36.2346 8.2959 36.0831 8.53 36.1244C9.34248 36.269 10.7907 36.2828 11.4678 36.0188C11.8373 35.8765 12.1036 35.5436 12.4134 35.337V35.1809C11.0845 35.8053 8.78937 35.484 8.05722 34.4992C7.78639 34.1342 7.62342 33.5511 7.48112 33.0828C7.25849 32.3574 7.55915 30.4177 7.11389 30.094L7.32275 29.8828C7.30439 29.6211 7.28837 29.3595 7.27001 29.0955C7.40084 28.3908 7.20111 27.3509 7.32275 26.7357C7.40997 26.2858 7.13226 25.8565 7.32275 25.581C7.3021 25.34 7.26307 25.3102 7.11389 25.2137C7.1575 24.9934 7.26538 25.0301 7.32275 24.8993V20.4391C7.32275 18.6853 7.30671 16.5987 7.37557 15.2443C7.43753 14.0139 7.23786 12.5677 7.37557 11.3602H7.42838C7.63035 12.127 8.8582 13.339 9.37002 13.9313C10.0218 14.6865 10.6094 15.4945 11.2062 16.2934L11.5734 16.6078C12.5006 17.8428 13.5219 18.9584 14.4056 20.2279L14.72 20.4919C15.1124 21.0107 15.4912 21.4835 15.8745 22.0115C16.0833 22.2985 16.4483 22.466 16.5584 22.8517L15.7184 24.4264V24.5825C16.2348 24.3346 16.8706 24.128 17.3456 23.7974C18.0778 23.8663 18.9018 25.3882 19.3379 25.8955C20.1962 26.8941 21.0592 27.8674 21.8579 28.9394L22.3284 29.3595L22.4867 29.7773L23.0123 30.094C23.2005 30.2295 23.6642 30.8286 23.7996 31.0375C24.0727 31.0123 24.4009 30.8837 24.534 30.8286H24.5868L24.2173 31.1431C24.2586 31.8226 25.28 32.5548 25.6357 33.03C26.3885 34.04 27.2607 34.8894 28.1535 35.7571C28.6952 36.2851 29.2001 36.9026 29.8335 37.3319L30.2535 37.4374L30.3568 37.7519L31.5113 38.6954H31.828L32.0369 39.0099C32.5234 39.3519 33.1454 39.3289 33.8202 39.4827C34.0336 39.5309 34.5317 39.6481 34.6602 39.5884L34.713 39.5356L34.2402 39.3772C33.9372 39.166 33.492 38.4291 33.0857 38.3809ZM136.298 25.5283C136.645 25.4824 137.014 24.7937 137.033 24.4264C137.313 24.3461 137.62 23.5495 137.767 23.2718C138.127 22.5854 138.639 21.8279 138.922 21.1209C139.046 20.8064 139.036 20.5676 139.183 20.2807C140.574 17.5697 140.622 12.7491 139.656 9.83833C139.114 8.2131 138.146 6.77839 137.242 5.48371L136.298 4.48747H136.034L135.878 4.01461L135.3 3.43842C134.878 3.12852 134.304 2.91502 133.937 2.54544C133.696 2.5661 133.666 2.60515 133.569 2.75665C133.266 2.64188 133.282 2.31588 133.044 2.17815C132.807 2.04042 132.504 2.0795 132.257 1.96932C131.458 1.61351 130.475 1.20031 129.319 1.44363H128.584C127.99 1.6663 127.354 2.1529 126.799 2.33654L126.851 2.70383L126.799 2.75665C126.578 2.70845 126.569 2.60515 126.484 2.43987C126.014 2.60515 125.424 3.25479 124.807 2.80716C124.373 2.66254 123.992 1.94862 123.966 1.39081C122.803 1.602 122.36 3.47518 122.812 4.7492C123.081 5.50901 123.732 5.81887 124.175 6.37669L124.386 6.27111L124.648 6.58559C125.034 6.69118 125.419 6.79676 125.803 6.90006C127.042 7.18929 129.28 6.13107 129.477 5.37814C129.688 5.36666 129.688 5.44239 129.895 5.48371C130.168 5.5388 130.597 5.47458 130.788 5.43096C131.329 5.3093 132.582 5.45621 132.991 5.58935C135.605 6.44329 136.838 8.59186 137.714 11.2042C138.125 12.4254 138.591 14.4225 138.238 16.135L138.187 16.6078L138.29 16.8167C138.245 17.1106 137.912 17.285 137.82 17.6041C137.522 18.6279 137.43 19.5783 137.033 20.4919C135.851 23.2006 134.063 25.4801 132.415 27.732C131.919 28.4069 131.435 29.0473 130.84 29.6212L130.682 30.0412H130.368V30.1446C130.177 30.3397 129.994 30.5394 129.739 30.6702C129.757 31.5265 129.773 32.3827 129.792 33.2389C130.329 33.1402 130.762 32.4768 131.102 32.1371C132.16 31.0812 133.225 30.0298 134.093 28.781C134.439 28.2829 135.21 27.8651 135.247 27.103L135.405 27.1535L135.458 26.9974L135.405 26.839C135.711 26.6875 136.239 25.9025 136.298 25.5283Z" fill="black"/>
<path clip-rule="evenodd" d="M130.923 35.5778C130.002 35.3184 128.841 34.6412 128.928 33.583H128.772C128.777 30.1535 128.825 26.2832 128.825 22.4107V20.0485C128.841 19.8373 128.86 19.6285 128.876 19.4196C128.823 19.011 128.786 18.584 128.825 18.265C128.85 18.0538 128.915 17.349 128.876 17.1631C128.646 16.0199 129.073 14.8836 128.825 14.0136C128.706 13.605 128.827 12.8452 128.981 12.6501C129.206 12.3769 129.502 12.5399 129.927 12.4412C130.595 12.2828 131.269 12.1933 131.604 11.7043H131.657V11.601C130.792 11.438 129.739 12.0051 128.772 11.8627C128.529 11.8283 128.426 12.0487 128.194 11.9683L128.088 11.8099H127.354L126.619 11.6538H125.885C125.277 11.5069 124.037 11.3232 123.314 11.5482C122.92 11.6722 122.741 12.0234 122.422 12.1772V12.3356C125.095 11.2774 125.352 13.8713 125.151 16.3757C125.245 16.564 125.245 17.4569 125.203 17.6865C125.162 17.9252 125.224 18.2672 125.256 18.421C125.32 18.7401 125.187 19.1625 125.256 19.4724C125.396 20.1083 125.146 20.9645 125.203 21.5177L125.412 21.7266C125.515 22.0204 125.075 22.2821 125.465 22.6196L125.203 22.9868C125.24 23.2347 125.417 23.3197 125.309 23.5102C125.307 23.7972 125.35 23.9188 125.412 24.0887C125.603 24.0382 125.823 23.9716 126.043 23.9303L126.096 23.9831C126.002 24.2356 125.474 24.5317 125.256 24.6672V26.9741C125.258 27.2886 125.479 27.431 125.412 27.656C125.35 27.8717 125.217 27.874 125.203 28.1288C125.187 28.4456 125.336 28.8656 125.256 29.2306L125.203 29.5452L125.309 29.9124L125.151 30.5437L125.256 31.3265C124.997 32.7888 125.33 33.4521 124.574 34.4759C123.897 35.3918 122.812 35.8096 121.687 35.525C121.38 35.4469 121.288 35.5434 121.111 35.3689H121.058C121.102 35.851 121.641 36.1999 122.054 36.3124H122.474C122.757 36.395 123.51 36.5396 123.943 36.4179C124.304 36.3169 124.76 36.2917 125.151 36.154C125.536 36.0185 126.098 35.6995 126.411 35.6306C127.168 35.4607 128.29 35.8509 128.876 35.9978H129.663C130.742 36.2687 132.013 35.9497 132.759 35.5778L132.812 35.4194H132.759C132.759 35.4194 131.37 35.704 130.923 35.5778ZM120.429 37.0997L120.271 37.3086C119.346 37.7884 118.322 38.1603 117.386 38.5689C115.747 39.2805 113.849 39.5858 112.034 40.0908C111.543 40.2262 110.944 40.217 110.407 40.3525H109.881C109.427 40.4902 108.747 40.504 108.256 40.6142H106.943C106.131 40.8001 104.653 40.7978 103.847 40.6142H102.693C101.462 40.341 100.021 40.3203 98.9148 39.9852C98.5016 39.8589 98.2033 39.9599 97.8131 39.8268C97.2577 39.6408 96.5646 39.3975 96.0298 39.1978C95.8186 39.1818 95.6098 39.1634 95.3986 39.145L94.9809 38.725C94.3566 38.4679 93.691 38.4495 93.092 38.2016C90.8037 37.2535 88.504 36.0668 87.1086 34.2143C86.7115 33.684 86.1882 33.1813 85.798 32.6395C84.841 31.3173 84.1134 29.6301 83.4363 28.076C83.1403 27.4011 82.7111 25.8838 83.3308 25.2433V25.1377C82.8993 25.1791 82.236 25.3857 81.7563 25.2961C80.533 25.0666 79.4703 24.5294 78.4513 24.0887C78.1047 23.9395 77.7123 23.8844 77.4024 23.7214L77.3496 23.6686C77.6204 23.5011 78.3825 23.5906 78.713 23.4597C79.6884 23.0718 80.4596 22.5208 81.233 21.9377C81.4488 21.7748 81.5428 21.5315 81.7035 21.3088L82.1763 20.8359C82.6835 20.1106 83.0921 19.4219 83.5947 18.685L84.8525 18.0032V17.8977H84.3269L83.7508 17.5304C82.8694 16.8716 82.6216 15.3267 81.4946 14.9066L81.5474 14.7482C81.412 14.071 79.6723 13.077 79.0274 12.7556C78.4903 12.4871 77.8844 12.1267 77.2969 11.9155C76.886 11.7663 76.5096 11.8742 76.0368 11.7571L75.4607 11.5482C75.105 11.4449 74.7883 11.7548 74.4646 11.6538L74.2007 11.4426C73.9391 11.3577 72.9016 11.5023 72.7318 11.5482C72.4793 11.6148 72.4174 11.4289 72.259 11.4426C71.6416 11.4977 70.5721 11.4863 70.0029 11.6538H68.6923C68.1323 11.7847 67.5999 11.6974 67.0651 11.8099H66.2251C64.9077 12.207 62.9361 12.0051 61.8184 11.6538C61.3226 11.4977 60.742 11.4288 60.4528 11.0753H60.2967V11.181C60.921 11.7663 61.5659 12.1933 62.5528 12.4412C63.4984 12.6753 64.0768 12.4297 64.809 12.9118L65.3851 13.2791C65.9543 14.0504 65.8028 14.661 66.0162 15.6412C66.0736 15.9097 65.9359 16.1737 65.9634 16.3757C66.0162 16.7453 66.0782 17.5212 66.0162 17.6865C66.0002 18.2098 66.2296 18.157 66.6451 18.2121L66.069 18.3177C66.0162 18.7148 66.0713 18.9191 66.1723 19.2084C66.1838 19.2359 66.0392 19.9843 66.0162 20.2574C65.9451 21.0563 66.2205 21.7266 66.069 22.6196C65.9979 23.0305 66.069 23.5928 66.069 24.1943C66.0851 25.7323 66.1034 27.2726 66.1218 28.8106C66.1218 29.5061 66.1402 30.4565 66.069 30.911C65.9336 31.7512 66.131 33.1927 65.6995 33.6886V34.2648C65.509 34.678 63.9758 35.7155 63.2345 35.2105H63.1289C63.3171 35.7063 64.8893 35.8463 65.6995 35.6834C66.3697 35.5479 67.1431 35.7706 68.0107 35.5778C69.1055 35.3322 70.7305 35.3597 71.7357 35.6306C72.1466 35.7408 72.7111 35.5847 73.0462 35.7867H73.1518C72.9728 35.2955 72.3026 35.2243 71.839 35.0016C71.2927 34.7353 70.5606 34.3221 70.2141 33.847C69.9363 33.4659 69.8422 32.938 69.4268 32.6923L69.6885 32.3778L69.6357 30.4909C69.5714 30.1948 69.4681 28.9552 69.5828 28.6017C69.6999 28.2413 69.3419 27.3874 69.4268 26.8709C69.5415 26.1684 69.4796 25.2892 69.4796 24.1943V23.0396C69.6219 22.2293 69.6678 20.0003 69.4796 18.9995C69.4521 18.864 69.6379 18.219 69.5828 17.9504C69.3556 16.8233 69.7504 15.3588 69.5301 14.2776C69.4681 13.9609 69.654 13.8598 69.4796 13.6463L69.5301 13.2263C69.8836 12.9921 70.3976 13.2102 70.7901 13.1229C71.6737 12.9255 72.9407 13.0311 73.7302 13.1758C73.9505 13.2148 74.2237 13.0977 74.5151 13.1758C75.1555 13.3433 75.6444 13.4329 76.248 13.6991C76.528 13.8231 76.8195 14.0986 77.088 14.2248L77.4024 14.2776C77.6641 14.5393 77.928 14.801 78.1896 15.0627L78.2929 15.43L78.6602 15.7467H78.9769L78.9241 16.2701L79.0801 16.5341C79.1605 16.8142 79.048 17.1401 79.0801 17.3192C79.1605 17.7599 79.3028 18.747 79.1329 19.2612C78.7084 20.5605 77.7031 21.8139 76.6152 22.4612C76.0965 22.7711 75.3551 22.9271 74.7791 23.1452C74.5151 23.1613 74.2535 23.1796 73.9919 23.1957C73.6499 23.3288 73.2734 23.3564 72.8373 23.4597C72.4059 23.5607 71.8688 23.4138 71.5246 23.6158H71.2629V23.6686C71.4259 23.8201 71.7747 24.1943 72.0501 24.1943L72.259 24.0887C72.64 23.9992 74.0699 24.1553 74.4118 24.2471C75.7017 24.5891 76.5119 25.1974 77.2969 26.0307C77.6572 26.4141 77.8614 26.9282 78.1896 27.3414L78.6602 27.656L78.7657 28.1288C79.2936 28.8772 79.9454 29.6163 80.4458 30.3853L80.4986 30.7526L80.969 31.1704L81.2858 31.6433L81.8619 32.1667C82.5068 33.0229 83.2642 33.7276 84.0124 34.4759C85.8669 36.3307 87.6342 37.7172 90.0464 39.0417C90.7211 39.409 91.5084 39.9025 92.252 40.1941C93.1792 40.5591 94.1317 40.8896 95.0314 41.2454C95.5937 41.4658 96.1239 41.413 96.7114 41.6127C98.5315 42.2302 101.442 42.6686 103.533 42.609L103.744 42.7146H106.734C107.425 42.5034 108.481 42.609 109.199 42.4506H109.881C110.833 42.159 111.85 42.1614 112.821 41.8744C113.048 41.8561 113.275 41.84 113.503 41.8216C113.946 41.677 115.309 41.3395 115.6 41.087H115.653L115.444 40.667H115.392L115.444 40.5637L115.812 40.8254C116.718 40.8392 116.973 40.5591 117.648 40.2997C118.912 39.8153 120.023 39.3103 121.217 38.725C121.788 38.4449 122.298 37.9789 123 37.8343V37.7287C122.387 37.5244 121.662 37.6621 121.111 37.4142C120.957 37.3453 120.714 36.9895 120.429 37.0997ZM89.9431 11.0226C90.4067 11.3577 90.8175 12.145 90.9919 12.7556C91.3041 13.846 91.2284 15.0627 91.412 16.0085C91.4303 16.4813 91.4464 16.9519 91.4648 17.4248L91.7264 17.6865C91.809 17.9757 91.4785 18.2397 91.5703 18.685C91.6461 19.0592 91.4992 19.7548 91.5703 20.2047L91.6736 20.3631L91.6208 20.7831C91.6323 21.1183 91.7333 21.6715 91.6736 21.9906C91.6116 22.328 91.6139 22.755 91.6736 23.0396V25.3489C91.6736 26.4278 91.513 27.3369 91.5703 28.3377L91.7792 29.4418L91.5703 29.5979V30.3853C91.568 31.2186 91.474 31.7511 91.4648 32.5867C91.4602 32.8668 91.3225 33.2501 91.4648 33.4797C91.3546 34.1224 90.549 34.7697 89.8375 34.4759L89.7847 34.5287C89.8719 34.7652 90.0234 34.7606 90.2047 34.896C90.3998 35.0406 90.5972 35.3184 90.8336 35.4194C91.3408 35.6352 92.4287 35.2725 92.9865 35.4194C94.0055 35.688 95.5753 35.9543 96.7114 35.7362C96.9364 35.6903 97.0236 35.906 97.2875 35.8394C97.7282 35.7316 97.9301 35.3483 98.2331 35.1049V35.0016C97.7764 35.059 97.2921 35.1508 96.9203 35.2633C96.5623 35.3712 96.2134 35.1416 96.0298 35.2105C95.6649 35.1164 95.3527 34.8248 95.0842 34.6343C94.7514 34.3956 94.4094 34.2487 94.1914 33.8975L94.0881 33.4797C93.9917 33.2731 93.8081 32.9334 93.7209 32.6923V32.2194C93.5832 31.6295 93.5579 30.7756 93.4592 30.1764C93.3583 29.5681 93.5143 28.4571 93.4064 27.7615L93.4592 27.1325C93.4409 26.6413 93.4225 26.1524 93.4064 25.6634C93.4064 25.427 93.4615 25.1974 93.4064 25.0849C93.4087 24.6143 93.2963 24.5271 93.1953 24.2471C92.8717 24.2494 92.7455 24.3114 92.5137 24.3504V24.1943L92.6192 24.0887C92.8396 24.0749 93.0163 24.0129 93.1425 24.0887L93.4064 23.9831C93.4041 23.5814 93.4753 23.136 93.5097 22.8812C93.5533 22.5874 93.4386 22.1605 93.4592 21.885C93.5235 20.9301 93.4776 19.7845 93.6153 18.9995C93.7163 18.4279 93.4041 17.3628 93.6153 17.0047V16.9519C94.2006 17.1631 94.7583 18.1479 95.1898 18.5794C96.3213 19.7111 97.5607 20.7671 98.5476 22.0434L98.9676 22.305L99.0204 22.5139L99.4932 22.8812L99.8076 23.3013C100.225 23.6181 100.595 23.9831 100.962 24.3504C101.198 24.5891 101.357 24.8944 101.644 25.0849C101.591 25.4132 101.07 26.3819 100.856 26.5541V26.6597C101.134 26.616 102.181 26.1524 102.325 25.9779C103.069 25.9986 103.971 27.3598 104.425 27.8144C104.65 28.0393 104.958 28.1954 105.054 28.5489C105.302 28.5259 105.417 28.4387 105.527 28.2872H105.789L105.527 28.6017H105.369C105.444 28.8772 105.766 28.9988 105.947 29.1779C106.402 29.6508 106.856 30.1236 107.31 30.5942L107.625 30.647L107.836 31.1198L108.57 31.7994C109.977 32.954 111.283 34.127 112.821 35.1577C113.085 35.3367 113.287 35.6971 113.556 35.8923C114.134 36.3146 115.876 37.4509 116.702 36.9413L116.755 36.8357C116.02 36.4891 114.65 34.9465 115.077 33.8975L114.813 33.7414C114.864 33.4682 115.045 33.3626 115.077 33.0596C115.091 32.9104 115.024 32.6028 115.024 32.3778V29.9124L114.972 29.389C115.038 28.8633 115.16 27.8028 115.024 27.1853C114.974 26.9558 114.841 26.5449 114.919 26.2396C115.123 25.4545 115.043 24.5593 115.077 23.5102C115.128 21.8735 114.995 19.9361 115.233 18.2121L115.18 16.0612L115.024 15.9028L115.233 15.694V15.0627C115.286 14.5393 115.339 14.0136 115.392 13.4902C115.704 12.4756 116.585 12.1658 117.072 11.3394H117.017L116.546 11.4426C116.197 11.5643 115.504 11.8742 114.972 11.7571C114.614 11.6791 114.196 11.8627 113.764 11.7571C113.303 11.6446 112.963 11.6515 112.504 11.5482H111.35C110.854 11.4219 109.909 11.3325 109.358 11.4954C108.94 11.6194 108.667 11.9017 108.359 12.1244V12.23C108.749 12.1795 109.064 12.0096 109.358 11.9155C110.06 11.6882 111.492 12.2139 111.823 12.4412C112.486 12.8934 112.816 13.9103 113.083 14.7482L112.977 15.0122C112.995 15.6067 113.012 16.2013 113.03 16.7958C113.106 17.1103 113.133 17.4179 113.135 17.792L113.083 18.1593C113.202 18.8755 113.129 19.7134 113.188 20.3631L113.135 20.9415C113.209 21.4534 113.257 22.3624 113.241 22.8812C113.218 23.485 113.204 24.5501 113.344 25.1377L113.241 25.4522C113.161 25.7529 113.154 26.6344 113.241 27.0269C113.317 27.3736 113.246 27.9704 113.188 28.2344V29.7563C113.142 30.0318 113.039 31.1864 113.135 31.5376L113.083 31.5905C112.61 31.5331 111.407 30.1282 111.088 29.7563C110.907 29.5428 110.606 29.3799 110.407 29.1779C109.858 28.627 109.342 28.037 108.779 27.4998L108.256 27.1853L107.783 26.5036L107.416 26.3452L107.363 26.0307L106.996 25.6106C106.638 25.2663 105.387 24.1484 105.263 23.7214L105.947 21.6761V21.3088C105.589 21.4419 105.382 22.0709 105.16 22.3579L104.74 22.7252C103.859 22.7114 103.725 22.0388 103.218 21.6761L102.745 21.4649V21.1504L102.431 20.8359L102.117 20.7831C102.004 20.5536 101.871 20.308 101.749 20.1014L101.329 19.9958C101.162 19.8558 101.281 19.796 101.171 19.5757L100.856 19.314C100.629 19.0523 100.402 18.7883 100.175 18.5266L99.8076 18.265L99.6492 17.9504C99.4495 17.7484 99.2223 17.6865 98.9676 17.5304C98.7564 17.3995 98.7243 17.0644 98.5476 16.8991L98.2331 16.7958L97.7076 16.114C97.2417 15.6457 96.6816 15.2371 96.2387 14.7482C95.4858 13.9172 94.4645 12.7098 93.5626 12.0716C92.6789 11.4496 91.7241 10.9055 90.572 10.552C90.0395 10.389 89.523 10.5933 89.103 10.3408H89.0503C89.165 10.7517 89.6355 10.8022 89.9431 11.0226ZM153.695 25.9779C152.532 26.2235 151.391 26.6046 150.39 27.0269C150.014 27.1876 149.546 27.128 149.286 27.3942C148.494 27.3483 147.175 26.5243 146.454 26.2396C145.864 26.0078 144.602 25.9182 144.145 25.6106H144.04C144.173 25.1469 144.549 24.7475 144.724 24.2976C145.033 23.4896 145.359 22.8193 145.72 22.0939C145.887 21.7542 145.883 21.3501 146.087 21.0448L146.507 20.6775V20.2574L146.716 19.7869C146.874 19.4632 147.172 19.1441 147.347 18.8411C147.489 18.5932 147.491 18.3086 147.609 18.0537C148.008 17.1837 148.538 16.3413 148.919 15.43C149.408 15.6756 149.899 17.4684 150.179 18.0537C151.093 19.9682 151.921 22.002 152.855 23.8798C153.115 24.3986 153.335 25.443 153.748 25.769L153.695 25.9779ZM162.353 34.7904C162.056 34.6595 162.022 34.4323 161.565 34.4232C161.343 33.9641 160.969 33.7207 160.725 33.3213C160.425 32.8278 160.296 32.3365 160.044 31.7994C159.637 30.9385 159.105 30.0318 158.68 29.1779C158.453 28.7257 158.368 28.3239 158.155 27.8671L157.787 27.2382C157.636 26.8135 157.583 26.4806 157.317 26.1868L157.42 25.8723C158.006 25.8494 158.694 25.7438 159.1 26.0307H159.309V25.9251L158.889 25.6106L158.313 25.4522H157.053C156.764 25.3145 156.642 24.635 156.477 24.3504L156.215 23.827L155.742 23.4597L155.795 22.9868C155.713 22.709 155.451 22.4037 155.323 22.1466L155.217 21.7794C154.795 21.0287 154.434 20.1679 154.012 19.4196C153.877 19.1832 153.872 18.8297 153.695 18.6323L153.328 18.3705C153.22 18.1364 153.408 17.9458 153.328 17.792L152.961 17.372C152.701 16.9565 152.617 16.5088 152.385 16.0612C152.279 15.8615 152.047 15.6388 151.965 15.43C151.864 15.1797 151.953 14.9663 151.859 14.7482L151.545 14.3281C151.136 13.5867 150.806 12.8016 150.441 12.0716C150.188 11.5666 150.002 10.7379 149.654 10.3408L149.603 10.288C148.545 12.8108 147.25 15.1752 146.14 17.6865C145.896 18.2374 145.479 18.825 145.247 19.3668C144.359 21.4373 143.413 23.4896 142.309 25.3489C141.855 25.3444 141.313 25.2525 140.943 25.3489C140.62 25.4339 140.257 25.6703 139.947 25.769V25.8723C140.246 25.8379 140.542 25.8034 140.84 25.769C141.201 25.8379 141.676 25.9228 141.995 25.9779C141.944 26.4829 141.655 26.8135 141.469 27.1853C141.152 27.8212 140.909 28.4387 140.579 29.0218C140.374 29.3776 140.303 29.8688 140 30.1236L140.053 30.3853C139.973 30.7756 139.44 31.3219 139.266 31.696C139.151 31.9417 139.139 32.1437 139.004 32.3778L138.74 32.6923L138.69 33.2157L138.164 33.583C137.4 34.5081 137.246 35.3322 135.593 35.2633C135.784 35.789 136.711 35.7959 137.324 35.6306C138.038 35.4378 139.057 35.3735 139.947 35.3689C140.186 35.3666 140.705 35.2335 140.787 35.2633L141.102 35.525C141.4 35.5961 141.696 35.665 141.995 35.7362C142.972 35.9566 144.301 35.7936 144.671 35.2105H144.724V35.1577C144.382 35.1875 143.918 35.3941 143.516 35.3161C142.465 35.1072 141.386 34.8547 141.049 33.9502C140.806 33.2937 141.143 32.309 141.313 31.7465L141.416 30.9615C142.128 29.4877 142.876 27.8258 143.725 26.4508C144.627 26.6344 145.396 27.1417 146.087 27.5526L146.61 27.656L146.821 28.0232C147.03 28.1747 147.241 28.2436 147.45 28.3905L147.817 28.7578C148.205 28.9896 148.931 29.3156 149.183 29.6507C149.709 29.6094 150.627 28.7968 151.019 28.4961L151.23 28.1288L151.597 28.1816L151.806 27.9704C152.093 27.7891 152.474 27.6352 152.752 27.4998C153.156 27.2978 153.642 27.2611 153.959 26.9741C154.356 27.0797 154.701 28.3492 154.902 28.7578C154.997 28.9506 155.261 29.2307 155.323 29.4418L155.27 29.6507L155.481 29.9652L155.951 30.4909V30.9615C156.156 31.5606 156.571 32.2057 156.844 32.7979C156.996 33.1285 157.347 33.9732 157.053 34.3703C156.973 35.3138 155.557 35.688 154.641 35.7867L154.588 35.8394V35.9451C155.263 35.8119 156.156 36.007 156.844 35.8394C157.108 35.7752 157.246 35.626 157.37 35.5778C157.675 35.4584 157.714 35.7867 157.999 35.7362C158.756 35.6007 160.071 35.4217 161.04 35.6306C161.717 35.7752 162.685 35.5089 162.929 35.8394C163.413 35.8119 163.429 35.5158 163.718 35.3161V35.1049C163.193 35.082 162.763 34.9717 162.353 34.7904ZM50.9027 26.1363C50.2211 26.3704 49.42 26.6712 48.7522 26.9214C48.3735 27.066 47.9305 27.0545 47.6505 27.2887C47.1777 27.2313 46.8127 26.9306 46.4432 26.7653C45.7248 26.4393 44.9537 26.2074 44.2399 25.9251C43.7809 25.7437 42.8307 25.7391 42.5094 25.4522L43.0326 24.456L42.9799 24.2976L42.6654 24.2471V24.1415C43.6569 23.7696 44.015 22.1237 44.4488 21.1504C44.5612 20.9002 44.8757 20.7556 44.9744 20.5215V20.1014L45.2888 19.6285C45.5871 19.0638 45.8098 18.4968 46.1288 18.0032C46.2734 17.776 46.2665 17.5143 46.3905 17.2664C46.7233 16.6076 47.0836 15.8799 47.4417 15.2211C47.7791 15.508 48.1302 16.9336 48.3849 17.4248C48.6328 17.9046 48.9587 18.4968 49.1722 18.9995L49.2778 19.5229C49.8217 20.6248 50.4551 21.8482 50.9555 22.9868C51.2492 23.6502 51.5729 24.309 51.8483 24.9288C51.9676 25.1974 51.986 25.4614 52.1627 25.6634C52.0044 26.0445 51.3159 25.994 50.9027 26.1363ZM60.9256 34.7904C60.221 34.4897 59.5806 33.8883 59.195 33.2685C59.0114 32.9746 59.0023 32.6418 58.8279 32.3251C58.121 31.0556 57.4003 29.4924 56.7806 28.2872C56.4386 27.6192 56.2366 26.577 55.7845 26.0307L55.8373 25.8723C56.1448 25.6267 57.2717 25.6497 57.5678 25.8723H57.6734V25.769C57.2786 25.5142 56.9366 25.2939 56.3606 25.1906C56.1333 25.1492 55.6858 25.3879 55.4172 25.2433C55.1602 25.1056 55.1396 24.573 54.9973 24.2976L54.7861 24.0887L54.63 23.6686L54.21 23.3541L54.2628 22.8812L53.9989 22.5668C53.7785 22.0962 53.6844 21.7105 53.4756 21.256C53.3126 20.9002 53.0165 20.4893 52.8444 20.1542C52.5758 19.6308 52.4863 19.0638 52.1627 18.5794L51.7955 18.3177C51.6899 18.1455 51.8736 17.854 51.7427 17.6359C51.3273 16.9335 50.7902 16.1209 50.4322 15.3794V14.9066L50.1683 14.5921C49.9479 14.1743 49.7184 13.6831 49.5394 13.2791L49.4338 12.8085L49.0666 12.3356C48.7223 11.6561 48.5709 10.8642 48.1233 10.288L48.0177 10.2375C46.6383 13.201 45.2038 16.0084 43.8727 18.9995C43.7418 19.291 43.4802 19.6078 43.3471 19.8901C43.0533 20.5306 42.8789 21.0999 42.5599 21.7266C42.3579 22.1306 41.9953 22.576 41.931 23.0924L42.4038 23.2485L41.8782 23.3013C41.6395 23.3978 40.8959 24.9357 40.7238 25.2433C39.9916 25.1859 38.9634 25.1125 38.5204 25.505L38.3643 25.5578V25.6634C39.2686 25.6634 39.6795 25.7254 40.3037 26.0307C40.0444 27.0063 39.4706 27.913 39.046 28.7578C38.8371 29.1756 38.7959 29.7265 38.4677 30.018L38.5204 30.3325L38.2588 30.647C38.0568 30.9477 38.0361 31.2737 37.8387 31.5905L37.4188 32.1138L37.0515 32.7979L36.9987 33.2685L36.4226 33.7942C36.0761 34.2533 35.6928 34.8386 35.2154 35.1577C34.9698 35.323 34.5292 35.2541 34.2698 35.4194H34.1665L34.2193 35.4722C34.6531 35.8028 36.324 35.5502 36.8932 35.4194C37.4853 35.284 38.066 35.3092 38.7316 35.2633C38.9152 35.2495 39.0391 35.075 39.2549 35.1577L39.7276 35.4722C40.4575 35.7293 41.6785 35.6329 42.4038 35.5778L42.4566 35.4194V35.3689L42.5094 35.525C42.7182 35.4951 42.8146 35.4354 42.9271 35.3161L42.9799 35.1577C42.6769 35.16 42.1008 35.2817 41.9838 35.2633C40.9051 35.0935 39.7093 34.7399 39.4132 33.7942C39.1424 33.397 39.5555 31.7351 39.7805 31.4849C39.7713 31.214 39.7345 31.1704 39.5693 31.0671C39.6565 30.7228 40.0467 30.7595 40.1477 30.4381L40.0949 30.2269L40.4093 29.8596C40.85 29.0149 41.1484 28.2091 41.5638 27.3414C41.713 27.0315 41.993 26.7217 42.0894 26.3452C42.9248 26.3796 43.9071 27.0407 44.5016 27.3942L45.0272 27.4998L45.3416 27.9704C45.5757 28.1793 45.9337 28.3767 46.1816 28.5489C46.636 28.8679 47.3016 29.1228 47.6505 29.5452C48.0544 29.5016 49.5325 28.3974 49.5922 28.0232C50.3932 28.0461 50.9991 27.5021 51.6394 27.1853C51.8919 27.0591 52.1788 27.0476 52.3739 26.8709C52.8926 27.0591 53.4434 28.8749 53.7372 29.4418C53.8795 29.7127 54.3339 30.1121 54.4188 30.3325L54.3661 30.8054C54.6186 31.6272 55.314 32.5362 55.5734 33.4269C55.998 34.8776 54.2972 35.5617 53.0555 35.525V35.6306C53.6592 35.7867 54.2215 35.8372 54.9444 35.6834H55.5734L55.8878 35.4722L56.3077 35.6306C57.4347 35.4378 59.117 35.323 60.1384 35.5778C60.6915 35.7155 60.9761 35.3528 61.24 35.7362C61.6509 35.6903 61.7954 35.3322 62.0272 35.1049C61.9217 34.9465 61.1528 34.8868 60.9256 34.7904ZM32.8009 38.0959L32.9065 38.0432C32.8101 37.7631 32.4888 37.4027 32.3809 37.2558L32.1721 37.203C32.1973 36.9276 32.1721 36.9344 32.1721 36.7324L31.9081 36.6797C32.0573 36.3468 31.6717 35.7132 31.5409 35.3161C31.433 34.9809 31.5753 34.6619 31.4376 34.3175L31.2792 34.2143C31.1966 33.9549 31.5202 33.8171 31.4376 33.4269C31.3756 33.1399 31.4927 32.7153 31.4376 32.4306C31.3573 32.0128 31.3022 31.354 31.3848 30.9615C31.4721 30.5437 31.1852 30.181 31.2265 29.8596C31.3321 29.0493 31.2333 28.0002 31.332 27.1325C31.3596 26.8915 31.1209 26.8204 31.1737 26.6069L31.332 26.4508C31.3137 26.1868 31.2976 25.9251 31.2792 25.6634C31.4261 24.9748 31.433 23.6755 31.332 22.9868C31.1576 21.7977 31.4537 20.9415 31.2792 19.943C31.2333 19.6836 31.3803 19.6859 31.3848 19.4724C31.4055 18.6322 31.5042 16.8257 31.3848 16.0085C31.3137 15.5241 31.3527 14.778 31.4376 14.3809C31.4192 13.8575 31.4009 13.3318 31.3848 12.8085C31.4468 12.4343 31.5133 11.748 31.4376 11.3394C31.4537 11.0409 31.472 10.7425 31.4904 10.4464L31.2792 10.1847C31.2586 10.1709 31.5799 9.63148 31.4376 9.39734C31.41 9.09662 31.2723 9.03466 31.0704 8.92447C31.1369 8.62146 31.4078 8.5939 31.4904 8.34828L31.4376 8.13707C31.4491 7.87078 31.4376 6.9962 31.5409 6.61515C31.7016 6.02749 31.8645 5.34802 32.1721 4.88433C32.397 4.54459 32.9708 4.19338 33.3793 4.04417L33.7993 3.99135L33.8498 3.67688V3.5713C32.7756 3.58278 31.8324 4.18192 30.7559 3.9386C30.2051 3.81694 29.4225 3.96382 28.9704 3.83527C28.1625 3.60342 26.829 3.59424 26.0326 3.67688L25.9798 3.7297V4.20256C26.6017 4.26225 27.0676 4.06485 27.607 4.25538C29.3146 4.8591 29.1792 6.92046 29.5487 8.87165C29.6107 9.2068 29.3788 9.76918 29.5487 10.1847L29.7576 10.4464C29.5969 11.096 29.652 11.624 29.652 12.3884C29.6359 12.5973 29.6176 12.8085 29.6015 13.0174C29.7805 13.9057 29.652 15.4827 29.652 16.743V24.1943C29.652 26.2212 29.87 29.2651 29.5487 30.7526C29.4454 31.2255 29.7209 32.0082 29.4959 32.3778L29.4431 32.4306C28.929 31.6318 28.011 30.7526 27.3454 30.0708L27.187 29.7563C26.6958 29.1021 26.0624 28.5558 25.5597 27.8671L25.0364 27.3942C24.5131 26.701 23.9325 26.095 23.4092 25.3995L22.9364 24.9817C22.3994 24.2655 21.798 23.648 21.2586 22.9341L20.7859 22.5139C20.4783 22.1007 20.1501 21.5521 19.737 21.256C19.7668 20.9117 20.3589 19.9568 20.5747 19.7869V19.6813C20.1776 19.7433 19.4753 19.9614 19.2114 20.2047C18.3736 20.2047 17.474 18.7102 17.0609 18.1593C16.6179 17.5717 15.9821 17.0736 15.5391 16.4813C14.3158 14.8492 12.9709 13.2974 11.603 11.8099C11.2794 11.8811 11.0109 12.3746 10.8158 12.5973H10.763C10.7905 12.2529 10.8984 11.6791 11.0774 11.4426C10.7813 10.6025 9.99183 9.92303 9.45247 9.29176C9.11508 8.89693 8.86489 8.45159 8.55964 8.03381C8.08914 7.38417 7.40974 6.83785 6.93235 6.1951C6.36775 5.43758 5.67925 4.49871 4.78185 4.09699C4.52479 3.98221 4.27228 4.1176 3.99457 3.99135C3.80407 3.90641 3.59984 3.58278 3.36573 3.5208C3.14769 3.46341 2.72767 3.56895 2.4729 3.41516H2.26404C2.43388 3.77326 2.98476 3.92939 3.26018 4.20256C3.82019 4.75578 4.25164 5.57067 4.52017 6.40625C4.53623 6.66793 4.5546 6.93196 4.57067 7.19365C4.72903 7.79967 4.78185 8.61454 4.78185 9.34451C4.78185 9.84035 4.72216 10.7058 4.9379 10.9193L4.67622 11.3394C4.72442 11.5597 4.62116 12.1267 4.72903 12.3884L4.8874 12.4917L4.9379 12.6501L4.67622 12.9645C4.8736 13.4007 4.83688 14.413 4.83459 15.2211L4.78185 15.7996C5.02972 16.8968 4.7566 18.4692 4.78185 19.5757C4.8048 20.6064 4.98836 22.5829 4.83459 23.5102C4.72442 24.1714 5.09394 24.9977 4.83459 25.4522L4.78185 25.9779L5.04345 26.2396C5.00214 26.4554 4.88049 26.4301 4.83459 26.5541C4.80475 26.6344 4.8874 28.0393 4.8874 28.4433C4.8874 28.682 5.00907 29.3936 4.99071 29.4418L4.78185 29.5979L4.83459 30.1236C4.81393 30.5093 4.78641 31.2163 4.72903 31.5376C4.57296 32.4168 4.79331 33.5394 4.41461 34.1614C4.11395 34.655 3.35881 34.7583 2.78732 35.0016C2.25944 35.2243 0.969568 35.8739 0.689561 36.3124L0.636819 36.6797C0.462388 37.0263 0.0882475 37.0699 0.0584106 37.6231L0.375141 37.5726V37.4142C0.724003 37.3293 0.921363 36.8702 1.21285 36.6797C1.79581 36.3009 3.47357 35.8969 3.78571 35.4194L4.10019 35.6834C4.49496 35.8647 4.83232 35.5961 5.25463 35.6834C5.67694 35.7683 6.68223 35.7936 7.19634 35.8923C7.49012 35.9497 8.01112 35.7981 8.24522 35.8394C9.0577 35.9841 10.5059 35.9979 11.183 35.7362C11.5525 35.5916 11.8187 35.2587 12.1286 35.0521V34.896C10.7997 35.5204 8.50452 35.199 7.77237 34.2143C7.50154 33.8493 7.33864 33.2662 7.19634 32.7979C6.97371 32.0725 7.27435 30.1328 6.8268 29.8091L7.03797 29.5979C7.01961 29.3362 7.00352 29.0746 6.98516 28.8106C7.11599 28.1059 6.91633 27.066 7.03797 26.4508C7.12519 26.0008 6.84748 25.5716 7.03797 25.2961C7.01732 25.0551 6.97828 25.0252 6.8268 24.9288C6.8727 24.7085 6.9806 24.7452 7.03797 24.6144V20.1542C7.03797 18.4004 7.02186 16.3138 7.09072 14.9594C7.15268 13.7267 6.95301 12.2828 7.09072 11.0753H7.14353C7.3455 11.842 8.57113 13.0541 9.08524 13.6463C9.73706 14.4015 10.3246 15.2096 10.9213 16.0085L11.2886 16.3229C12.2158 17.5579 13.2371 18.6735 14.1208 19.943L14.4352 20.2047C14.8277 20.7258 15.2064 21.1986 15.5919 21.7266C15.7985 22.0135 16.1634 22.1811 16.2736 22.5668L15.4336 24.1415V24.2976C15.95 24.0497 16.5858 23.8431 17.0609 23.5102C17.793 23.5814 18.6169 25.1033 19.053 25.6106C19.9114 26.6092 20.7743 27.5825 21.5731 28.6545L22.0436 29.0746L22.202 29.4924L22.7276 29.8091C22.9158 29.9469 23.3794 30.5437 23.5148 30.7526C23.7879 30.7274 24.1161 30.5988 24.2492 30.5437H24.302L23.9325 30.8582C23.9738 31.5377 24.9952 32.2699 25.3509 32.7451C26.1037 33.7551 26.9758 34.6045 27.8687 35.4722C28.4103 36.0002 28.9152 36.6176 29.5487 37.0469L29.9664 37.1525L30.072 37.467L31.2265 38.4105H31.5409L31.7521 38.725C32.2386 39.067 32.8606 39.044 33.5354 39.1978C33.7488 39.246 34.2468 39.3631 34.3754 39.3034L34.4282 39.2506L33.9554 39.0923C33.6524 38.8811 33.2071 38.1442 32.8009 38.0959ZM136.011 25.2433C136.36 25.1974 136.73 24.5088 136.748 24.1415C137.028 24.0635 137.335 23.2646 137.482 22.9868C137.843 22.3004 138.354 21.543 138.637 20.8359C138.761 20.5215 138.752 20.2827 138.898 19.9958C140.289 17.2848 140.338 12.4641 139.371 9.55341C138.83 7.92818 137.861 6.49347 136.957 5.1988L136.011 4.20256H135.75L135.593 3.7297L135.015 3.1535C134.593 2.84361 134.019 2.63011 133.652 2.26053C133.411 2.28119 133.381 2.32024 133.285 2.47174C132.982 2.35696 132.998 2.03097 132.759 1.89323C132.523 1.7555 132.22 1.79452 131.972 1.68433C131.173 1.32623 130.191 0.913101 129.034 1.15872H128.299C127.705 1.38139 127.069 1.86798 126.514 2.05163L126.567 2.41892L126.514 2.47174C126.294 2.42353 126.284 2.32024 126.199 2.15496C125.729 2.32024 125.139 2.96988 124.522 2.52225C124.088 2.37763 123.707 1.66371 123.682 1.1059C122.518 1.31709 122.075 3.1902 122.527 4.46421C122.798 5.22403 123.448 5.53396 123.891 6.09177L124.102 5.9862L124.363 6.30067C124.749 6.40627 125.134 6.50955 125.518 6.61515C126.757 6.90438 128.995 5.84616 129.192 5.09323C129.403 5.08175 129.403 5.15748 129.61 5.1988C129.883 5.25389 130.312 5.18966 130.503 5.14605C131.044 5.02438 132.298 5.1713 132.706 5.30444C135.32 6.15837 136.553 8.30695 137.43 10.9193C137.84 12.1405 138.306 14.1376 137.953 15.8501L137.902 16.3229L138.006 16.5341C137.96 16.8257 137.627 17.0001 137.535 17.3192C137.237 18.343 137.145 19.2934 136.748 20.2047C135.566 22.9157 133.778 25.1952 132.13 27.4471C131.634 28.1219 131.15 28.7624 130.556 29.3363L130.397 29.7563H130.083V29.8596C129.892 30.0548 129.706 30.2545 129.454 30.3853C129.47 31.2393 129.488 32.0978 129.507 32.954C130.044 32.8553 130.478 32.1919 130.817 31.8521C131.875 30.7962 132.94 29.7449 133.808 28.4961C134.154 27.998 134.923 27.5802 134.962 26.818L135.121 26.8709L135.173 26.7125L135.121 26.5541C135.426 26.4026 135.952 25.6175 136.011 25.2433Z" fill="black"/>
</g>
<mask id="mask1_36_39" style="mask-type:luminance" maskUnits="userSpaceOnUse" x="-1" y="-1" width="166" height="57">
<path d="M-0.00744629 55.0186H164.299V-0.000553131H-0.00744629V55.0186Z" fill="white"/>
</mask>
<g mask="url(#mask1_36_39)">
<path d="M130.941 35.6388C130.02 35.3795 128.859 34.7025 128.947 33.6452H128.79C128.794 30.2151 128.842 26.3447 128.842 22.472V20.111C128.86 19.9008 128.877 19.6912 128.895 19.4812C128.842 19.0728 128.803 18.6476 128.842 18.3272C128.868 18.1164 128.932 17.4128 128.895 17.2255C128.665 16.0826 129.092 14.9465 128.842 14.0774C128.725 13.6692 128.846 12.9088 129 12.7131C129.225 12.4412 129.52 12.6028 129.944 12.5034C130.613 12.3469 131.287 12.2575 131.624 11.7688H131.676V11.6639C130.811 11.5002 129.756 12.0689 128.79 11.9264C128.547 11.8906 128.444 12.1108 128.213 12.0311L128.108 11.8738H127.373L126.638 11.7163H125.904C125.296 11.5695 124.056 11.3856 123.332 11.6114C122.938 11.7345 122.758 12.0867 122.44 12.2411V12.3984C125.114 11.3395 125.371 13.9342 125.169 16.4383C125.264 16.6263 125.262 17.5194 125.222 17.7502C125.18 17.9869 125.242 18.3301 125.274 18.4845C125.34 18.8024 125.205 19.2239 125.274 19.5337C125.415 20.171 125.164 21.0271 125.222 21.58L125.432 21.7899C125.534 22.0829 125.093 22.3435 125.484 22.682L125.222 23.0491C125.259 23.2976 125.435 23.3812 125.327 23.5736C125.325 23.8598 125.368 23.9802 125.432 24.151C125.621 24.101 125.842 24.033 126.061 23.9934L126.113 24.0461C126.021 24.298 125.492 24.5944 125.274 24.7282V27.0366C125.277 27.3511 125.498 27.4926 125.432 27.7186C125.368 27.9345 125.235 27.9355 125.222 28.1909C125.205 28.5085 125.355 28.928 125.274 29.2925L125.222 29.6075L125.327 29.9748L125.169 30.6044L125.274 31.3891C125.014 32.8506 125.348 33.5128 124.592 34.5371C123.916 35.4528 122.829 35.871 121.706 35.5863C121.397 35.5079 121.305 35.6035 121.129 35.4289H121.076C121.12 35.9127 121.659 36.2616 122.073 36.3734H122.493C122.774 36.4551 123.528 36.6008 123.962 36.4784C124.322 36.3769 124.779 36.3537 125.169 36.2161C125.554 36.0801 126.118 35.7611 126.429 35.6915C127.186 35.5213 128.309 35.9127 128.895 36.0586H129.682C130.76 36.3289 132.032 36.0108 132.778 35.6388L132.831 35.4816H132.778C132.777 35.481 131.39 35.7654 130.941 35.6388ZM120.446 37.1602L120.289 37.3702C119.364 37.8502 118.341 38.2219 117.403 38.6295C115.765 39.342 113.866 39.647 112.05 40.1511C111.561 40.2867 110.961 40.2769 110.424 40.4135H109.899C109.444 40.5502 108.764 40.565 108.272 40.6755H106.96C106.148 40.8601 104.671 40.8592 103.865 40.6755H102.71C101.478 40.4009 100.037 40.3818 98.9317 40.0463C98.5175 39.92 98.2194 40.0195 97.8299 39.8886C97.2732 39.7017 96.5817 39.4573 96.0453 39.259C95.8357 39.2418 95.6257 39.2242 95.4159 39.2066L94.9962 38.7868C94.3728 38.5289 93.7068 38.5105 93.1071 38.2623C90.8191 37.3144 88.5195 36.1287 87.1248 34.2746C86.7263 33.7447 86.2034 33.2415 85.813 32.7007C84.8576 31.3777 84.1288 29.6918 83.4516 28.1385C83.1566 27.4624 82.7261 25.9448 83.3468 25.3051V25.2002C82.915 25.2409 82.2512 25.4472 81.7722 25.3577C80.5493 25.1289 79.4868 24.5907 78.4664 24.151C78.1192 24.0014 77.7268 23.9463 77.4172 23.7836L77.3645 23.7314C77.6356 23.5627 78.3985 23.6526 78.7288 23.5214C79.7048 23.1338 80.4748 22.5835 81.2476 21.9999C81.4634 21.8369 81.5577 21.5933 81.7198 21.3701L82.1925 20.898C82.6993 20.1729 83.1072 19.4835 83.6093 18.747L84.8684 18.0649V17.96H84.3437L83.7665 17.5926C82.8844 16.9338 82.6375 15.3901 81.5101 14.9693L81.5627 14.8119C81.4283 14.1336 79.6877 13.1407 79.0438 12.818C78.5067 12.5491 77.8994 12.1897 77.3121 11.9786C76.9003 11.8306 76.5244 11.938 76.0527 11.8213L75.4754 11.6114C75.1188 11.5082 74.804 11.819 74.4784 11.7163L74.2161 11.5066C73.9535 11.4203 72.9172 11.5655 72.7467 11.6114C72.4953 11.679 72.4323 11.4929 72.2745 11.5066C71.6573 11.56 70.587 11.5489 70.0181 11.7163H68.7062C68.1461 11.8488 67.6131 11.7612 67.0795 11.8738H66.2399C64.9213 12.2703 62.9501 12.0689 61.8321 11.7163C61.3376 11.5604 60.7572 11.4928 60.4676 11.1392H60.3103V11.2443C60.9362 11.83 61.5808 12.2575 62.5668 12.5034C63.5124 12.7393 64.0919 12.4938 64.8231 12.9756L65.4002 13.3426C65.9684 14.1139 65.8181 14.7232 66.0302 15.7038C66.0883 15.9738 65.9492 16.2373 65.9775 16.4383C66.0298 16.8077 66.0933 17.5846 66.0302 17.7502C66.0143 18.272 66.2442 18.2205 66.6598 18.2747L66.0825 18.3795C66.0311 18.7763 66.0859 18.9816 66.1874 19.2715C66.1978 19.2984 66.0541 20.0462 66.0302 20.3209C65.9603 21.1178 66.2351 21.7896 66.0825 22.682C66.0121 23.0935 66.0825 23.6551 66.0825 24.2558C66.1 25.7948 66.1175 27.3341 66.135 28.8729C66.135 29.5667 66.1546 30.5171 66.0825 30.9715C65.9488 31.8129 66.1441 33.254 65.715 33.7499V34.3271C65.5222 34.7392 63.9892 35.7776 63.2489 35.2716H63.1438C63.3318 35.7684 64.9027 35.9066 65.715 35.7436C66.383 35.61 67.1569 35.8326 68.0241 35.6388C69.1194 35.3942 70.7446 35.4206 71.7498 35.6915C72.1614 35.8023 72.7258 35.6448 73.0616 35.8488H73.1667C72.9881 35.3567 72.3183 35.2865 71.8548 35.0616C71.3068 34.7957 70.5747 34.3836 70.2281 33.9074C69.9506 33.5264 69.8569 32.9988 69.4409 32.7532L69.7032 32.4386L69.6508 30.5517C69.5863 30.2556 69.4838 29.0167 69.5982 28.6631C69.715 28.3032 69.3565 27.4483 69.4409 26.9316C69.5555 26.2294 69.4933 25.3508 69.4933 24.2558V23.1016C69.6364 22.2913 69.6815 20.0631 69.4933 19.0617C69.4678 18.9258 69.6532 18.2827 69.5982 18.0124C69.37 16.8857 69.7648 15.4208 69.5458 14.3397C69.4819 14.0243 69.6693 13.9222 69.4933 13.7101L69.5458 13.2905C69.8976 13.0555 70.413 13.2731 70.8052 13.1856C71.6896 12.9878 72.955 13.0937 73.7438 13.2379C73.9644 13.2782 74.2378 13.1605 74.5311 13.2379C75.1692 13.4065 75.6598 13.495 76.2626 13.7623C76.5433 13.8872 76.8332 14.1608 77.1021 14.2873L77.4172 14.3397C77.6793 14.602 77.942 14.8647 78.2042 15.1266L78.3093 15.4938L78.6764 15.8087H78.9912L78.9387 16.3335L79.0963 16.5957C79.1759 16.8777 79.064 17.2023 79.0963 17.3829C79.1752 17.8229 79.3178 18.8092 79.1487 19.3239C78.7223 20.6241 77.7185 21.876 76.6299 22.5244C76.1111 22.8336 75.3711 22.9897 74.7932 23.2067C74.5311 23.2239 74.2685 23.2414 74.0062 23.2589C73.6645 23.39 73.288 23.4185 72.8518 23.5214C72.4201 23.6232 71.8832 23.4769 71.54 23.6788H71.2776V23.7314C71.441 23.8823 71.79 24.257 72.0646 24.2558L72.2745 24.151C72.6549 24.0618 74.0839 24.2176 74.4261 24.3082C75.717 24.6515 76.528 25.2604 77.3121 26.0923C77.673 26.4751 77.8758 26.9899 78.2042 27.4037L78.6764 27.7186L78.7815 28.1909C79.3094 28.9395 79.96 29.6774 80.4605 30.4468L80.5131 30.814L80.9852 31.2324L81.3001 31.7037L81.8773 32.2285C82.5221 33.0836 83.2806 33.7889 84.0289 34.5371C85.8825 36.3907 87.6502 37.7784 90.0634 39.1015C90.7365 39.4705 91.5251 39.964 92.2673 40.2558C93.1941 40.6201 94.148 40.9512 95.0483 41.3055C95.6094 41.5255 96.1407 41.473 96.7277 41.6724C98.5486 42.2904 101.459 42.7294 103.55 42.6694L103.759 42.7742H106.751C107.442 42.563 108.497 42.6701 109.217 42.512H109.899C110.851 42.2198 111.868 42.2218 112.838 41.9348C113.065 41.9173 113.292 41.8998 113.52 41.8823C113.963 41.7372 115.326 41.3997 115.619 41.1478H115.671L115.461 40.728H115.409L115.461 40.6234L115.829 40.8856C116.735 40.9006 116.99 40.6198 117.665 40.3607C118.929 39.8766 120.041 39.3719 121.234 38.7868C121.807 38.5058 122.316 38.0404 123.018 37.895V37.7898C122.405 37.5856 121.68 37.7236 121.129 37.4751C120.976 37.4064 120.732 37.0495 120.446 37.1602ZM89.9585 11.0867C90.4232 11.4222 90.8328 12.2072 91.008 12.818C91.3208 13.9095 91.2444 15.1259 91.4279 16.071C91.4454 16.5433 91.4628 17.0155 91.4804 17.4875L91.7427 17.7502C91.8257 18.0381 91.4937 18.3025 91.5851 18.747C91.6625 19.1219 91.5153 19.8179 91.5851 20.2684L91.6901 20.4257L91.6379 20.8457C91.649 21.1801 91.7486 21.7343 91.6901 22.0524C91.6276 22.3912 91.6293 22.8167 91.6901 23.1016V25.41C91.69 26.4904 91.5294 27.3993 91.5851 28.4006L91.7952 29.5025L91.5851 29.6601V30.4468C91.5849 31.2804 91.4907 31.8133 91.4804 32.6482C91.4769 32.9286 91.3378 33.3105 91.4804 33.5401C91.3707 34.1831 90.564 34.8312 89.8533 34.5371L89.8013 34.5896C89.8883 34.8259 90.0402 34.8218 90.221 34.9569C90.4154 35.1021 90.613 35.3805 90.8504 35.4816C91.3573 35.6972 92.4451 35.3347 93.0019 35.4816C94.0215 35.7497 95.5916 36.0152 96.7277 35.7961C96.9538 35.7526 97.0396 35.9664 97.305 35.901C97.7454 35.7932 97.9466 35.4087 98.2497 35.1665V35.0616C97.7919 35.1199 97.3095 35.2127 96.9378 35.3241C96.5786 35.4312 96.2298 35.2034 96.0453 35.2716C95.6806 35.1771 95.3682 34.885 95.1008 34.6947C94.7671 34.4561 94.4247 34.3096 94.2088 33.9599L94.104 33.5401C94.0086 33.3348 93.8238 32.9952 93.7367 32.7532V32.2809C93.6001 31.691 93.5739 30.8367 93.4744 30.237C93.3736 29.6307 93.5302 28.5184 93.4219 27.8235L93.4744 27.1941C93.4569 26.7043 93.4395 26.2146 93.4219 25.7251C93.4226 25.4885 93.4774 25.2604 93.4219 25.1478C93.4247 24.6763 93.3128 24.5893 93.2119 24.3082C92.8873 24.3104 92.7617 24.3738 92.5298 24.4135V24.2558L92.6349 24.151C92.8558 24.138 93.0322 24.0741 93.1595 24.151L93.4219 24.0461C93.4205 23.6445 93.4906 23.1986 93.527 22.9442C93.5687 22.6507 93.4555 22.2226 93.4744 21.9472C93.5392 20.9931 93.4941 19.8476 93.6317 19.0617C93.7315 18.4912 93.4212 17.425 93.6317 17.068V17.0155C94.2179 17.2267 94.7741 18.2101 95.2059 18.6419C96.3387 19.7746 97.578 20.8289 98.5644 22.1046L98.9841 22.3671L99.0367 22.5768L99.509 22.9442L99.8237 23.3641C100.242 23.681 100.611 24.0457 100.978 24.4135C101.216 24.6511 101.374 24.957 101.661 25.1478C101.608 25.4757 101.088 26.4429 100.873 26.6169V26.7216C101.15 26.6778 102.198 26.2134 102.342 26.0396C103.086 26.0617 103.987 27.4214 104.441 27.876C104.667 28.1015 104.974 28.2582 105.071 28.6105C105.318 28.5883 105.434 28.4997 105.544 28.3483H105.806L105.544 28.6631H105.386C105.462 28.9392 105.783 29.0602 105.963 29.2401C106.418 29.7123 106.873 30.1847 107.328 30.6568L107.643 30.7094L107.853 31.1804L108.587 31.8611C109.995 33.016 111.301 34.1886 112.838 35.2191C113.103 35.3967 113.304 35.7578 113.572 35.9536C114.152 36.3765 115.894 37.5117 116.721 37.0028L116.773 36.898C116.038 36.5493 114.669 35.0067 115.094 33.9599L114.831 33.8026C114.882 33.5299 115.063 33.4244 115.094 33.1208C115.109 32.9716 115.042 32.6648 115.041 32.4386V29.9748L114.989 29.45C115.056 28.9254 115.177 27.8647 115.041 27.2466C114.991 27.0181 114.858 26.6063 114.937 26.3021C115.14 25.5154 115.061 24.6207 115.094 23.5736C115.146 21.935 115.013 19.9988 115.252 18.2747L115.199 16.1236L115.041 15.9661L115.252 15.7563V15.1266C115.304 14.602 115.356 14.0774 115.409 13.5527C115.721 12.5386 116.604 12.2281 117.088 11.4014H117.035L116.563 11.5066C116.216 11.6264 115.521 11.9386 114.989 11.8213C114.632 11.7426 114.213 11.9268 113.782 11.8213C113.321 11.7083 112.981 11.7154 112.523 11.6114H111.368C110.871 11.4842 109.926 11.3956 109.374 11.559C108.957 11.6827 108.684 11.9645 108.377 12.1886V12.2935C108.767 12.2425 109.081 12.0731 109.374 11.9786C110.076 11.7521 111.51 12.2774 111.841 12.5034C112.503 12.9572 112.834 13.9734 113.1 14.8119L112.995 15.0743C113.012 15.6688 113.03 16.2635 113.047 16.8581C113.122 17.1725 113.151 17.4811 113.152 17.8548L113.1 18.2223C113.219 18.939 113.147 19.7754 113.205 20.4257L113.152 21.0029C113.227 21.5156 113.276 22.4258 113.257 22.9442C113.236 23.5473 113.223 24.6132 113.362 25.2002L113.257 25.5151C113.178 25.8139 113.171 26.6953 113.257 27.089C113.333 27.4356 113.263 28.0312 113.205 28.296V29.8173C113.159 30.0929 113.056 31.2478 113.152 31.5991L113.1 31.6513C112.628 31.5935 111.425 30.191 111.106 29.8173C110.924 29.604 110.624 29.442 110.424 29.2401C109.876 28.6878 109.358 28.0995 108.797 27.5613L108.272 27.2466L107.8 26.5643L107.433 26.4069L107.38 26.0923L107.012 25.6724C106.654 25.3293 105.403 24.2098 105.281 23.7836L105.963 21.7375V21.3701C105.607 21.5035 105.4 22.1333 105.176 22.4195L104.756 22.7869C103.876 22.7727 103.743 22.1012 103.235 21.7375L102.762 21.5276V21.2127L102.448 20.898L102.133 20.8457C102.02 20.6167 101.887 20.3696 101.765 20.1635L101.346 20.0586C101.179 19.9182 101.299 19.8577 101.188 19.6388L100.873 19.3764C100.646 19.1141 100.418 18.8518 100.191 18.5894L99.8237 18.3272L99.6664 18.0124C99.467 17.8112 99.2382 17.7502 98.9841 17.5926C98.7731 17.4616 98.7419 17.1272 98.5644 16.963L98.2497 16.8581L97.7248 16.1761C97.2577 15.7088 96.6982 15.2998 96.2554 14.8119C95.5013 13.981 94.4815 12.7719 93.5795 12.136C92.6947 11.5127 91.7411 10.9682 90.5882 10.6147C90.0556 10.4512 89.5398 10.6576 89.119 10.4048H89.0664C89.1813 10.8141 89.6507 10.8648 89.9585 11.0867ZM153.715 26.0396C152.552 26.2863 151.41 26.6661 150.409 27.089C150.033 27.2486 149.565 27.1888 149.307 27.4565C148.514 27.4104 147.194 26.5872 146.474 26.3021C145.883 26.0687 144.62 25.9804 144.165 25.6724H144.06C144.192 25.2101 144.569 24.8103 144.743 24.3607C145.053 23.5526 145.379 22.8821 145.739 22.1573C145.908 21.8167 145.902 21.4126 146.107 21.1079L146.527 20.7405V20.3209L146.736 19.8488C146.894 19.5263 147.192 19.2068 147.367 18.9043C147.509 18.6558 147.512 18.3704 147.629 18.1173C148.029 17.2462 148.557 16.4043 148.94 15.4938C149.427 15.7377 149.919 17.5315 150.2 18.1173C151.113 20.0311 151.941 22.0651 152.876 23.941C153.135 24.4619 153.355 25.5058 153.767 25.8298L153.715 26.0396ZM162.374 34.8518C162.076 34.7209 162.042 34.4931 161.586 34.4847C161.364 34.0249 160.99 33.7822 160.747 33.3827C160.446 32.8885 160.316 32.3976 160.064 31.8611C159.659 30.9991 159.126 30.0926 158.701 29.2401C158.474 28.788 158.389 28.3854 158.175 27.9286L157.808 27.299C157.656 26.8756 157.603 26.5431 157.337 26.2497L157.44 25.9346C158.026 25.9121 158.715 25.8062 159.12 26.0923H159.33V25.9873L158.91 25.6724L158.333 25.5151H157.073C156.783 25.3767 156.663 24.697 156.497 24.4135L156.235 23.8887L155.762 23.5214L155.815 23.0491C155.734 22.7715 155.47 22.4652 155.342 22.2097L155.237 21.8424C154.814 21.091 154.454 20.2311 154.031 19.4812C153.897 19.2456 153.893 18.8915 153.715 18.6945L153.348 18.4321C153.24 18.1984 153.429 18.0078 153.348 17.8548L152.98 17.4351C152.721 17.0188 152.637 16.571 152.404 16.1236C152.3 15.9256 152.068 15.7018 151.984 15.4938C151.883 15.242 151.972 15.0295 151.878 14.8119L151.564 14.3921C151.157 13.6495 150.826 12.864 150.462 12.136C150.208 11.63 150.022 10.8021 149.674 10.4048L149.622 10.3522C148.564 12.873 147.27 15.2373 146.159 17.7502C145.916 18.3005 145.499 18.8878 145.267 19.429C144.378 21.5008 143.432 23.5524 142.328 25.41C141.874 25.4052 141.332 25.3144 140.964 25.41C140.638 25.495 140.277 25.7332 139.967 25.8298V25.9346C140.264 25.8999 140.562 25.8648 140.859 25.8298C141.219 25.9004 141.695 25.9853 142.013 26.0396C141.964 26.5438 141.674 26.8752 141.489 27.2466C141.172 27.8832 140.929 28.5002 140.597 29.0826C140.393 29.4393 140.322 29.9314 140.019 30.1846L140.072 30.4468C139.991 30.8374 139.459 31.3829 139.285 31.7564C139.171 32.0023 139.158 32.2059 139.022 32.4386L138.76 32.7532L138.708 33.2779L138.183 33.6452C137.417 34.5683 137.266 35.3924 135.612 35.3241C135.804 35.8504 136.729 35.8568 137.343 35.6915C138.057 35.4991 139.077 35.4336 139.967 35.4289C140.206 35.4279 140.725 35.2944 140.807 35.3241L141.121 35.5863C141.418 35.6564 141.716 35.7264 142.013 35.7961C142.992 36.0186 144.32 35.8535 144.69 35.2716H144.743V35.2191C144.401 35.2491 143.937 35.4562 143.535 35.3764C142.485 35.1678 141.405 34.9157 141.069 34.0124C140.824 33.3555 141.163 32.3709 141.331 31.809C141.366 31.5464 141.401 31.2845 141.436 31.024C142.146 29.5503 142.895 27.8871 143.745 26.5119C144.647 26.6959 145.415 27.2029 146.107 27.6137L146.631 27.7186L146.842 28.0859C147.049 28.2365 147.261 28.3051 147.47 28.4531L147.838 28.8205C148.225 29.0525 148.951 29.3769 149.203 29.7123C149.727 29.6717 150.645 28.8596 151.04 28.558L151.249 28.1909L151.616 28.2433L151.826 28.0335C152.113 27.8518 152.495 27.6982 152.771 27.5613C153.177 27.36 153.662 27.3223 153.978 27.0366C154.377 27.1422 154.721 28.411 154.922 28.8205C155.016 29.0117 155.279 29.2914 155.342 29.5025L155.289 29.7123L155.5 30.0273L155.971 30.5517V31.024C156.175 31.623 156.591 32.2675 156.864 32.8581C157.016 33.1898 157.367 34.0346 157.073 34.4322C156.992 35.3742 155.577 35.7497 154.66 35.8488L154.608 35.901V36.0062C155.284 35.8734 156.175 36.0683 156.864 35.901C157.129 35.837 157.265 35.687 157.389 35.6388C157.695 35.5196 157.734 35.8468 158.019 35.7961C158.776 35.6619 160.091 35.4823 161.061 35.6915C161.737 35.837 162.707 35.5691 162.95 35.901C163.434 35.874 163.449 35.5779 163.737 35.3764V35.1665C163.214 35.1439 162.784 35.0325 162.374 34.8518ZM50.9172 26.1971C50.2334 26.4322 49.4324 26.7323 48.7659 26.9841C48.387 27.127 47.943 27.1158 47.6639 27.3514C47.1898 27.293 46.8248 26.9925 46.4569 26.8268C45.7377 26.5023 44.9679 26.2704 44.2529 25.9873C43.7938 25.8056 42.8445 25.8011 42.5213 25.5151L43.0461 24.5181L42.9936 24.3607L42.6788 24.3082V24.2034C43.6708 23.8309 44.0271 22.1872 44.4629 21.2127C44.5747 20.9627 44.8876 20.817 44.9877 20.5831V20.1635L45.3025 19.6913C45.5992 19.1266 45.8238 18.5601 46.142 18.0649C46.2872 17.8391 46.2801 17.5781 46.4045 17.3302C46.7361 16.6693 47.0972 15.9435 47.4541 15.2839C47.7923 15.5714 48.1431 16.996 48.3985 17.4875C48.647 17.9662 48.9727 18.5591 49.1857 19.0617L49.2905 19.5863C49.8347 20.687 50.4676 21.9108 50.9698 23.0491C51.262 23.7117 51.5856 24.3722 51.8618 24.9904C51.9817 25.2592 52.0003 25.5236 52.1767 25.7251C52.0187 26.107 51.3299 26.0553 50.9172 26.1971ZM60.94 34.8518C60.2346 34.5505 59.5942 33.9485 59.2082 33.3301C59.0246 33.0363 59.0172 32.703 58.8409 32.3857C58.1352 31.118 57.4128 29.5539 56.7945 28.3483C56.4526 27.6815 56.2497 26.6388 55.7974 26.0923L55.8498 25.9346C56.1577 25.6895 57.286 25.7111 57.5815 25.9346H57.6865V25.8298C57.293 25.577 56.9497 25.3561 56.3747 25.2526C56.1476 25.2119 55.6997 25.4495 55.4302 25.3051C55.1727 25.1672 55.1523 24.636 55.0102 24.3607L54.8004 24.151L54.6429 23.7314L54.2232 23.4165L54.2756 22.9442L54.0132 22.6292C53.7917 22.1589 53.697 21.773 53.4885 21.3179C53.3256 20.9619 53.0312 20.5514 52.8588 20.2159C52.5903 19.693 52.4999 19.1254 52.1767 18.6419L51.8094 18.3795C51.7038 18.2094 51.8866 17.9168 51.757 17.6975C51.3419 16.9954 50.8048 16.1842 50.4451 15.4413V14.9693L50.1826 14.6546C49.9605 14.2365 49.7317 13.7463 49.553 13.3426L49.4481 12.8705L49.0806 12.3984C48.7357 11.7184 48.5845 10.9274 48.1362 10.3522L48.0312 10.2996C46.6521 13.2634 45.2163 16.0706 43.8856 19.0617C43.7555 19.3542 43.4918 19.6694 43.3609 19.9537C43.0659 20.5936 42.8913 21.1632 42.5739 21.7899C42.37 22.1922 42.0071 22.637 41.9442 23.1542L42.4164 23.3114L41.8916 23.3641C41.6529 23.4605 40.9084 24.9987 40.7372 25.3051C40.0033 25.2473 38.9766 25.1735 38.5333 25.5675L38.3759 25.6199V25.7251C39.2803 25.7249 39.693 25.7867 40.3173 26.0923C40.0576 27.0689 39.4819 27.9754 39.0579 28.8205C38.8489 29.237 38.8085 29.7884 38.4808 30.0797L38.5333 30.3947L38.2708 30.7094C38.0693 31.0093 38.0488 31.3356 37.8512 31.6513L37.4313 32.1762L37.0639 32.8581L37.0114 33.3301L36.4343 33.8551C36.088 34.3143 35.7043 34.9001 35.2274 35.2191C34.9822 35.3831 34.5416 35.3142 34.2829 35.4816H34.1779L34.2304 35.5338C34.6665 35.8643 36.3352 35.6121 36.9065 35.4816C37.4984 35.346 38.0792 35.3705 38.7432 35.3241C38.9274 35.311 39.0518 35.1357 39.2679 35.2191L39.74 35.5338C40.4708 35.7896 41.6906 35.6945 42.4164 35.6388L42.4689 35.4816V35.4289L42.5213 35.5863C42.7315 35.5557 42.828 35.4962 42.941 35.3764L42.9936 35.2191C42.689 35.2221 42.1132 35.3425 41.9966 35.3241C40.9165 35.154 39.7221 34.802 39.4253 33.8551C39.1548 33.4588 39.5682 31.7969 39.7927 31.5464C39.7843 31.2754 39.7466 31.2314 39.5829 31.1279C39.6693 30.7852 40.0588 30.8209 40.1599 30.4993L40.1075 30.2895L40.4224 29.9223C40.8629 29.0767 41.1621 28.2716 41.5767 27.4037C41.7248 27.0943 42.0052 26.7837 42.1016 26.4069C42.9383 26.4426 43.9207 27.1034 44.5153 27.4565L45.0401 27.5613L45.355 28.0335C45.5896 28.2413 45.9473 28.4377 46.1947 28.6105C46.6496 28.9291 47.316 29.1838 47.6639 29.6075C48.0671 29.563 49.5453 28.4601 49.6054 28.0859C50.4069 28.1082 51.0113 27.5646 51.6521 27.2466C51.9058 27.1203 52.1928 27.1092 52.3867 26.9316C52.9059 27.121 53.4576 28.9361 53.751 29.5025C53.8922 29.7754 54.3467 30.1728 54.4331 30.3947L54.3807 30.8667C54.6315 31.689 55.3276 32.5971 55.5874 33.4879C56.0108 34.9384 54.3112 35.6219 53.0688 35.5863V35.6915C53.6716 35.8474 54.2345 35.8979 54.9578 35.7436H55.5874L55.9023 35.5338L56.3222 35.6915C57.4484 35.4982 59.1301 35.3848 60.1528 35.6388C60.7058 35.7762 60.9903 35.4134 61.2549 35.7961C61.6641 35.7517 61.8101 35.3933 62.0419 35.1665C61.9367 35.008 61.1664 34.9485 60.94 34.8518ZM32.8136 38.1571L32.9185 38.1046C32.8231 37.8241 32.5013 37.464 32.3937 37.3175L32.1839 37.2653C32.2103 36.9883 32.1833 36.9944 32.1839 36.7931L31.9215 36.7407C32.0707 36.4071 31.684 35.7742 31.5542 35.3764C31.445 35.0424 31.5872 34.7236 31.4491 34.3797L31.2916 34.2746C31.2081 34.0165 31.532 33.8773 31.4491 33.4879C31.3885 33.202 31.5041 32.7777 31.4491 32.4909C31.3692 32.0738 31.3154 31.4153 31.3967 31.024C31.4833 30.6054 31.1977 30.2424 31.2393 29.9223C31.345 29.1106 31.2447 28.0612 31.3442 27.1941C31.3719 26.9525 31.1318 26.8816 31.1867 26.6694L31.3442 26.5119L31.2916 25.7251C31.4379 25.0371 31.4453 23.7365 31.3442 23.0491C31.1693 21.86 31.4663 21.003 31.2916 20.0062C31.2461 19.7457 31.3914 19.7481 31.3967 19.5337C31.4171 18.6959 31.5162 16.8888 31.3967 16.071C31.326 15.5878 31.364 14.8419 31.4491 14.4446C31.4317 13.9199 31.4142 13.3951 31.3967 12.8705C31.4588 12.4973 31.5254 11.8118 31.4491 11.4014C31.4668 11.1043 31.484 10.8068 31.5016 10.5096L31.2916 10.2474C31.2709 10.2346 31.5918 9.69454 31.4491 9.46038C31.4225 9.16017 31.2834 9.09725 31.0818 8.98808C31.149 8.68545 31.4202 8.65627 31.5016 8.41101L31.4491 8.20105C31.4613 7.93429 31.4505 7.06015 31.5542 6.67966C31.7146 6.09078 31.8756 5.41065 32.1839 4.94817C32.4101 4.60867 32.984 4.2578 33.3907 4.10876L33.8106 4.05623L33.8631 3.74165V3.63645C32.7882 3.64784 31.8442 4.24583 30.767 4.0037C30.2163 3.88001 29.4339 4.02847 28.9829 3.8988C28.1748 3.66691 26.8414 3.65724 26.0441 3.74165L25.9917 3.79375V4.26619C26.6137 4.32683 27.0806 4.12826 27.6186 4.31858C29.3264 4.9234 29.1909 6.98399 29.5602 8.93569C29.6234 9.27077 29.3898 9.83275 29.5602 10.2474L29.77 10.5096C29.608 11.1596 29.6648 11.6875 29.665 12.4508C29.6474 12.6606 29.6299 12.8705 29.6126 13.0804C29.7925 13.9687 29.6651 15.5454 29.665 16.8055V24.2558C29.6651 26.2838 29.8826 29.3273 29.5602 30.814C29.4572 31.2868 29.7333 32.0711 29.5076 32.4386L29.4551 32.4909C28.9422 31.6923 28.0227 30.8139 27.3562 30.1321L27.1987 29.8173C26.7084 29.163 26.075 28.6164 25.572 27.9286L25.0473 27.4565C24.5236 26.7632 23.9449 26.1574 23.4206 25.4626L22.9483 25.0429C22.4096 24.3282 21.8088 23.7104 21.269 22.9967L20.7969 22.5768C20.4891 22.164 20.1623 21.6153 19.7473 21.3179C19.7787 20.9736 20.3696 20.018 20.5869 19.8488V19.7437C20.1891 19.8055 19.486 20.0248 19.2226 20.2684C18.3856 20.2672 17.4861 18.7739 17.0711 18.2223C16.6288 17.6346 15.9932 17.1359 15.5492 16.5435C14.3277 14.9125 12.983 13.3618 11.6137 11.8738C11.2894 11.9452 11.0219 12.4371 10.8266 12.6606H10.7742C10.8011 12.3164 10.9086 11.7432 11.0887 11.5066C10.7931 10.666 10.0023 9.98763 9.46227 9.35533C9.12472 8.96003 8.87486 8.51563 8.57019 8.09614C8.09952 7.44875 7.42029 6.90043 6.9435 6.25974C6.37916 5.50132 5.69096 4.56255 4.7919 4.16114C4.53436 4.04613 4.28151 4.18249 4.00489 4.05623C3.8154 3.96997 3.60968 3.64614 3.37506 3.58393C3.15766 3.52657 2.73853 3.63389 2.48312 3.47902H2.27327C2.44525 3.83716 2.99593 3.99431 3.27013 4.26619C3.82978 4.82049 4.26286 5.63541 4.52966 6.4697C4.54703 6.73204 4.56453 6.99453 4.58204 7.25673C4.74064 7.86226 4.79176 8.67904 4.7919 9.40785C4.7919 9.90393 4.73197 10.7691 4.9495 10.9818L4.68698 11.4014C4.73481 11.624 4.63031 12.1899 4.73951 12.4508L4.89683 12.5558L4.9495 12.7131L4.68698 13.028C4.88359 13.4628 4.848 14.4766 4.84458 15.2839L4.7919 15.8614C5.04048 16.9587 4.76727 18.5312 4.7919 19.6388C4.81497 20.6678 4.99891 22.6454 4.84458 23.5736C4.73453 24.2347 5.10326 25.0607 4.84458 25.5151L4.7919 26.0396L5.05443 26.3021C5.01215 26.5162 4.89028 26.4913 4.84458 26.6169C4.81539 26.6966 4.89669 28.1021 4.89683 28.5058C4.89697 28.7445 5.01997 29.4549 5.00189 29.5025L4.7919 29.6601L4.84458 30.1846C4.82365 30.5704 4.7966 31.2772 4.73951 31.5991C4.58376 32.4786 4.80386 33.6017 4.42459 34.2224C4.12348 34.715 3.36907 34.8198 2.7979 35.0616C2.27057 35.285 0.978582 35.9338 0.698972 36.3734L0.646436 36.7407C0.471323 37.0876 0.0990297 37.1318 0.0692749 37.6848L0.384197 37.6325V37.4751C0.734849 37.3898 0.932309 36.9308 1.22374 36.7407C1.80531 36.3608 3.48312 35.9577 3.79504 35.4816L4.10982 35.7436C4.50531 35.9258 4.84358 35.6572 5.26428 35.7436C5.68668 35.8307 6.69251 35.8538 7.20589 35.9536C7.50045 36.0111 8.02194 35.8602 8.25528 35.901C9.06919 36.0445 10.5161 36.0586 11.1939 35.7961C11.5642 35.6531 11.8297 35.3203 12.1384 35.1142V34.9569C10.8106 35.5819 8.51524 35.2599 7.78304 34.2746C7.51226 33.9103 7.34996 33.3272 7.20589 32.8581C6.98308 32.1327 7.28476 30.1944 6.83858 29.8699L7.04843 29.6601C7.03106 29.3977 7.01341 29.1352 6.99604 28.8729C7.12716 28.1681 6.92784 27.1267 7.04843 26.5119C7.13655 26.0621 6.85765 25.6345 7.04843 25.3577C7.02778 25.1175 6.98977 25.0868 6.83858 24.9904C6.88371 24.7703 6.99063 24.8084 7.04843 24.6755V20.2159C7.04871 18.4624 7.03134 16.3764 7.10082 15.0217C7.16417 13.7908 6.96272 12.3453 7.10082 11.1392H7.15335C7.35665 11.9063 8.58287 13.1179 9.09496 13.7101C9.748 14.4652 10.3356 15.2718 10.9315 16.071L11.2988 16.3858C12.2256 17.621 13.2471 18.7372 14.1324 20.0062L14.4473 20.2684C14.8378 20.7881 15.2173 21.262 15.6017 21.7899C15.8099 22.0757 16.1753 22.2433 16.284 22.6292L15.4444 24.2034V24.3607C15.9614 24.1111 16.596 23.9046 17.0711 23.5736C17.804 23.6441 18.6292 25.1656 19.0651 25.6724C19.9237 26.6712 20.7862 27.645 21.5839 28.7156L22.0561 29.1352L22.2136 29.555L22.7383 29.8699C22.9267 30.0074 23.3904 30.6061 23.5255 30.814C23.7988 30.7898 24.1286 30.6597 24.2601 30.6044H24.3126L23.9452 30.9191C23.9851 31.5995 25.0077 32.3305 25.362 32.8057C26.1154 33.8158 26.9873 34.6663 27.8808 35.5338C28.4228 36.0603 28.9262 36.6788 29.5602 37.1079L29.9797 37.2128L30.0848 37.5276L31.2393 38.4721H31.5542L31.764 38.7868C32.2502 39.128 32.8724 39.1052 33.5482 39.259C33.76 39.3072 34.2586 39.4247 34.3879 39.364L34.4402 39.3115L33.9679 39.1541C33.6648 38.9411 33.2194 38.2058 32.8136 38.1571ZM136.031 25.3051C136.379 25.2604 136.748 24.5716 136.766 24.2034C137.047 24.1244 137.355 23.3258 137.501 23.0491C137.861 22.3637 138.374 21.605 138.655 20.898C138.781 20.583 138.771 20.3445 138.917 20.0586C140.309 17.3482 140.357 12.5265 139.39 9.61767C138.849 7.99152 137.879 6.55724 136.976 5.26304L136.031 4.26619H135.769L135.612 3.79375L135.034 3.21682C134.611 2.90793 134.038 2.69399 133.67 2.32503C133.43 2.34553 133.399 2.38353 133.303 2.5347C133.001 2.42139 133.016 2.0957 132.778 1.95749C132.54 1.81955 132.238 1.85785 131.991 1.74767C131.191 1.39166 130.208 0.978297 129.052 1.22299H128.318C127.723 1.44462 127.087 1.93158 126.533 2.11507L126.586 2.48232L126.533 2.5347C126.311 2.48787 126.302 2.38396 126.219 2.21998C125.747 2.38367 125.158 3.03433 124.539 2.58723C124.106 2.44118 123.725 1.72803 123.7 1.17046C122.535 1.3817 122.093 3.25326 122.545 4.52825C122.815 5.28695 123.465 5.59683 123.91 6.15483L124.12 6.05007L124.382 6.36493C124.767 6.4697 125.152 6.57447 125.536 6.67966C126.775 6.96805 129.014 5.90943 129.21 5.15798C129.423 5.14489 129.423 5.22218 129.629 5.26304C129.902 5.3167 130.331 5.25364 130.521 5.21051C131.063 5.08738 132.317 5.23442 132.725 5.36794C135.34 6.22244 136.571 8.37001 137.448 10.9818C137.859 12.2038 138.326 14.2016 137.973 15.9136L137.92 16.3858L138.025 16.5957C137.98 16.8884 137.646 17.0636 137.553 17.3829C137.255 18.4049 137.164 19.3554 136.766 20.2684C135.585 22.9788 133.796 25.2582 132.148 27.5088C131.653 28.1846 131.169 28.8249 130.574 29.3977L130.416 29.8173H130.102V29.9223C129.911 30.1157 129.726 30.3158 129.472 30.4468C129.49 31.3017 129.507 32.1588 129.524 33.0154C130.063 32.9156 130.496 32.2534 130.836 31.9137C131.895 30.858 132.959 29.8065 133.827 28.558C134.174 28.0598 134.943 27.6422 134.982 26.8792L135.139 26.9316L135.192 26.7743L135.139 26.6169C135.444 26.4653 135.972 25.6788 136.031 25.3051Z" stroke="black" stroke-width="0.260393"/>
</g>
<mask id="mask2_36_39" style="mask-type:luminance" maskUnits="userSpaceOnUse" x="-1" y="-1" width="166" height="57">
<path d="M-0.0167236 55.0186H164.407V-0.0740433H-0.0167236V55.0186Z" fill="white"/>
</mask>
</svg>
