<svg width="800" height="628" viewBox="0 0 800 628" fill="none" xmlns="http://www.w3.org/2000/svg">
<g clip-path="url(#clip0_23_80)">
<rect x="215" y="105" width="376" height="394" fill="#F6F2E6"/>
<path d="M663.743 560.751C686.916 560.687 710.089 560.559 733.263 560.543C753.765 560.543 774.268 560.703 794.771 560.719C796.514 560.719 798.257 560.064 800 559.712C799.968 559.232 799.936 558.752 799.888 558.272C798.753 557.984 797.601 557.504 796.45 557.456C789.429 557.232 782.392 557.216 775.371 556.848C773.948 556.768 772.205 555.793 771.293 554.673C766.128 548.306 761.042 541.86 756.164 535.269C756.148 535.237 756.132 535.221 756.1 535.189H753.781C757.236 540.02 760.658 544.883 764.113 549.714C765.856 552.129 767.679 554.481 769.47 556.864C769.214 557.232 768.958 557.6 768.703 557.984C765.264 556.96 761.81 555.937 757.412 554.641C758.867 555.953 759.475 556.512 760.114 557.072C752.902 557.072 745.753 557.072 738.588 557.088C716.966 557.12 695.36 557.2 673.738 557.232C661.936 557.248 650.149 557.152 638.346 557.152C628.847 557.136 619.347 557.232 609.848 557.152C606.505 557.12 604.09 556.112 604.762 551.761C605.018 550.114 604.25 547.746 603.083 546.563C600.86 544.323 597.661 542.995 595.534 540.676C594.175 539.188 593.407 537.157 592.56 535.189H590.944V507.148C590.72 506.332 590.672 505.42 590.944 504.396V496.878C590.784 496.11 590.768 495.294 590.944 494.399V485.777C590.624 485.073 590.608 484.481 590.944 483.985V459.079C590.672 457.639 590.64 456.151 590.944 454.584C591.12 453.704 591.408 452.808 591.808 451.88C593.423 453.352 594.91 454.712 596.878 456.519C596.542 451.768 589.793 451.049 591.36 445.69C593.183 447.017 594.559 448.041 595.934 449.049C596.094 448.857 596.254 448.665 596.414 448.489C594.591 446.33 592.767 444.154 590.944 441.995C590.944 441.995 590.934 441.984 590.912 441.963C590.912 441.963 590.912 441.947 590.944 441.931V412.162C590.912 411.762 590.912 411.346 590.944 410.946V401.124C590.656 399.268 590.784 397.301 590.944 395.269V381.369C590.816 380.489 590.816 379.545 590.944 378.521V366.972C590.848 366.844 590.736 366.732 590.64 366.604C590.752 366.524 590.848 366.46 590.944 366.364C591.12 366.236 591.296 366.108 591.472 365.964C592.224 366.092 592.975 366.204 592.975 366.204C592.288 363.517 591.616 360.909 590.944 358.302C590.912 358.174 590.88 358.062 590.848 357.934C590.88 357.918 590.912 357.886 590.944 357.87V344.769C590.768 343.361 590.832 341.826 590.944 340.162V330.804C590.784 329.844 590.768 328.805 590.944 327.653V322.47C590.832 322.278 590.72 322.102 590.624 321.91C590.736 321.814 590.832 321.734 590.944 321.654V283.471C590.944 283.471 590.896 283.359 590.88 283.295C590.896 283.311 590.928 283.327 590.944 283.359V278.96C590.832 278.816 590.704 278.672 590.592 278.528C590.72 278.448 590.832 278.352 590.944 278.256C591.136 278.128 591.328 277.968 591.52 277.824C592.272 277.92 593.023 278.016 594.287 278.16C593.615 276.385 593.103 275.025 592.592 273.681C593.039 273.265 593.503 272.849 593.951 272.434C594.655 274.017 595.358 275.617 596.046 277.216C596.494 276.801 596.926 276.401 597.373 276.001C595.806 274.001 593.855 272.178 592.783 269.938C591.744 267.811 591.488 265.315 590.944 262.964C590.912 262.82 590.88 262.676 590.848 262.532H590.944C591.232 262.516 591.52 262.484 591.808 262.452C594.031 264.579 596.254 266.691 598.493 268.802C598.781 268.594 599.085 268.386 599.372 268.163C595.55 264.435 591.696 260.708 590.944 255.733C590.768 254.614 590.752 253.43 590.944 252.166C591.056 251.318 591.264 250.423 591.568 249.495C591.92 249.687 592.304 249.911 592.48 250.007C592.016 247.095 591.488 243.864 590.944 240.553C590.848 239.897 590.736 239.225 590.624 238.569C590.736 238.553 590.832 238.553 590.944 238.537V234.186C590.848 234.074 590.768 233.978 590.672 233.866C590.768 233.786 590.848 233.722 590.944 233.642C591.2 233.434 591.456 233.211 591.712 232.987C594.287 235.418 596.862 237.833 599.42 240.265C598.301 234.378 589.985 233.003 591.472 225.244C593.855 227.228 595.758 228.796 597.645 230.379C598.077 230.091 598.493 229.803 598.909 229.531C593.759 227.132 591.68 223.645 590.944 219.63C590.337 216.334 590.624 212.687 590.848 208.976C590.88 209.008 590.912 209.056 590.944 209.088V189.892C590.88 189.605 590.832 189.317 590.8 189.013C590.848 189.061 590.896 189.125 590.944 189.173C593.391 191.796 595.102 193.62 596.814 195.459C595.95 192.916 594.335 191.044 592.847 189.061C592.08 188.053 591.312 187.029 590.944 185.893C590.688 185.094 590.64 184.262 590.944 183.334C591.04 182.982 591.2 182.63 591.408 182.262C592.24 182.998 592.895 183.574 594.127 184.662C592.879 181.446 591.92 178.919 590.944 176.424C590.912 176.328 590.864 176.232 590.832 176.136C590.864 176.12 590.912 176.104 590.944 176.088V139.536C590.864 138.88 590.864 138.192 590.944 137.472V129.378C590.864 129.282 590.8 129.17 590.72 129.074C590.8 129.026 590.88 128.978 590.944 128.914V121.62C590.864 121.236 590.784 120.852 590.688 120.484C590.768 120.468 590.864 120.436 590.944 120.42C591.184 120.356 591.408 120.292 591.648 120.228C593.919 123.124 596.206 126.019 598.477 128.898C597.069 122.74 590.944 118.421 590.944 111.798C590.944 110.631 591.136 109.399 591.584 108.055C592.64 108.855 593.567 109.575 594.511 110.295C592.336 108.631 591.312 106.76 590.944 104.728C590.656 103.176 590.736 101.529 590.944 99.8171V88.7317C590.624 87.068 590.576 85.2924 590.944 83.3569V56.9789C590.832 55.2353 590.832 53.4597 590.944 51.6682C600.647 49.3434 604.751 44.9284 603.259 38.4232C601.339 38.2632 599.276 37.9433 597.213 37.9113C581.94 37.6554 566.683 37.3354 551.41 37.2715C538.137 37.2075 526.126 32.6165 514.292 27.3377C513.044 26.7779 511.909 25.8021 510.933 24.7943C503.64 17.276 496.412 9.67778 489.119 2.14351C488.303 1.2957 487.216 0.703839 486.256 0C485.889 0.431901 485.521 0.863802 485.153 1.3117C492.845 9.13391 500.522 16.9401 508.95 25.5301C498.523 21.1631 489.215 16.7002 479.524 13.3249C460.924 6.83043 441.717 2.83135 422.126 0.543875C411.539 -0.687842 411.059 -0.35192 409.46 10.7495C409.316 11.7413 407.797 13.037 406.693 13.3089C403.383 14.1568 403.159 11.8373 402.983 9.30987C402.359 0.607861 401.224 -0.607861 392.652 0.463894C382.416 1.7276 372.213 3.32724 362.106 5.31078C345.569 8.57403 329.529 13.4689 314.16 20.5873C303.78 25.4022 293.257 30.1211 282.366 33.5123C267.029 38.3112 250.909 38.3752 234.98 38.9511C226.504 39.255 218.012 39.175 209.536 39.175C205.586 39.159 204.146 41.3025 203.826 44.8697C203.475 48.7728 205.889 49.7326 209.008 50.0205C210.927 50.1965 212.862 50.2765 215.085 50.4044V80.5095H215.501V305.242C215.581 305.546 215.645 305.866 215.725 306.17C215.645 306.202 215.581 306.234 215.501 306.282V327.701C215.549 328.261 215.597 328.853 215.645 329.492C215.725 330.324 215.517 331.188 215.501 332.036C215.341 340.898 215.053 349.776 215.085 358.638C215.165 375.658 215.389 392.662 215.501 409.682C215.533 413.377 215.565 417.088 215.581 420.783C215.661 436.268 215.501 451.752 215.501 467.237C215.501 474.003 215.501 480.77 215.501 487.552C215.501 496.254 215.549 504.972 215.725 513.674C215.821 518.089 214.014 519.273 210.111 519.257C191.432 519.193 172.753 519.241 154.057 519.225C135.714 519.225 117.37 519.081 99.0106 519.129C72.1269 519.209 45.2273 519.497 18.3277 519.433C14.8733 519.433 10.5233 521.24 7.59663 515.914C7.77255 522.36 1.7753 517.241 0.0161133 521.784H20.6146C20.7106 522.168 20.7906 522.536 20.8705 522.92C14.1856 530.31 7.48468 537.685 0.431922 545.475C1.45545 545.555 2.447 545.939 2.78284 545.619C4.03027 544.483 5.00582 543.043 6.18927 541.828C11.5788 536.293 17.0643 530.87 22.3578 525.24C23.8132 523.672 24.2929 521.72 27.3475 521.784C44.6196 522.072 61.8917 522.168 79.1477 521.976C97.4593 521.8 115.755 522.584 134.066 522.104C145.789 521.8 157.528 522.216 169.25 522.248C182.108 522.264 194.966 521.896 207.793 522.44C210.495 522.552 214.414 525.352 215.437 527.863C218.316 534.981 213.23 543.539 205.857 546.051C204.962 546.355 204.018 548.114 204.034 549.202C204.066 553.361 207.025 554.353 210.687 554.161C210.431 558.144 207.649 557.184 205.698 557.184C182.204 557.184 158.727 557.088 135.234 557.072C126.534 557.072 117.834 557.248 109.134 557.232C95.908 557.2 82.6821 557.072 69.4562 557.024C60.1645 556.992 50.8887 556.928 41.597 557.056C32.865 557.168 24.117 557.424 15.3691 557.776C13.4499 557.856 11.5628 558.608 9.64368 559.04C9.70766 559.536 9.77163 560.032 9.8196 560.511H126.694C126.694 561.551 126.806 561.903 126.678 562.079C117.37 574.412 108.078 586.761 98.6587 599.015C97.987 599.878 96.2598 600.294 95.0284 600.31C83.5777 600.502 72.1269 600.55 60.6762 600.662C47.9621 600.774 35.2479 600.87 22.5338 601.062C21.2543 601.078 19.9909 601.702 18.7275 602.038C18.8075 602.598 18.9034 603.174 18.9834 603.75H155.065C150.235 612.084 145.581 620.114 140.991 628H143.822C146.477 623.361 149.068 618.77 151.594 614.147C153.945 609.828 156.664 606.197 161.158 604.277C162.869 603.542 164.98 603.526 166.915 603.526C186.826 603.494 206.753 603.558 226.664 603.542C245.999 603.51 265.334 603.334 284.669 603.366C303.572 603.398 322.476 603.734 341.379 603.75C364.377 603.782 387.39 603.606 410.387 603.542C418.032 603.526 425.676 603.846 433.305 603.558C437.607 603.382 438.726 605.141 438.438 608.996C437.975 615.331 437.559 621.665 437.143 628H439.302C439.606 622.753 439.926 617.554 440.278 612.34C440.469 609.364 441.461 606.437 442.085 603.494C470.424 603.494 498.107 603.494 525.79 603.478C562.701 603.462 599.612 603.414 636.523 603.382C667.069 603.366 697.599 603.43 728.145 603.318C730.912 603.318 732.463 604.054 733.871 606.485C738.077 613.683 742.331 620.85 746.617 628H749.271C744.49 619.922 739.628 611.748 734.638 603.334C741.003 603.334 746.217 603.35 751.43 603.334C762.193 603.318 772.941 603.318 783.704 603.238C784.631 603.222 785.575 602.646 786.502 602.326C786.438 601.878 786.374 601.43 786.31 600.982C783.88 600.774 781.449 600.374 779.002 600.374C760.386 600.358 741.771 600.47 723.155 600.454C703.82 600.454 684.469 600.246 665.134 600.342C655.507 600.39 655.507 600.598 651.7 591.896C647.174 581.595 642.664 571.277 638.043 560.751C646.871 560.751 655.315 560.783 663.759 560.751H663.743ZM597.661 547.426C600.284 547.426 602.027 548.114 601.915 551.362C597.133 551.362 592.288 551.394 587.458 551.346C577.99 551.266 568.523 551.122 559.055 551.01C550.467 550.898 541.879 550.674 533.291 550.738C524.735 550.786 516.179 551.17 507.639 551.33C504.12 551.394 500.618 551.346 497.115 551.202C493.917 551.058 494.525 549.042 495.1 547.283C505.624 547.283 515.619 547.251 525.614 547.283C536.329 547.331 547.028 547.474 557.744 547.49C571.049 547.522 584.355 547.49 597.661 547.426ZM541.415 563.087C541.623 562.767 541.815 562.463 542.007 562.159C548.132 566.062 554.273 569.965 560.398 573.884C560.238 574.428 560.094 574.972 559.935 575.516C553.633 575.164 547.3 574.46 540.999 574.588C536.265 574.668 534.794 571.437 532.571 568.478C530.508 565.726 527.981 563.343 525.646 560.799C525.742 560.495 525.822 560.176 525.902 559.872C529.756 561.519 533.771 562.911 537.433 564.926C541.191 567.006 544.63 569.709 548.708 572.477C549.156 566.446 543.894 565.87 541.415 563.087ZM544.246 560.208C554.497 561.423 560.51 569.181 568.219 574.012C568.123 574.38 568.011 574.764 567.915 575.132C566.523 574.956 564.828 575.228 563.821 574.524C557.328 569.965 550.995 565.182 544.246 560.208ZM206.993 46.5173V41.1586C216.109 41.1586 224.985 41.3505 233.861 41.0946C244.736 40.7906 255.754 41.0306 266.438 39.303C276.369 37.6874 286.252 34.5681 295.592 30.729C319.549 20.8752 343.378 10.7015 369.03 6.01462C378.866 4.22303 388.861 3.34323 399.225 1.99954C399.48 5.37477 399.704 7.72623 399.848 10.0617C400.088 14.1568 402.615 16.5882 406.645 16.5082C410.307 16.4442 412.338 14.2687 412.642 10.2217C412.818 7.88619 413.202 5.56672 413.618 2.11152C424.077 3.56718 434.296 4.68693 444.404 6.44652C467.593 10.4456 488.991 19.9474 510.757 28.3455C521.264 32.4086 531.883 36.5356 542.822 38.9511C551.538 40.8866 560.814 40.6307 569.85 40.7107C579.158 40.8066 588.465 40.2308 597.757 39.7349C600.268 39.6069 601.372 40.4867 601.643 42.8382C601.931 45.3656 601.164 47.0132 598.301 46.9332C594.287 46.8053 590.273 46.4533 586.274 46.5173C576.503 46.6933 566.747 47.2692 556.976 47.2692C542.487 47.2692 528.765 43.0781 515.219 38.4712C500.522 33.4643 486.033 27.7856 471.239 23.0667C460.636 19.6915 449.697 17.34 438.87 14.6686C434.52 13.5969 430.09 12.8291 425.66 12.0772C421.486 11.3734 419.007 13.7089 418.416 17.452C418 20.1714 416.752 21.0832 414.401 21.2591C410.755 21.5311 407.077 22.011 403.431 21.915C399.304 21.803 395.626 20.8272 394.954 15.5644C394.491 11.9972 391.42 11.8693 388.637 12.1892C380.945 13.085 373.268 14.5567 365.544 14.9886C351.534 15.7564 338.436 19.7875 325.69 25.2262C316.766 29.0493 308.002 33.2564 299.063 37.0795C287.868 41.8624 276.305 45.2536 263.991 45.6855C254.299 46.0374 244.624 46.7733 234.948 47.0612C229.942 47.2052 224.921 46.6453 219.899 46.5333C215.773 46.4374 211.647 46.5333 206.993 46.5333V46.5173ZM587.298 348.656C587.602 365.676 587.442 382.696 587.474 399.716C587.49 404.355 587.474 408.994 587.474 414.193C585.603 412.929 584.083 411.922 582.5 410.85C582.356 411.378 582.148 411.778 582.228 411.842C587.554 415.937 587.618 421.663 587.586 427.694C587.458 452.84 587.57 478.002 587.554 503.149C587.554 505.692 587.218 508.219 587.026 510.987C586.194 510.923 585.363 510.875 584.947 510.843C585.843 513.962 586.722 517.017 587.618 520.089C587.314 520.201 587.026 520.313 586.738 520.441C582.868 517.657 578.998 514.89 575.144 512.123C574.856 512.49 574.568 512.858 574.296 513.226C576.647 515.29 578.726 517.833 581.397 519.305C587.698 522.744 588.114 527.991 586.69 534.613C575.543 534.613 564.237 534.261 552.978 534.757C546.757 535.029 542.519 532.102 538.233 528.551C536.889 527.447 535.482 526.423 534.122 525.384C533.851 525.703 533.579 526.023 533.307 526.359C536.09 528.935 538.872 531.526 542.215 534.613C536.681 534.613 531.676 534.677 526.67 534.549C525.95 534.533 525.231 533.654 524.527 533.126C519.313 529.239 514.148 525.304 508.87 521.496C508.086 520.937 506.871 521.017 505.847 520.793C505.608 521.224 505.352 521.656 505.112 522.088C510.933 526.007 516.754 529.927 522.592 533.846C522.496 534.294 522.416 534.741 522.336 535.189H218.588C218.588 527.959 218.54 520.105 218.588 512.251C218.684 499.837 218.923 487.408 218.987 474.995C219.051 460.726 219.019 446.458 219.035 432.189C219.051 409.346 219.035 386.503 219.115 363.645C219.163 348.4 219.419 333.14 219.451 317.879C219.467 302.763 219.227 287.646 219.275 272.53C219.339 257.637 219.707 242.728 219.771 227.836C219.835 217.134 219.563 206.449 219.563 195.747C219.563 180.071 219.787 164.394 219.723 148.734C219.643 127.155 219.451 105.592 219.179 84.0127C219.083 76.1425 218.476 68.2723 218.428 60.3862C218.428 58.1947 219.547 56.0032 220.283 53.2998C222.042 54.6755 223.114 55.5233 224.649 56.739C224.809 55.2673 224.921 54.3075 224.969 53.7797H230.678C231.03 54.1476 232.245 55.4433 233.525 56.803C235.796 53.2838 240.274 53.1558 245.791 56.0192C249.517 53.8117 253.196 51.6682 257.754 52.9319C257.882 52.9799 258.041 52.9798 258.185 52.9479C267.573 50.0845 277.664 51.3002 287.02 47.7171C298.471 43.3181 310.273 39.8149 321.756 35.4799C328.761 32.8405 335.414 29.3053 342.259 26.234C347.152 24.0265 351.934 23.0347 355.98 28.0096C356.556 28.7294 357.516 29.1453 359.003 29.0493C357.404 27.3697 355.82 25.6741 354.061 23.8185C358.603 21.4831 361.882 23.2427 365.096 26.17C368.071 28.8894 371.333 31.2728 374.468 33.8002C374.692 33.5283 374.916 33.2564 375.156 32.9844C371.237 29.5132 367.303 26.042 362.745 21.995C366.791 21.2911 370.278 20.5553 373.812 20.1074C377.874 19.5795 382 18.9077 386.063 19.0676C388.925 19.1796 391.788 20.4273 394.555 21.4351C396.25 22.0589 397.897 23.0187 399.288 24.1705C400.648 25.3062 401.671 26.8738 402.839 28.2495C402.535 28.6174 402.215 28.9854 401.911 29.3693H380.353C380.049 32.8085 379.602 35.9757 379.538 39.143C379.346 48.3569 379.362 57.5708 379.202 66.7687C379.138 70.1119 380.273 71.7595 383.888 71.6476C390.077 71.4716 396.266 71.5996 402.151 71.5996C399.976 225.676 400.824 378.825 402.359 531.958C402.359 532.55 402.935 533.142 403.415 534.054C404.742 532.118 405.686 530.71 406.293 529.831C405.813 526.231 405.366 522.728 404.854 518.825H408.212C402.695 513.946 405.414 508.108 405.302 503.005C404.886 482.209 405.078 461.398 405.174 440.587C405.27 417.424 405.59 394.278 405.702 371.131C405.781 352.607 405.638 334.099 405.733 315.592C405.813 297.1 406.149 278.624 406.213 260.132C406.261 240.809 406.085 221.501 406.053 202.178C406.021 189.509 406.085 176.823 406.101 164.154V141.855C407.077 142.095 408.26 142.383 409.444 142.671C403.447 137.968 406.021 131.522 405.861 125.923C405.462 111.91 405.494 97.8816 405.526 83.8688C405.526 79.9977 406.197 76.1265 406.581 71.9515H426.94C426.94 58.9145 426.924 46.2134 426.956 33.4963C426.956 30.553 425.452 29.6252 422.686 29.6732C418.032 29.7372 413.362 29.6892 408.708 29.4173C407.653 29.3693 406.661 28.2175 405.638 27.5777C406.533 26.9698 407.365 25.978 408.356 25.8021C410.851 25.3862 413.41 25.4022 415.937 25.0822C419.583 24.6344 423.869 25.3222 424.845 19.9634C424.973 19.3076 427.004 18.2838 427.515 18.5717C430.906 20.4593 435.288 17.8999 438.358 21.0672C438.694 21.4191 439.782 21.0352 440.517 21.0032C440.406 20.5233 440.31 20.0434 440.278 19.9154C443.268 20.8912 446.707 21.947 450.113 23.1147C453.567 24.3144 456.91 26.378 460.444 26.7139C467.977 27.4497 473.75 32.4885 480.899 34.2002C486.432 35.5279 491.63 38.3112 497.067 40.1668C503.209 42.2623 509.414 45.3176 515.699 45.6055C521.984 45.8935 527.086 49.3487 533.227 49.7646C538.424 50.1165 543.494 52.42 548.644 53.7957C549.363 53.9876 550.163 53.8277 552.322 53.8277C550.035 51.9241 548.74 50.8523 547.444 49.7646C547.54 49.5886 547.636 49.4127 547.732 49.2207C549.555 50.2765 551.363 51.3802 553.218 52.34C555.872 53.7317 557.839 56.595 561.87 54.2436C563.645 53.2038 567.083 55.2513 569.802 55.5393C573.928 55.9552 578.118 56.4671 582.244 56.2111C586.722 55.9392 587.618 56.2271 587.57 60.6421C587.442 70.4638 587.074 80.3016 587.026 90.1393C586.994 100.665 587.25 111.19 587.33 121.716C587.442 134.993 587.554 148.27 587.57 161.531C587.618 178.951 587.618 196.355 587.538 213.775C587.458 231.067 587.17 248.343 587.106 265.635C587.058 278.864 585.859 292.285 587.634 305.29C589.633 319.943 587.042 334.211 587.298 348.656ZM414.913 64.9931C421.534 65.521 422.19 64.5292 421.742 58.0027C421.63 56.2271 422.366 54.3875 422.702 52.5959C423.245 52.6439 423.773 52.7079 424.317 52.7719V69.0402H407.509C409.284 65.569 411.555 64.7372 414.913 64.9931ZM413.81 62.4657C415.953 60.5621 417.664 59.0425 419.615 57.2989V62.8496C417.92 62.7376 416.193 62.6256 413.81 62.4657ZM424.253 47.0932C420.351 45.9575 421.07 43.0301 421.054 40.4547C420.99 34.3921 420.703 34.3121 414.801 35.112C412.722 35.3999 410.467 34.4561 408.292 34.0562C408.388 33.5123 408.468 32.9524 408.564 32.4086H424.253V47.0932ZM419.247 43.0621C416.864 40.9346 415.377 39.5909 413.426 37.8153C415.521 37.5434 417.056 37.3354 418.975 37.0795C419.055 38.8551 419.119 40.3427 419.247 43.0621ZM423.325 49.0288C417.136 55.6992 411.043 62.2897 404.79 69.0402C397.177 62.2097 390.205 55.9232 383.232 49.6686C389.053 41.6864 397.849 34.5201 401.959 35.2079C399.097 37.5914 396.65 39.6069 394.235 41.6545C391.884 43.654 389.581 45.6855 387.726 47.2852C393.307 53.2358 398.217 58.4666 403.287 63.8893C408.724 59.5383 413.954 55.4913 418.959 51.1563C419.551 50.6444 419.359 48.085 418.656 47.4291C415.649 44.6778 412.274 42.3263 409.108 39.7669C406.805 37.8953 404.614 35.9278 402.375 33.9922C402.455 33.5763 402.535 33.1764 402.631 32.7605C404.006 33.0324 405.781 32.8565 406.693 33.6563C412.418 38.7271 417.952 44.0059 423.325 49.0288ZM382.144 51.2362C382.48 51.0763 382.8 50.9323 383.136 50.7724C383.92 52.484 385.023 54.1156 385.407 55.9072C385.807 57.8107 385.727 59.8743 385.519 61.8258C385.151 65.361 386.942 66.3688 390.045 66.2568C392.316 66.1768 394.603 66.0808 396.858 66.3528C398.569 66.5447 400.232 67.2966 401.911 67.7925C401.783 68.3203 401.639 68.8322 401.511 69.3601H382.144V51.2362ZM381.904 46.3414V32.5845H396.97C394.139 38.2952 388.941 33.4483 385.119 36.0557C384.991 37.6554 384.927 39.7349 384.655 41.7824C384.431 43.446 383.952 45.0617 383.6 46.6933C383.024 46.5813 382.464 46.4693 381.904 46.3414ZM387.806 64.0653V55.7632C390.604 58.2746 393.163 60.5781 396.602 63.6494C393.307 63.8094 390.892 63.9213 387.806 64.0653ZM409.828 45.5416C410.307 45.5096 410.755 45.0137 411.443 44.6138C413.218 46.0055 414.945 47.3651 416.656 48.7088C415.137 51.8441 413.49 52.7559 410.563 50.8683C409.46 50.1485 407.621 50.5644 404.934 50.3884C406.213 52.8999 407.077 54.6115 408.084 56.579C406.917 57.5868 405.558 58.7705 403.191 60.8021C402.855 58.8505 402.471 57.8107 402.535 56.803C402.679 54.8514 403.079 52.9319 403.351 50.9963C401.128 51.5882 398.905 52.18 396.682 52.7719C396.666 53.1878 396.666 53.6037 396.65 54.0196C394.97 52.164 393.291 50.2925 391.436 48.2449C392.731 47.0772 394.155 45.7495 395.754 44.2938C396.826 44.9817 397.769 45.9255 398.873 46.1974C399.816 46.4214 401.112 46.1174 401.911 45.5576C402.263 45.3016 402.119 43.59 401.639 43.0141C399.8 40.7906 400.328 39.255 403.511 37.5754C404.038 39.047 404.774 40.4227 404.998 41.8944C405.19 43.1261 404.806 44.4698 404.678 45.7495C406.389 45.7015 408.116 45.7015 409.828 45.5416ZM224.329 539.844C234.164 540.036 244.032 539.492 253.883 539.508C274.946 539.508 296.024 539.748 317.102 539.732C334.742 539.732 352.398 539.396 370.054 539.38C394.363 539.364 418.672 539.556 442.98 539.588C455.551 539.604 468.121 539.396 480.691 539.396C498.587 539.412 516.499 539.54 534.394 539.572C550.195 539.604 565.996 539.748 581.797 539.46C586.131 539.38 588.785 541.348 592.48 544.899C539.848 544.419 488.383 543.923 436.903 543.443C436.887 544.147 436.871 544.851 436.855 545.571C455.119 547.794 473.59 546.003 492.174 547.091C492.014 548.642 491.902 549.826 491.806 550.834H244.879C244.752 550.258 244.624 549.682 244.496 549.106C246.079 548.594 247.662 547.634 249.245 547.634C257.977 547.602 266.725 547.938 275.473 547.89C289.499 547.826 303.541 547.57 317.582 547.362C318.766 547.346 319.949 547.091 321.148 546.323C314.543 543.763 307.603 545.059 300.854 544.739C293.801 544.387 286.732 544.563 279.663 544.547C272.611 544.531 265.542 544.579 258.473 544.595C251.42 544.627 244.352 544.675 237.283 544.675C230.278 544.691 223.257 544.691 215.661 544.691C217.788 540.388 220.555 539.764 224.329 539.844ZM399.864 562.927C405.366 565.806 409.86 568.142 414.354 570.493C414.689 570.093 415.025 569.693 415.361 569.293C413.33 567.438 411.315 565.566 409.284 563.711C409.428 563.407 409.572 563.087 409.732 562.783C413.538 564.623 417.328 566.542 421.182 568.302C422.558 568.926 424.109 569.149 425.596 569.565C425.149 568.174 424.717 566.798 424.221 565.198C426.972 567.006 429.706 568.83 433.113 571.069C429.035 571.069 425.612 571.085 422.206 571.069C408.34 571.021 394.475 570.829 380.609 570.973C377.746 571.005 375.747 570.189 374.036 568.126C371.909 565.534 369.782 562.911 367.319 559.872C372.565 561.055 377.938 562.255 383.168 563.439C383.856 563.167 384.927 562.319 385.663 562.543C390.045 563.871 394.363 565.422 398.665 566.974C399.848 567.406 400.936 568.126 402.711 567.934C401.959 566.606 401.208 565.278 399.864 562.927ZM427.467 563.199C427.787 562.671 428.107 562.127 428.427 561.599C432.905 564.447 437.383 567.294 441.877 570.141C435.256 571.005 432.745 564.782 427.467 563.199ZM239.282 563.055C243.552 566.222 246.895 568.702 250.941 571.693C243.68 571.693 237.699 571.709 231.718 571.677C230.214 571.677 228.695 571.597 227.192 571.485C224.409 571.293 220.555 572.061 219.163 570.557C217.772 569.07 218.859 565.278 218.859 562.495V561.151C228.439 559.632 236.084 562.959 241.953 571.021C242.225 570.653 242.497 570.269 242.768 569.885C241.809 567.982 240.833 566.094 239.282 563.055ZM242.401 560.607C249.757 561.711 253.1 567.726 259.305 570.429C257.013 571.389 251.378 568.115 242.401 560.607ZM209.264 550.786C208.688 550.818 208.064 549.858 207.473 549.362C207.601 548.978 207.729 548.594 207.857 548.21H242.033C242.065 548.738 242.081 549.266 242.113 549.778C231.27 551.65 220.203 550.338 209.264 550.786ZM101.537 600.278C101.921 599.447 102.097 598.807 102.449 598.327C111.245 586.665 119.993 574.972 128.949 563.455C130.036 562.063 132.339 560.895 134.082 560.879C160.934 560.719 187.77 560.767 214.621 560.783C214.893 560.783 215.165 560.943 215.597 561.071C215.645 561.839 215.693 562.655 215.757 563.775C214.573 563.375 213.63 563.039 212.414 562.623C212.478 563.359 212.366 563.855 212.574 564.079C214.573 566.27 216.589 568.19 215.373 571.853C215.053 572.781 217.724 575.708 219.371 576.076C222.698 576.828 226.264 576.412 229.734 576.492C235.044 576.636 240.37 576.844 245.679 576.956C249.853 577.036 254.043 577.02 258.217 577.1C260.312 577.132 262.423 577.276 264.518 577.42C268.629 577.708 272.675 577.932 276.113 574.892C276.945 574.156 278.416 573.852 279.6 573.836C290.491 573.724 301.366 573.788 312.257 573.644C321.932 573.516 331.624 573.005 341.299 572.957C347.616 572.925 353.949 573.485 360.282 573.58C362.441 573.612 364.6 572.989 367.271 572.589C364.616 581.819 362.01 590.889 359.307 600.278H101.537ZM652.724 600.23H362.026C364.6 590.985 367.063 582.123 369.254 574.188C384.079 574.188 398.265 573.932 412.45 574.348C416.784 574.476 421.07 576.444 425.053 577.5C424.749 577.116 423.837 575.916 422.43 574.076C428.907 574.076 434.888 573.932 440.853 574.124C444.899 574.252 448.946 575.132 452.24 571.741C452.544 571.421 453.424 571.629 454.031 571.629C469.976 571.709 485.921 571.869 501.865 571.821C510.949 571.773 520.033 571.229 529.117 571.277C530.588 571.293 532.619 572.925 533.419 574.348C534.89 576.956 536.729 577.819 539.592 577.804C556.192 577.724 572.793 577.772 589.873 577.772V563.823C592.112 565.694 593.471 566.83 594.831 567.95C595.23 567.662 595.614 567.374 596.014 567.086C594.814 565.198 593.615 563.311 592.496 561.519C596.67 562.095 600.812 561.647 605.13 560.735C609.192 559.872 613.574 560.495 617.828 560.511C622.914 560.511 627.999 560.511 633.085 560.735C634.236 560.783 635.996 561.487 636.379 562.367C641.865 574.748 647.158 587.225 652.724 600.23ZM597.965 535.189H595.166C596.318 536.069 597.469 536.933 598.621 537.813C598.893 537.525 599.165 537.221 599.436 536.917C598.941 536.341 598.445 535.765 597.965 535.189Z" fill="black"/>
<path d="M516.051 26.106C509.334 18.8917 502.633 11.6613 495.916 4.44699C496.396 3.99909 496.875 3.55119 497.355 3.11929C503.96 10.4296 510.581 17.7399 517.186 25.0503C516.802 25.4022 516.418 25.7541 516.035 26.106H516.051Z" fill="black"/>
<path d="M522.991 22.4109C520.033 18.8437 517.074 15.2765 514.115 11.7093C514.579 11.3414 515.043 10.9735 515.507 10.5896C518.401 14.2207 521.296 17.8679 524.207 21.4991C523.807 21.803 523.407 22.1069 522.991 22.4109Z" fill="black"/>
<path d="M533.147 14.4447C535.466 17.2761 537.769 20.1074 540.088 22.9388C539.816 23.1947 539.56 23.4506 539.288 23.7226C535.642 22.2029 533.93 18.7477 531.851 15.6604C532.283 15.2605 532.715 14.8446 533.147 14.4447Z" fill="black"/>
<path d="M358.619 65.8729C358.619 65.8729 358.523 65.9849 358.475 66.0489C358.571 66.0489 358.683 66.0329 358.779 66.0169L358.619 65.8729ZM391.612 118.501C391.228 106.344 390.908 94.1864 390.812 82.0132C390.78 78.286 388.893 77.9021 385.95 77.9501C373.204 78.1901 360.65 79.5977 348.464 84.3966C348.256 82.4931 347.92 80.8135 347.888 79.1339C347.712 70.4958 347.76 70.5598 356.156 68.5603C357.068 68.3523 357.723 66.9766 358.475 66.0489C355.005 66.4648 351.534 66.8807 348.064 67.2966C347.104 60.4821 347.136 60.3062 340.419 59.3144C338.228 58.9785 335.846 59.6503 333.623 60.1782C318.254 63.8094 303.716 69.552 289.835 77.0863C275.601 84.7966 260.488 89.1955 244.048 88.3317C243.84 85.9003 243.648 83.5328 243.44 81.1494C243.024 81.1654 242.592 81.1814 242.177 81.1974C241.873 82.5251 241.393 83.8528 241.313 85.1965C240.993 91.3071 241.409 91.675 247.566 91.483C249.581 91.435 251.58 91.483 253.595 91.483C250.429 92.9547 247.15 93.5625 243.968 94.4423C235.38 96.8418 235.38 96.8898 235.396 106.008C235.396 108.183 235.828 110.471 232.277 110.055C231.861 110.007 230.726 112.086 230.71 113.19C230.582 123.092 230.758 132.994 230.518 142.895C230.454 145.871 231.046 147.934 233.525 149.774C234.612 150.573 235.3 152.621 235.3 154.109C235.396 191.796 235.316 229.483 235.396 267.155C235.476 303.77 235.78 340.37 235.844 376.97C235.891 398.709 235.684 420.448 235.572 442.187C235.572 444.57 236.627 447.433 232.709 448.041C232.261 448.121 231.765 449.689 231.765 450.569C231.749 460.215 231.893 469.86 231.861 479.506C231.845 482.513 232.501 484.833 235.7 485.361C235.7 489.536 236.083 493.519 235.588 497.406C235.124 500.957 237.091 501.565 239.602 501.981C243.344 502.573 247.134 503.005 250.893 503.581C279.12 507.868 307.347 512.219 335.59 516.458C340.068 517.129 344.625 517.401 349.151 517.865C348.896 517.241 348.464 516.17 347.808 514.554C350.159 516.154 351.886 517.321 353.613 518.505C353.869 518.185 354.125 517.849 354.381 517.529C352.782 515.802 351.182 514.074 349.583 512.347C349.775 512.171 349.951 512.011 350.143 511.851C351.822 513.034 353.517 514.218 355.197 515.418C355.421 515.13 355.628 514.858 355.852 514.586C354.285 512.826 352.718 511.083 351.15 509.339C351.294 509.195 351.454 509.067 351.598 508.939C353.23 510.043 354.845 511.131 356.476 512.235C356.988 511.659 357.5 511.083 358.027 510.507C355.82 508.891 353.629 507.26 350.703 505.1C355.197 506.444 358.507 507.436 361.818 508.427C362.201 507.98 362.601 507.532 362.985 507.084C360.938 505.804 358.907 504.54 356.86 503.277C357.212 502.861 357.564 502.445 357.915 502.029C360.042 503.021 362.153 503.997 364.312 505.004C364.616 504.348 364.904 503.693 365.208 503.005C366.455 503.773 367.511 504.396 368.55 505.036C368.534 504.556 368.518 504.092 368.518 503.613C370.645 503.213 372.757 502.525 374.9 502.461C380.193 502.301 385.503 502.413 391.116 502.413C391.116 493.583 391.116 485.537 391.132 477.491C391.196 448.745 391.228 420.016 391.34 391.27C391.436 371.051 391.708 350.848 391.772 330.628C391.804 318.199 391.452 305.77 391.468 293.325C391.484 281.327 391.868 269.314 391.916 257.301C391.948 246.807 391.66 236.298 391.676 225.804C391.692 215.103 391.932 204.401 392.012 193.7C392.076 183.014 391.964 172.344 392.092 161.659C392.172 153.933 392.747 146.222 392.667 138.496C392.619 131.826 391.836 125.171 391.612 118.501ZM235.428 142.847C233.94 141.28 232.821 140.656 232.805 140C232.677 132.322 232.725 124.643 232.725 116.965C233.413 116.917 234.084 116.869 234.756 116.821C236.035 124.963 235.06 133.233 235.428 142.847ZM235.268 476.195C234.932 476.195 234.596 476.211 234.26 476.211V454.6C234.596 454.6 234.932 454.584 235.268 454.584V476.195ZM307.203 509.803C291.018 507.244 274.85 504.588 258.665 502.013C253.084 501.133 247.502 500.333 241.905 499.598C239.282 499.262 238.882 497.726 238.882 495.438C238.914 482.529 238.818 469.604 238.802 456.679C238.77 434.076 238.77 411.474 238.754 388.871C238.738 362.733 238.77 336.579 238.738 310.425C238.706 281.455 238.61 252.47 238.594 223.485C238.562 189.621 238.578 155.74 238.578 121.876V97.0977C249.981 99.8331 259.449 93.3226 269.844 91.2111C272.627 90.6512 274.866 87.8359 277.6 86.5721C292.058 79.8857 306.515 73.1992 321.132 66.8807C325.834 64.8491 331.016 63.9533 336.389 62.4177C337.797 213.471 339.204 364.045 340.611 514.954C329.289 513.21 318.238 511.547 307.203 509.803ZM340.563 172.344C340.323 140.112 340.196 107.895 340.036 75.6626C340.036 73.4552 340.036 71.2477 340.036 68.1444C341.667 69.712 342.658 70.6718 343.17 71.1677C340.771 77.3103 345.601 81.5973 345.329 86.8121C344.498 86.7481 343.682 86.6841 342.482 86.6041C343.362 88.7956 344.066 90.5552 344.913 92.6508C343.826 92.2029 342.994 91.8669 342.418 91.627C346.928 108.007 344.354 124.723 344.561 141.264C344.817 160.779 344.338 180.311 344.226 199.842C344.21 205.121 345.697 210.848 344.146 215.599C342.083 221.949 345.249 227.5 344.657 233.498C344.002 240.105 344.482 246.807 344.482 253.462C344.498 260.244 344.466 267.027 344.53 273.809C344.753 293.645 345.041 313.464 345.249 333.3C345.537 361.821 345.793 390.327 346.033 418.848C346.097 427.582 346.033 436.316 346.033 445.114C345.169 444.97 344.45 444.842 343.042 444.586C344.306 446.186 345.153 447.241 346.561 449.033C345.153 448.393 344.53 448.121 343.362 447.577C344.546 449.593 345.489 451.177 346.417 452.76C345.953 452.968 345.489 453.192 345.025 453.416C344.194 451.241 342.674 449.065 342.642 446.874C342.339 421.391 342.275 395.893 342.131 370.411C341.971 342.561 341.843 314.728 341.619 286.878C341.315 248.695 340.883 210.528 340.579 172.344H340.563ZM346.896 460.374C346.321 460.582 345.729 460.806 345.153 461.014C344.114 458.551 343.09 456.087 342.067 453.624C342.69 453.368 343.314 453.112 343.938 452.856C344.929 455.368 345.921 457.863 346.896 460.374ZM345.057 469.38C343.826 465.733 342.946 463.126 342.067 460.518C345.409 462.246 347.568 464.39 345.057 469.38ZM346.736 508.971C346.529 510.491 345.329 511.883 344.593 513.338C344.098 513.162 343.586 512.986 343.09 512.826V468.341C345.217 469.668 346.8 470.804 346.417 474.019C345.969 477.81 347.04 481.826 346.353 485.553C344.913 493.471 347.808 501.181 346.736 508.971Z" fill="black"/>
<path d="M569.146 450.777C564.093 450.473 565.516 447.002 565.484 444.01C565.276 416.528 564.956 389.031 564.748 361.549C564.556 338.706 564.412 315.848 564.38 293.005C564.38 291.341 565.372 289.678 565.884 288.078C565.468 286.83 564.588 285.391 564.556 283.935C564.348 266.851 564.188 249.751 564.14 232.667C564.093 207.057 564.14 181.446 564.14 155.676C566.108 153.613 570.697 154.221 570.41 149.086C569.882 139.344 570.026 129.538 569.914 119.765C569.85 114.278 569.178 113.462 563.629 112.47C563.629 109.975 563.533 107.447 563.661 104.904C563.853 100.953 561.47 99.4652 558.143 99.5452C538.376 100.041 519.473 95.4181 500.698 90.0434C497.563 89.1636 494.477 88.0758 491.294 87.42C481.586 85.4044 471.927 82.973 462.107 81.8212C448.802 80.2376 435.368 79.5977 421.966 78.8299C420.862 78.7659 418.655 80.7975 418.607 81.9172C417.984 99.0813 417.552 116.245 417.248 133.409C417.072 143.791 417.152 154.173 417.152 164.554C417.136 176.056 417.168 187.541 417.168 199.042C417.168 208.544 417.168 218.03 417.136 227.532C417.12 235.53 417.024 243.512 417.024 251.494C416.992 263.732 417.04 275.969 417.024 288.206C417.024 296.348 416.896 304.474 416.928 312.6C416.944 319.351 417.216 326.085 417.136 332.82C417.04 342.321 416.64 351.807 416.56 361.309C416.512 367.436 416.928 373.578 416.912 379.721C416.896 391.03 416.608 402.324 416.608 413.633C416.592 426.686 416.784 439.739 416.848 452.792C416.896 465.541 417.008 478.29 416.864 491.023C416.752 500.269 416.88 500.605 425.628 500.605C425.772 500.605 425.916 500.589 426.06 500.589C440.981 500.701 455.902 500.909 470.823 500.893C500.65 500.861 530.46 500.605 560.27 500.701C564.556 500.701 566.299 499.533 565.98 495.246C565.74 492.223 565.132 488.928 569.402 487.728C569.914 487.584 570.186 485.745 570.186 484.689C570.25 474.339 570.25 463.99 570.186 453.64C570.17 452.632 569.578 450.793 569.178 450.777H569.146ZM564.348 119.269C565.116 119.845 566.379 120.372 566.379 120.884C566.427 128.866 566.316 136.849 566.252 144.815C565.612 144.831 564.988 144.847 564.348 144.863V119.269ZM422.526 495.486V106.76C423.405 107.127 424.125 107.431 425.308 107.927C420.623 99.0013 421.71 89.8514 421.902 80.6535C436.391 80.1096 450.753 81.0214 464.874 84.2367C486.8 89.2435 508.614 94.6983 530.556 99.5612C539.512 101.545 548.692 102.441 558.383 103.944C559.774 234.074 561.15 364.492 562.541 495.486H422.526ZM567.995 481.122C567.371 481.202 566.763 481.298 566.14 481.378C565.228 474.243 565.932 466.981 565.708 459.799C565.676 459.047 566.523 458.263 566.971 457.479C567.307 457.607 567.659 457.735 567.995 457.847V481.122Z" fill="black"/>
<path d="M560.766 69.9839C561.07 66.2568 559.711 65.345 556.432 65.0251C549.123 64.3052 541.847 63.2655 534.554 62.3697C531.516 62.0018 528.317 62.0818 525.454 61.17C518.114 58.7865 510.965 55.8272 503.64 53.3638C492.685 49.6686 481.73 45.8775 470.6 42.7742C461.836 40.3267 453.024 37.4794 443.604 38.4872C441.189 38.7591 440.453 39.319 440.741 41.8144C441.237 46.0214 441.301 50.2605 441.541 54.4835C441.445 54.4835 441.365 54.4995 441.285 54.4995C441.285 57.7467 441.605 61.058 441.205 64.2572C440.725 68.1763 442.229 68.7842 445.875 69.0402C456.238 69.808 466.761 70.3199 476.853 72.6073C491.278 75.8706 505.384 80.5895 519.585 84.7965C531.548 88.3317 543.606 91.2751 556.176 91.579C559.695 91.675 560.99 90.6192 560.798 86.988C560.494 81.3253 560.302 75.6146 560.766 69.9839ZM558.207 88.3637C548.356 88.6517 538.904 87.388 529.628 84.8445C511.365 79.8217 493.229 74.2869 474.838 69.808C466.138 67.6965 456.99 67.2326 448.018 66.6727C444.18 66.4328 443.14 65.521 443.348 61.7618C443.684 55.3153 443.428 48.8528 443.428 42.2143C457.326 41.9904 469.736 45.9894 482.098 50.3404C492.206 53.8756 502.313 57.5068 512.564 60.5781C524.143 64.0333 535.866 67.0246 547.588 69.9679C550.947 70.7998 554.513 70.7838 558.207 71.1677V88.3637Z" fill="black"/>
<path d="M358.779 66.0169V43.0461C346.577 42.4063 335.59 45.8295 325.13 50.3245C307.347 57.9707 288.795 62.4817 269.86 65.7449C262.519 67.0086 255.099 67.8724 247.742 69.0082C245.407 69.3601 243.424 70.0639 243.856 73.2792C244.128 75.2787 243.664 77.3583 243.536 79.4058C243.168 79.4858 242.8 79.5658 242.432 79.6457C242.049 78.494 241.409 77.3583 241.329 76.1905C241.169 73.7911 240.945 71.2957 241.473 69.0082C241.793 67.6165 243.328 65.6649 244.544 65.473C254.587 63.9053 264.726 62.9136 274.754 61.2979C279.184 60.5781 283.454 58.8345 287.788 57.5228C306.451 51.8441 325.066 45.9895 343.794 40.5667C349.135 39.0151 354.845 38.7111 360.954 37.7513C361.274 40.9666 361.738 43.2541 361.658 45.5256C361.482 51.8601 361.114 58.1947 360.666 64.5132C360.634 65.0091 359.339 65.409 358.635 65.8569L358.795 66.0009L358.779 66.0169Z" fill="black"/>
<path d="M434.232 546.195C406.933 547.219 380.385 547.714 353.837 546.291C357.196 543.715 430.842 543.635 434.232 546.195Z" fill="black"/>
<path d="M324.011 546.131C328.233 543.171 342.067 543.187 345.361 545.875C338.037 547.522 331.064 548.306 324.011 546.131Z" fill="black"/>
<path d="M333.367 265.651C329.912 260.612 323.595 257.717 320.093 260.196C314.383 264.211 313.088 270.274 313.648 276.817C314.127 282.479 317.294 285.774 322.955 287.246V496.734C299.27 492.591 276.033 488.512 252.668 484.401V112.07C254.379 111.766 256.17 111.398 257.977 111.159C267.749 109.879 276.913 106.76 285.597 102.121C297.479 95.77 308.05 86.7801 322.028 84.2527C322.076 84.7166 322.22 85.3564 322.22 86.0123C322.188 121.684 322.172 157.372 322.14 193.044C322.108 213.567 322.06 234.074 322.108 254.598C322.108 256.005 322.684 257.413 322.987 258.805C323.627 258.709 324.267 258.597 324.891 258.485V253.062C324.859 214.367 324.827 175.688 324.779 136.993C324.763 119.285 324.715 101.561 324.763 83.8368C324.763 80.3816 324.043 78.574 320.125 80.3176C313.696 83.2129 307.027 85.6284 300.726 88.7956C284.941 96.7138 270.036 106.648 252.14 109.591C248.494 110.199 247.934 112.31 247.966 115.542C248.11 128.147 248.014 140.768 248.014 153.373C247.982 195.987 247.95 238.601 247.934 281.216C247.934 326.917 247.95 372.619 247.95 418.32C247.934 439.547 247.886 460.774 247.902 482.001C247.902 483.585 248.19 485.185 248.334 486.704C250.413 486.592 251.948 486.257 253.403 486.48C259.976 487.52 266.533 488.72 273.106 489.888C289.579 492.799 306.051 495.662 322.508 498.718C325.162 499.198 325.738 498.718 325.434 496.062C325.114 493.279 325.434 490.416 325.434 487.6C325.434 462.518 325.402 437.436 325.434 412.369C325.466 386.039 325.594 359.71 325.658 333.396C325.69 318.663 325.658 303.93 325.658 290.877C328.985 288.318 331.751 286.814 333.671 284.575C339.076 278.32 337.653 271.938 333.351 265.651H333.367ZM327.897 273.201C322.684 275.345 326.106 280 324.203 282.847C323.835 281.823 323.483 280.816 323.147 279.824C322.827 279.744 322.508 279.664 322.188 279.584C321.788 280.752 321.388 281.903 320.668 283.935C320.397 283.743 318.845 283.247 318.062 282.175C314.016 276.529 315.999 266.627 321.804 262.676C324.747 260.66 327.114 261.844 327.561 265.427C327.673 266.339 328.329 267.155 328.633 268.051C328.889 268.818 328.985 269.634 329.32 271.218C328.009 270.098 327.337 269.538 326.058 268.45C326.89 270.594 327.465 272.098 327.897 273.201Z" fill="black"/>
<path d="M546.501 117.797V477.522H439.27V291.133C439.766 291.117 440.277 291.101 440.773 291.085C441.621 303.051 441.061 315.08 441.173 327.077C441.285 339.41 441.205 351.743 441.205 364.077C441.205 376.41 441.237 388.759 441.237 401.092C441.237 413.425 441.205 425.758 441.205 438.108C441.205 450.409 441.205 462.726 441.205 475.315H543.958V121.076C535.306 119.077 526.91 117.429 518.673 115.19C505.064 111.494 491.598 107.287 477.988 103.592C470.392 101.529 462.683 99.7851 454.927 98.4734C450.113 97.6576 445.139 97.9295 439.782 97.6896V256.693C439.334 256.789 438.902 256.901 438.454 256.997C438.102 255.765 437.447 254.534 437.447 253.318C437.351 213.871 437.287 174.408 437.303 134.961C437.303 123.236 437.575 111.494 437.671 99.7691C437.671 97.9615 437.431 96.154 437.255 93.6585C443.86 94.2984 450.241 95.0022 456.638 95.5461C473.654 96.9858 489.295 103.56 505.495 108.167C518.21 111.782 531.26 114.198 544.15 117.141C545.077 117.349 545.973 117.653 546.517 117.813L546.501 117.797Z" fill="black"/>
<path d="M539.24 275.201C539.592 254.454 536.521 234.106 533.179 213.727C531.036 200.722 528.461 187.877 523.951 175.48C519.953 164.522 515.315 153.901 507.527 144.959C501.513 138.048 492.078 136.977 484.657 142.383C476.293 148.478 471.671 157.196 467.945 166.458C460.908 184.022 457.134 202.45 453.855 220.989C449.857 243.672 449.137 266.643 449.537 289.55C449.841 307.322 451.376 325.109 453.12 342.817C455.902 371.147 461.66 398.789 477.764 422.959C481.251 428.206 486.576 432.509 494.221 432.701C500.986 432.877 504.872 429.118 508.918 424.927C520.8 412.641 524.031 396.229 528.781 380.857C532.427 369.083 533.659 356.494 535.226 344.177C537.001 330.292 538.248 316.311 539.128 302.331C539.704 293.309 539.24 284.239 539.24 275.201ZM535.002 311.944C534.042 329.988 531.979 348.048 528.957 365.852C526.062 383 521.184 399.86 512.356 415.073C509.654 419.744 505.463 423.679 501.449 427.406C497.531 431.037 491.006 430.637 486.496 427.166C480.659 422.671 476.133 417.184 473.798 409.938C482.642 404.723 491.534 399.476 500.426 394.214C500.122 393.67 499.818 393.126 499.514 392.582C490.686 397.573 481.858 402.58 472.263 408.002C469.928 402.02 467.465 396.501 465.626 390.79C459.725 372.507 456.622 353.599 454.799 334.563C453.343 319.527 452.528 304.378 452.368 289.262C452.112 264.019 453.455 238.825 457.917 213.903C458.413 211.152 458.781 208.32 459.741 205.729C460.236 204.385 461.724 203.169 463.067 202.402C469.704 198.61 476.437 195.027 483.122 191.3C484.033 190.788 484.769 189.988 485.601 189.317C485.345 188.853 485.089 188.405 484.817 187.941C477.029 192.036 469.224 196.115 461.116 200.37C465.066 181.462 470.536 163.499 482.338 148.046C487.376 141.456 495.964 139.856 502.649 144.863C505.192 146.766 507.175 149.422 509.766 152.093C505.112 154.541 500.602 156.924 496.076 159.307C496.268 159.755 496.476 160.203 496.684 160.651C501.401 158.54 506.119 156.428 511.077 154.221C512.196 156.14 513.332 158.396 514.755 160.459C516.898 163.514 516.834 165.85 513.092 167.434C512.66 167.626 512.372 168.169 512.292 169.449C513.988 169.033 515.683 168.633 518.561 167.945C521.504 177.623 525.486 187.237 527.261 197.251C530.604 216.014 533.722 234.938 535.002 253.926C536.297 273.185 536.025 292.653 535.002 311.944Z" fill="black"/>
<path d="M447.282 270.53C446.627 266.355 441.605 260.836 437.687 260.164C433.449 259.429 429.93 261.188 427.899 264.691C425.084 269.554 424.429 275.009 427.419 280C428.987 282.607 431.561 284.767 434.088 286.558C435.544 287.598 437.99 288.286 439.638 287.822C444.787 286.398 447.426 281.583 447.49 273.489C447.49 273.345 447.49 271.922 447.282 270.53ZM442.996 269.026C442.34 272.881 442.788 276.737 442.069 280.768C441.397 279.664 440.805 278.704 439.846 277.136C439.718 279.712 439.622 281.551 439.526 283.391C439.302 283.407 439.078 283.423 438.854 283.439C438.678 282.687 438.518 281.951 438.102 280.08C437.495 282.127 437.207 283.087 436.919 283.999C432.313 284.271 429.578 282.111 429.163 277.84C428.827 274.273 428.875 270.546 429.578 267.059C430.25 263.748 434.744 261.508 437.943 262.116C441.765 262.852 443.428 266.435 442.996 269.026Z" fill="black"/>
<path d="M490.654 329.348C500.858 324.246 511.061 319.143 522.144 313.608C519.521 318.087 495.164 330.836 491.246 330.468C491.054 330.084 490.862 329.716 490.67 329.332L490.654 329.348Z" fill="black"/>
<path d="M535.066 268.338C531.196 272.817 511.237 282.383 508.342 280.656C517.266 276.129 525.918 271.714 534.586 267.315C534.746 267.651 534.906 267.987 535.066 268.322V268.338Z" fill="black"/>
<path d="M516.083 383.24C513.94 388.375 508.854 391.142 505.767 389.447C509.398 387.271 512.74 385.256 516.083 383.24Z" fill="black"/>
<path d="M215.501 332.036V409.682C215.389 392.662 215.165 375.658 215.085 358.638C215.053 349.776 215.341 340.898 215.501 332.036Z" fill="black"/>
<path d="M591.408 182.262C591.2 182.63 591.04 182.982 590.944 183.334V176.424C591.92 178.919 592.879 181.446 594.127 184.662C592.895 183.574 592.24 182.998 591.408 182.262Z" fill="black"/>
<path d="M591.472 365.964C591.296 366.108 591.12 366.236 590.944 366.364V358.302C591.616 360.909 592.288 363.517 592.975 366.204C592.975 366.204 592.224 366.092 591.472 365.964Z" fill="black"/>
<path d="M591.568 249.495C591.264 250.423 591.056 251.318 590.944 252.166V240.553C591.488 243.864 592.016 247.095 592.479 250.007C592.304 249.911 591.92 249.687 591.568 249.495Z" fill="black"/>
<path d="M591.584 108.055C591.136 109.399 590.944 110.631 590.944 111.798V104.728C591.312 106.76 592.335 108.631 594.51 110.295C593.567 109.575 592.639 108.855 591.584 108.055Z" fill="black"/>
<path d="M596.813 195.459C595.102 193.62 593.391 191.796 590.944 189.173V185.893C591.312 187.029 592.08 188.053 592.847 189.061C594.335 191.044 595.95 192.916 596.813 195.459Z" fill="black"/>
<path d="M592.607 533.254C593.455 533.894 594.319 534.549 595.166 535.189H592.559C592.319 534.645 592.08 534.102 591.824 533.574C592.08 533.478 592.335 533.366 592.607 533.254Z" fill="black"/>
<path d="M596.877 456.519C594.91 454.712 593.423 453.352 591.808 451.88C591.408 452.808 591.12 453.704 590.944 454.584V441.995C592.767 444.154 594.59 446.33 596.414 448.489C596.254 448.665 596.094 448.857 595.934 449.049C594.558 448.041 593.183 447.017 591.36 445.69C589.793 451.049 596.542 451.768 596.877 456.519Z" fill="black"/>
<path d="M592.783 269.938C593.855 272.178 595.806 274.001 597.373 276.001C596.925 276.401 596.494 276.801 596.046 277.216C595.358 275.617 594.654 274.017 593.951 272.434C593.503 272.849 593.039 273.265 592.591 273.681C593.103 275.025 593.615 276.385 594.287 278.16C593.023 278.016 592.272 277.92 591.52 277.824C591.328 277.968 591.136 278.128 590.944 278.256V262.964C591.488 265.315 591.744 267.811 592.783 269.938Z" fill="black"/>
<path d="M591.648 120.228C591.408 120.292 591.184 120.356 590.944 120.42V111.798C590.944 118.421 597.069 122.74 598.477 128.898C596.206 126.019 593.919 123.124 591.648 120.228Z" fill="black"/>
<path d="M599.372 268.163C599.084 268.386 598.781 268.594 598.493 268.802C596.254 266.691 594.031 264.579 591.808 262.452C591.52 262.484 591.232 262.516 590.944 262.532V255.733C591.696 260.708 595.55 264.435 599.372 268.163Z" fill="black"/>
<path d="M599.42 240.265C596.861 237.833 594.287 235.418 591.712 232.987C591.456 233.211 591.2 233.434 590.944 233.642V219.63C591.68 223.645 593.759 227.132 598.908 229.531C598.493 229.803 598.077 230.091 597.645 230.379C595.758 228.796 593.855 227.228 591.472 225.244C589.985 233.003 598.301 234.378 599.42 240.265Z" fill="black"/>
</g>
<defs>
<clipPath id="clip0_23_80">
<rect width="800" height="628" fill="white"/>
</clipPath>
</defs>
</svg>
